{
.appVersion = "1264";
copyright = "Copyright 2019 The Tomorrow Project Authors (https://github.com/MonicaRizzolli/Tomorrow)";
customParameters = (
{
name = licenseURL;
value = "http://scripts.sil.org/OFL";
},
{
name = license;
value = "This Font Software is licensed under the SIL Open Font License, Version 1.1. This license is available with a FAQ at: http://scripts.sil.org/OFL";
},
{
name = vendorID;
value = JUST;
},
{
name = panose;
value = (
0,
0,
9,
0,
0,
0,
0,
0,
0,
0
);
},
{
name = unicodeRanges;
value = (
0,
1,
2,
29
);
},
{
name = codePageRanges;
value = (
1252,
1250,
1257,
852
);
},
{
name = fsType;
value = (
);
},
{
name = blueScale;
value = 0.037;
},
{
name = glyphOrder;
value = (
.notdef,
CR,
space,
A,
Aacute,
Abreve,
uni1EAE,
uni1EB6,
uni1EB0,
uni1EB2,
uni1EB4,
Acircumflex,
uni1EA4,
uni1EAC,
uni1EA6,
uni1EA8,
uni1EAA,
uni0200,
Adieresis,
uni1EA0,
Agrave,
uni1EA2,
uni0202,
Amacron,
Aogonek,
Aring,
Aringacute,
Atilde,
AE,
AEacute,
B,
C,
Cacute,
Ccaron,
Ccedilla,
Ccircumflex,
Cdotaccent,
D,
uni01C4,
Eth,
Dcaron,
Dcroat,
uni01C5,
E,
Eacute,
Ebreve,
Ecaron,
Ecircumflex,
uni1EBE,
uni1EC6,
uni1EC0,
uni1EC2,
uni1EC4,
uni0204,
Edieresis,
Edotaccent,
uni1EB8,
Egrave,
uni1EBA,
uni0206,
Emacron,
Eogonek,
uni1EBC,
F,
G,
Gbreve,
Gcaron,
Gcircumflex,
uni0122,
Gdotaccent,
H,
Hbar,
Hcircumflex,
I,
Iacute,
Ibreve,
Icircumflex,
uni0208,
Idieresis,
Idotaccent,
uni1ECA,
Igrave,
uni1EC8,
uni020A,
Imacron,
Iogonek,
Itilde,
J,
Jcircumflex,
K,
uni0136,
L,
uni01C7,
Lacute,
Lcaron,
uni013B,
Ldot,
uni01C8,
Lslash,
M,
N,
uni01CA,
Nacute,
Ncaron,
uni0145,
Eng,
uni01CB,
Ntilde,
O,
Oacute,
Obreve,
Ocircumflex,
uni1ED0,
uni1ED8,
uni1ED2,
uni1ED4,
uni1ED6,
uni020C,
Odieresis,
uni022A,
uni0230,
uni1ECC,
Ograve,
uni1ECE,
Ohorn,
uni1EDA,
uni1EE2,
uni1EDC,
uni1EDE,
uni1EE0,
Ohungarumlaut,
uni020E,
Omacron,
uni01EA,
Oslash,
Oslashacute,
Otilde,
uni022C,
OE,
P,
Thorn,
Q,
R,
Racute,
Rcaron,
uni0156,
uni0210,
uni0212,
S,
Sacute,
Scaron,
Scedilla,
Scircumflex,
uni0218,
uni1E9E,
uni018F,
T,

glyphs = (
{
glyphname = .notdef;
layers = (
{
hints = (
{
horizontal = 1;
place = "{83, 127}";
type = Stem;
},
{
horizontal = 1;
place = "{312, 211}";
type = Stem;
},
{
place = "{161, 150}";
type = Stem;
},
{
place = "{410, 150}";
type = Stem;
},
{
place = "{44, 131}";
type = Stem;
},
{
place = "{547, 131}";
type = Stem;
}
);
layerId = "E328F9F0-3A13-48BC-903B-CF0D861777C2";
paths = (
{
closed = 1;
nodes = (
"161 312 LINE",
"311 312 LINE",
"311 523 LINE",
"161 523 LINE"
);
},
{
closed = 1;
nodes = (
"410 312 LINE",
"560 312 LINE",
"560 523 LINE",
"410 523 LINE"
);
},
{
closed = 1;
nodes = (
"44 -11 LINE",
"175 -11 LINE",
"175 42 LINE",
"217 83 LINE",
"505 83 LINE",
"547 42 LINE",
"547 -11 LINE",
"678 -11 LINE",
"678 114 LINE",
"569 210 LINE",
"152 210 LINE",
"44 114 LINE"
);
}
);
width = 722;
}
);
note = .notdef;
},
{
glyphname = A;
layers = (
{
hints = (
{
horizontal = 1;
place = "{109, 181}";
type = Stem;
},
{
horizontal = 1;
place = "{568, 169}";
type = Stem;
},
{
place = "{11, 818}";
type = Stem;
}
);
layerId = "E328F9F0-3A13-48BC-903B-CF0D861777C2";
paths = (
{
closed = 1;
nodes = (
"11 0 LINE",
"309 0 LINE",
"326.26 109 LINE",
"513.71 109 LINE",
"530.98 0 LINE",
"828.98 0 LINE",
"666.98 737 LINE",
"173.98 737 LINE"
);
},
{
closed = 1;
nodes = (
"354.92 290 LINE",
"398.97 568 LINE",
"440.97 568 LINE",
"485.01 290 LINE"
);
}
);
width = 840;
}
);
leftKerningGroup = A;
note = A;
rightKerningGroup = A;
unicode = 0041;
},
{
glyphname = Aacute;
layers = (
{
hints = (
{
horizontal = 1;
place = "{109, 181}";
type = Stem;
},
{
horizontal = 1;
place = "{568, 169}";
type = Stem;
},
{
horizontal = 1;
place = "{789, 163}";
type = Stem;
},
{
place = "{11, 818}";
type = Stem;
}
);
layerId = "E328F9F0-3A13-48BC-903B-CF0D861777C2";
paths = (
{
closed = 1;
nodes = (
"333 789 LINE",
"505 789 LINE",
"667 952 LINE",
"442 952 LINE"
);
},
{
closed = 1;
nodes = (
"11 0 LINE",
"309 0 LINE",
"326.26 109 LINE",
"513.71 109 LINE",
"530.98 0 LINE",
"828.98 0 LINE",
"666.98 737 LINE",
"173.98 737 LINE"
);
},
{
closed = 1;
nodes = (
"354.92 290 LINE",
"398.97 568 LINE",
"440.97 568 LINE",
"485.01 290 LINE"
);
}
);
width = 840;
}
);
leftKerningGroup = A;
note = Aacute;
rightKerningGroup = A;
unicode = 00C1;
},
{
glyphname = Abreve;
layers = (
{
hints = (
{
horizontal = 1;
place = "{109, 181}";
type = Stem;
},
{
horizontal = 1;
place = "{568, 169}";
type = Stem;
},
{
horizontal = 1;
place = "{789, 163}";
type = Stem;
},
{
place = "{179, 191}";
type = Stem;
},
{
place = "{472, 191}";
type = Stem;
},
{
horizontal = 1;
place = "{877, 75}";
type = Stem;
},
{
horizontal = 1;
place = "{789, 111}";
type = Stem;
}
);
layerId = "E328F9F0-3A13-48BC-903B-CF0D861777C2";
paths = (
{
closed = 1;
nodes = (
"282 789 LINE",
"560 789 LINE",
"663 877 LINE",
"663 952 LINE",
"472 952 LINE",
"472 900 LINE",
"370 900 LINE",
"370 952 LINE",
"179 952 LINE",
"179 877 LINE"
);
},
{
closed = 1;
nodes = (
"11 0 LINE",
"309 0 LINE",
"326.26 109 LINE",
"513.71 109 LINE",
"530.98 0 LINE",
"828.98 0 LINE",
"666.98 737 LINE",
"173.98 737 LINE"
);
},
{
closed = 1;
nodes = (
"354.92 290 LINE",
"398.97 568 LINE",
"440.97 568 LINE",
"485.01 290 LINE"
);
}
);
width = 840;
}
);
leftKerningGroup = A;
note = Abreve;
rightKerningGroup = A;
unicode = 0102;
},
{
glyphname = uni1EAE;
layers = (
{
hints = (
{
horizontal = 1;
place = "{109, 181}";
type = Stem;
},
{
horizontal = 1;
place = "{568, 169}";
type = Stem;
},
{
horizontal = 1;
place = "{789, 163}";
type = Stem;
},
{
horizontal = 1;
place = "{985, 163}";
type = Stem;
},
{
place = "{179, 191}";
type = Stem;
},
{
place = "{472, 191}";
type = Stem;
},
{
horizontal = 1;
place = "{877, 75}";
type = Stem;
},
{
horizontal = 1;
place = "{789, 111}";
type = Stem;
}
);
layerId = "E328F9F0-3A13-48BC-903B-CF0D861777C2";
paths = (
{
closed = 1;
nodes = (
"339 985 LINE",
"511 985 LINE",
"673 1148 LINE",
"448 1148 LINE"
);
},
{
closed = 1;
nodes = (
"282 789 LINE",
"560 789 LINE",
"663 877 LINE",
"663 952 LINE",
"472 952 LINE",
"472 900 LINE",
"370 900 LINE",
"370 952 LINE",
"179 952 LINE",
"179 877 LINE"
);
},
{
closed = 1;
nodes = (
"11 0 LINE",
"309 0 LINE",
"326.26 109 LINE",
"513.71 109 LINE",
"530.98 0 LINE",
"828.98 0 LINE",
"666.98 737 LINE",
"173.98 737 LINE"
);
},
{
closed = 1;
nodes = (
"354.92 290 LINE",
"398.97 568 LINE",
"440.97 568 LINE",
"485.01 290 LINE"
);
}
);
width = 840;
}
);
leftKerningGroup = A;
note = uni1EAE;
rightKerningGroup = A;
unicode = 1EAE;
},
{
glyphname = uni1EB6;
layers = (
{
hints = (
{
horizontal = 1;
place = "{-209, 158}";
type = Stem;
},
{
horizontal = 1;
place = "{109, 181}";
type = Stem;
},
{
horizontal = 1;
place = "{568, 169}";
type = Stem;
},
{
horizontal = 1;
place = "{789, 163}";
type = Stem;
},
{
place = "{288.5, 263}";
type = Stem;
},
{
horizontal = 1;
place = "{877, 75}";
type = Stem;
},
{
place = "{472, 191}";
type = Stem;
},
{
horizontal = 1;
place = "{789, 111}";
type = Stem;
},
{
place = "{179, 191}";
type = Stem;
}
);
layerId = "E328F9F0-3A13-48BC-903B-CF0D861777C2";
paths = (
{
closed = 1;
nodes = (
"282 789 LINE",
"560 789 LINE",
"663 877 LINE",
"663 952 LINE",
"472 952 LINE",
"472 900 LINE",
"370 900 LINE",
"370 952 LINE",
"179 952 LINE",
"179 877 LINE"
);
},
{
closed = 1;
nodes = (
"11 0 LINE",
"309 0 LINE",
"326.26 109 LINE",
"513.71 109 LINE",
"530.98 0 LINE",
"828.98 0 LINE",
"666.98 737 LINE",
"173.98 737 LINE"
);
},
{
closed = 1;
nodes = (
"354.92 290 LINE",
"398.97 568 LINE",
"440.97 568 LINE",
"485.01 290 LINE"
);
},
{
closed = 1;
nodes = (
"288.47 -209 LINE",
"551.47 -209 LINE",
"551.47 -51 LINE",
"288.47 -51 LINE"
);
}
);
width = 840;
}
);
leftKerningGroup = A;
note = uni1EB6;
rightKerningGroup = A;
unicode = 1EB6;
},
{
glyphname = uni1EB0;
layers = (
{
hints = (
{
horizontal = 1;
place = "{109, 181}";
type = Stem;
},
{
horizontal = 1;
place = "{568, 169}";
type = Stem;
},
{
horizontal = 1;
place = "{789, 163}";
type = Stem;
},
{
horizontal = 1;
place = "{985, 163}";
type = Stem;
},
{
place = "{179, 191}";
type = Stem;
},
{
place = "{472, 191}";
type = Stem;
},
{
horizontal = 1;
place = "{877, 75}";
type = Stem;
},
{
horizontal = 1;
place = "{789, 111}";
type = Stem;
}
);
layerId = "E328F9F0-3A13-48BC-903B-CF0D861777C2";
paths = (
{
closed = 1;
nodes = (
"331 985 LINE",
"503 985 LINE",
"394 1148 LINE",
"169 1148 LINE"
);
},
{
closed = 1;
nodes = (
"282 789 LINE",
"560 789 LINE",
"663 877 LINE",
"663 952 LINE",
"472 952 LINE",
"472 900 LINE",
"370 900 LINE",
"370 952 LINE",
"179 952 LINE",
"179 877 LINE"
);
},
{
closed = 1;
nodes = (
"11 0 LINE",
"309 0 LINE",
"326.26 109 LINE",
"513.71 109 LINE",
"530.98 0 LINE",
"828.98 0 LINE",
"666.98 737 LINE",
"173.98 737 LINE"
);
},
{
closed = 1;
nodes = (
"354.92 290 LINE",
"398.97 568 LINE",
"440.97 568 LINE",
"485.01 290 LINE"
);
}
);
width = 840;
}
);
leftKerningGroup = A;
note = uni1EB0;
rightKerningGroup = A;
unicode = 1EB0;
},
{
glyphname = uni1EB2;
layers = (
{
hints = (
{
horizontal = 1;
place = "{109, 181}";
type = Stem;
},
{
horizontal = 1;
place = "{568, 169}";
type = Stem;
},
{
horizontal = 1;
place = "{788.96, 163}";
type = Stem;
},
{
horizontal = 1;
place = "{984.99, 106}";
type = Stem;
},
{
horizontal = 1;
place = "{1115.99, 107}";
type = Stem;
},
{
place = "{337, 33}";
type = Stem;
},
{
place = "{472, 23}";
type = Stem;
},
{
horizontal = 1;
place = "{1023.99, 67}";
type = Stem;
},
{
place = "{435, 150}";
type = Stem;
},
{
place = "{258, 145}";
type = Stem;
},
{
horizontal = 1;
place = "{1156.99, 66}";
type = Stem;
},
{
horizontal = 1;
place = "{876.96, 75}";
type = Stem;
},
{
place = "{472, 191}";
type = Stem;
},
{
horizontal = 1;
place = "{788.96, 111}";
type = Stem;
}
);
layerId = "E328F9F0-3A13-48BC-903B-CF0D861777C2";
paths = (
{
closed = 1;
nodes = (
"337 984.98 LINE",
"495 984.98 LINE",
"495 1023.98 LINE",
"537 1023.98 LINE",
"585 1061.98 LINE",
"585 1180.98 LINE",
"536 1222.98 LINE",
"313 1222.98 LINE",
"258 1180.98 LINE",
"258 1115.98 LINE",
"403 1115.98 LINE",
"403 1156.98 LINE",
"435 1156.98 LINE",
"435 1090.98 LINE",
"376 1090.98 LINE",
"337 1061.98 LINE"
);
},
{
closed = 1;
nodes = (
"282 788.95 LINE",
"560 788.95 LINE",
"663 876.95 LINE",
"663 951.95 LINE",
"472 951.95 LINE",
"472 899.95 LINE",
"370 899.95 LINE",
"370 951.95 LINE",
"179 951.95 LINE",
"179 876.95 LINE"
);
},
{
closed = 1;
nodes = (
"11 0 LINE",
"309 0 LINE",
"326.26 109 LINE",
"513.71 109 LINE",
"530.98 0 LINE",
"828.98 0 LINE",
"666.98 737 LINE",
"173.98 737 LINE"
);
},
{
closed = 1;
nodes = (
"354.92 290 LINE",
"398.97 568 LINE",
"440.97 568 LINE",
"485.01 290 LINE"
);
}
);
width = 840;
}
);
leftKerningGroup = A;
note = uni1EB2;
rightKerningGroup = A;
unicode = 1EB2;
},
{
glyphname = uni1EB4;
layers = (
{
hints = (
{
horizontal = 1;
place = "{109, 181}";
type = Stem;
},
{
horizontal = 1;
place = "{568, 169}";
type = Stem;
},
{
horizontal = 1;
place = "{789, 163}";
type = Stem;
},
{
horizontal = 1;
place = "{983, 161}";
type = Stem;
},
{
place = "{169, 147}";
type = Stem;
},
{
place = "{528, 147}";
type = Stem;
},
{
horizontal = 1;
place = "{1055, 89}";
type = Stem;
},
{
horizontal = 1;
place = "{983, 113}";
type = Stem;
},
{
horizontal = 1;
place = "{989, 162}";
type = Stem;
},
{
horizontal = 1;
place = "{1037, 114}";
type = Stem;
},
{
horizontal = 1;
place = "{877, 75}";
type = Stem;
},
{
place = "{472, 191}";
type = Stem;
},
{
horizontal = 1;
place = "{789, 111}";
type = Stem;
},
{
place = "{179, 191}";
type = Stem;
}
);
layerId = "E328F9F0-3A13-48BC-903B-CF0D861777C2";
paths = (
{
closed = 1;
nodes = (
"399 983 LINE",
"591 983 LINE",
"675 1055 LINE",
"675 1144 LINE",
"528 1144 LINE",
"528 1111 LINE",
"512 1096 LINE",
"494 1096 LINE",
"445 1151 LINE",
"252 1151 LINE",
"169 1077 LINE",
"169 989 LINE",
"316 989 LINE",
"316 1021 LINE",
"332 1037 LINE",
"349 1037 LINE"
);
},
{
closed = 1;
nodes = (
"282 789 LINE",
"560 789 LINE",
"663 877 LINE",
"663 952 LINE",
"472 952 LINE",
"472 900 LINE",
"370 900 LINE",
"370 952 LINE",
"179 952 LINE",
"179 877 LINE"
);
},
{
closed = 1;
nodes = (
"11 0 LINE",
"309 0 LINE",
"326.26 109 LINE",
"513.71 109 LINE",
"530.98 0 LINE",
"828.98 0 LINE",
"666.98 737 LINE",
"173.98 737 LINE"
);
},
{
closed = 1;
nodes = (
"354.92 290 LINE",
"398.97 568 LINE",
"440.97 568 LINE",
"485.01 290 LINE"
);
}
);
width = 840;
}
);
leftKerningGroup = A;
note = uni1EB4;
rightKerningGroup = A;
unicode = 1EB4;
},
{
glyphname = Acircumflex;
layers = (
{
hints = (
{
horizontal = 1;
place = "{109, 181}";
type = Stem;
},
{
horizontal = 1;
place = "{568, 169}";
type = Stem;
},
{
horizontal = 1;
place = "{789, 163}";
type = Stem;
},
{
place = "{11, 818}";
type = Stem;
},
{
horizontal = 1;
place = "{865, 87}";
type = Stem;
}
);
layerId = "E328F9F0-3A13-48BC-903B-CF0D861777C2";
paths = (
{
closed = 1;
nodes = (
"158 789 LINE",
"345 789 LINE",
"421 865 LINE",
"497 789 LINE",
"684 789 LINE",
"561 952 LINE",
"281 952 LINE"
);
},
{
closed = 1;
nodes = (
"11 0 LINE",
"309 0 LINE",
"326.26 109 LINE",
"513.71 109 LINE",
"530.98 0 LINE",
"828.98 0 LINE",
"666.98 737 LINE",
"173.98 737 LINE"
);
},
{
closed = 1;
nodes = (
"354.92 290 LINE",
"398.97 568 LINE",
"440.97 568 LINE",
"485.01 290 LINE"
);
}
);
width = 840;
}
);
leftKerningGroup = A;
note = Acircumflex;
rightKerningGroup = A;
unicode = 00C2;
},
{
glyphname = uni1EA4;
layers = (
{
hints = (
{
horizontal = 1;
place = "{109, 181}";
type = Stem;
},
{
horizontal = 1;
place = "{568, 169}";
type = Stem;
},
{
horizontal = 1;
place = "{876.53, 163}";
type = Stem;
},
{
place = "{11, 989}";
type = Stem;
},
{
horizontal = 1;
place = "{789, 163}";
type = Stem;
},
{
horizontal = 1;
place = "{865, 87}";
type = Stem;
}
);
layerId = "E328F9F0-3A13-48BC-903B-CF0D861777C2";
paths = (
{
closed = 1;
nodes = (
"666 876.52 LINE",
"838 876.52 LINE",
"1000 1039.52 LINE",
"775 1039.52 LINE"
);
},
{
closed = 1;
nodes = (
"158 789 LINE",
"345 789 LINE",
"421 865 LINE",
"497 789 LINE",
"684 789 LINE",
"561 952 LINE",
"281 952 LINE"
);
},
{
closed = 1;
nodes = (
"11 0 LINE",
"309 0 LINE",
"326.26 109 LINE",
"513.71 109 LINE",
"530.98 0 LINE",
"828.98 0 LINE",
"666.98 737 LINE",
"173.98 737 LINE"
);
},
{
closed = 1;
nodes = (
"354.92 290 LINE",
"398.97 568 LINE",
"440.97 568 LINE",
"485.01 290 LINE"
);
}
);
width = 839;
}
);
leftKerningGroup = A;
note = uni1EA4;
rightKerningGroup = A;
unicode = 1EA4;
},
{
glyphname = uni1EAC;
layers = (
{
hints = (
{
horizontal = 1;
place = "{-209, 158}";
type = Stem;
},
{
horizontal = 1;
place = "{109, 181}";
type = Stem;
},
{
horizontal = 1;
place = "{568, 169}";
type = Stem;
},
{
horizontal = 1;
place = "{789, 163}";
type = Stem;
},
{
place = "{288.5, 263}";
type = Stem;
},
{
horizontal = 1;
place = "{865, 87}";
type = Stem;
}
);
layerId = "E328F9F0-3A13-48BC-903B-CF0D861777C2";
paths = (
{
closed = 1;
nodes = (
"158 789 LINE",
"345 789 LINE",
"421 865 LINE",
"497 789 LINE",
"684 789 LINE",
"561 952 LINE",
"281 952 LINE"
);
},
{
closed = 1;
nodes = (
"11 0 LINE",
"309 0 LINE",
"326.26 109 LINE",
"513.71 109 LINE",
"530.98 0 LINE",
"828.98 0 LINE",
"666.98 737 LINE",
"173.98 737 LINE"
);
},
{
closed = 1;
nodes = (
"354.92 290 LINE",
"398.97 568 LINE",
"440.97 568 LINE",
"485.01 290 LINE"
);
},
{
closed = 1;
nodes = (
"288.47 -209 LINE",
"551.47 -209 LINE",
"551.47 -51 LINE",
"288.47 -51 LINE"
);
}
);
width = 840;
}
);
leftKerningGroup = A;
note = uni1EAC;
rightKerningGroup = A;
unicode = 1EAC;
},
{
glyphname = uni1EA6;
layers = (
{
hints = (
{
horizontal = 1;
place = "{109, 181}";
type = Stem;
},
{
horizontal = 1;
place = "{568, 169}";
type = Stem;
},
{
horizontal = 1;
place = "{876.53, 163}";
type = Stem;
},
{
place = "{-158, 987}";
type = Stem;
},
{
horizontal = 1;
place = "{789, 163}";
type = Stem;
},
{
horizontal = 1;
place = "{865, 87}";
type = Stem;
}
);
layerId = "E328F9F0-3A13-48BC-903B-CF0D861777C2";
paths = (
{
closed = 1;
nodes = (
"4 876.52 LINE",
"176 876.52 LINE",
"67 1039.52 LINE",
"-158 1039.52 LINE"
);
},
{
closed = 1;
nodes = (
"158 789 LINE",
"345 789 LINE",
"421 865 LINE",
"497 789 LINE",
"684 789 LINE",
"561 952 LINE",
"281 952 LINE"
);
},
{
closed = 1;
nodes = (
"11 0 LINE",
"309 0 LINE",
"326.26 109 LINE",
"513.71 109 LINE",
"530.98 0 LINE",
"828.98 0 LINE",
"666.98 737 LINE",
"173.98 737 LINE"
);
},
{
closed = 1;
nodes = (
"354.92 290 LINE",
"398.97 568 LINE",
"440.97 568 LINE",
"485.01 290 LINE"
);
}
);
width = 840;
}
);
leftKerningGroup = A;
note = uni1EA6;
rightKerningGroup = A;
unicode = 1EA6;
},
{
glyphname = uni1EA8;
layers = (
{
hints = (
{
horizontal = 1;
place = "{109, 181}";
type = Stem;
},
{
horizontal = 1;
place = "{568, 169}";
type = Stem;
},
{
horizontal = 1;
place = "{876.65, 106}";
type = Stem;
},
{
horizontal = 1;
place = "{1007.65, 107}";
type = Stem;
},
{
place = "{666, 158}";
type = Stem;
},
{
horizontal = 1;
place = "{915.65, 67}";
type = Stem;
},
{
place = "{587, 145}";
type = Stem;
},
{
place = "{764, 150}";
type = Stem;
},
{
horizontal = 1;
place = "{789, 163}";
type = Stem;
},
{
horizontal = 1;
place = "{1048.65, 66}";
type = Stem;
},
{
horizontal = 1;
place = "{865, 87}";
type = Stem;
}
);
layerId = "E328F9F0-3A13-48BC-903B-CF0D861777C2";
paths = (
{
closed = 1;
nodes = (
"666 876.64 LINE",
"824 876.64 LINE",
"824 915.64 LINE",
"866 915.64 LINE",
"914 953.64 LINE",
"914 1072.64 LINE",
"865 1114.64 LINE",
"642 1114.64 LINE",
"587 1072.64 LINE",
"587 1007.64 LINE",
"732 1007.64 LINE",
"732 1048.64 LINE",
"764 1048.64 LINE",
"764 982.64 LINE",
"705 982.64 LINE",
"666 953.64 LINE"
);
},
{
closed = 1;
nodes = (
"158 789 LINE",
"345 789 LINE",
"421 865 LINE",
"497 789 LINE",
"684 789 LINE",
"561 952 LINE",
"281 952 LINE"
);
},
{
closed = 1;
nodes = (
"11 0 LINE",
"309 0 LINE",
"326.26 109 LINE",
"513.71 109 LINE",
"530.98 0 LINE",
"828.98 0 LINE",
"666.98 737 LINE",
"173.98 737 LINE"
);
},
{
closed = 1;
nodes = (
"354.92 290 LINE",
"398.97 568 LINE",
"440.97 568 LINE",
"485.01 290 LINE"
);
}
);
width = 840;
}
);
leftKerningGroup = A;
note = uni1EA8;
rightKerningGroup = A;
unicode = 1EA8;
},
{
glyphname = uni1EAA;
layers = (
{
hints = (
{
horizontal = 1;
place = "{109, 181}";
type = Stem;
},
{
horizontal = 1;
place = "{568, 169}";
type = Stem;
},
{
horizontal = 1;
place = "{789, 163}";
type = Stem;
},
{
horizontal = 1;
place = "{983, 161}";
type = Stem;
},
{
place = "{173, 147}";
type = Stem;
},
{
place = "{532, 147}";
type = Stem;
},
{
horizontal = 1;
place = "{1055, 89}";
type = Stem;
},
{
horizontal = 1;
place = "{983, 113}";
type = Stem;
},
{
horizontal = 1;
place = "{989, 162}";
type = Stem;
},
{
horizontal = 1;
place = "{1037, 114}";
type = Stem;
},
{
horizontal = 1;
place = "{865, 87}";
type = Stem;
}
);
layerId = "E328F9F0-3A13-48BC-903B-CF0D861777C2";
paths = (
{
closed = 1;
nodes = (
"403 983 LINE",
"595 983 LINE",
"679 1055 LINE",
"679 1144 LINE",
"532 1144 LINE",
"532 1111 LINE",
"516 1096 LINE",
"498 1096 LINE",
"449 1151 LINE",
"256 1151 LINE",
"173 1077 LINE",
"173 989 LINE",
"320 989 LINE",
"320 1021 LINE",
"336 1037 LINE",
"353 1037 LINE"
);
},
{
closed = 1;
nodes = (
"158 789 LINE",
"345 789 LINE",
"421 865 LINE",
"497 789 LINE",
"684 789 LINE",
"561 952 LINE",
"281 952 LINE"
);
},
{
closed = 1;
nodes = (
"11 0 LINE",
"309 0 LINE",
"326.26 109 LINE",
"513.71 109 LINE",
"530.98 0 LINE",
"828.98 0 LINE",
"666.98 737 LINE",
"173.98 737 LINE"
);
},
{
closed = 1;
nodes = (
"354.92 290 LINE",
"398.97 568 LINE",
"440.97 568 LINE",
"485.01 290 LINE"
);
}
);
width = 840;
}
);
leftKerningGroup = A;
note = uni1EAA;
rightKerningGroup = A;
unicode = 1EAA;
},
{
glyphname = uni0200;
layers = (
{
hints = (
{
horizontal = 1;
place = "{109, 181}";
type = Stem;
},
{
horizontal = 1;
place = "{568, 169}";
type = Stem;
},
{
horizontal = 1;
place = "{789, 163}";
type = Stem;
},
{
place = "{11, 818}";
type = Stem;
}
);
layerId = "E328F9F0-3A13-48BC-903B-CF0D861777C2";
paths = (
{
closed = 1;
nodes = (
"195 789 LINE",
"355 789 LINE",
"247 952 LINE",
"32 952 LINE"
);
},
{
closed = 1;
nodes = (
"471 789 LINE",
"632 789 LINE",
"523 952 LINE",
"308 952 LINE"
);
},
{
closed = 1;
nodes = (
"11 0 LINE",
"309 0 LINE",
"326.26 109 LINE",
"513.71 109 LINE",
"530.98 0 LINE",
"828.98 0 LINE",
"666.98 737 LINE",
"173.98 737 LINE"
);
},
{
closed = 1;
nodes = (
"354.92 290 LINE",
"398.97 568 LINE",
"440.97 568 LINE",
"485.01 290 LINE"
);
}
);
width = 840;
}
);
leftKerningGroup = A;
note = uni0200;
rightKerningGroup = A;
unicode = 0200;
},
{
glyphname = Adieresis;
layers = (
{
hints = (
{
horizontal = 1;
place = "{109, 181}";
type = Stem;
},
{
horizontal = 1;
place = "{568, 169}";
type = Stem;
},
{
horizontal = 1;
place = "{789, 158}";
type = Stem;
},
{
place = "{148, 239}";
type = Stem;
},
{
place = "{455, 239}";
type = Stem;
}
);
layerId = "E328F9F0-3A13-48BC-903B-CF0D861777C2";
paths = (
{
closed = 1;
nodes = (
"148 789 LINE",
"387 789 LINE",
"387 947 LINE",
"148 947 LINE"
);
},
{
closed = 1;
nodes = (
"455 789 LINE",
"694 789 LINE",
"694 947 LINE",
"455 947 LINE"
);
},
{
closed = 1;
nodes = (
"11 0 LINE",
"309 0 LINE",
"326.26 109 LINE",
"513.71 109 LINE",
"530.98 0 LINE",
"828.98 0 LINE",
"666.98 737 LINE",
"173.98 737 LINE"
);
},
{
closed = 1;
nodes = (
"354.92 290 LINE",
"398.97 568 LINE",
"440.97 568 LINE",
"485.01 290 LINE"
);
}
);
width = 840;
}
);
leftKerningGroup = A;
note = Adieresis;
rightKerningGroup = A;
unicode = 00C4;
},
{
glyphname = uni1EA0;
layers = (
{
hints = (
{
horizontal = 1;
place = "{-209, 158}";
type = Stem;
},
{
horizontal = 1;
place = "{109, 181}";
type = Stem;
},
{
horizontal = 1;
place = "{568, 169}";
type = Stem;
},
{
place = "{288.5, 263}";
type = Stem;
}
);
layerId = "E328F9F0-3A13-48BC-903B-CF0D861777C2";
paths = (
{
closed = 1;
nodes = (
"11 0 LINE",
"309 0 LINE",
"326.26 109 LINE",
"513.71 109 LINE",
"530.98 0 LINE",
"828.98 0 LINE",
"666.98 737 LINE",
"173.98 737 LINE"
);
},
{
closed = 1;
nodes = (
"354.92 290 LINE",
"398.97 568 LINE",
"440.97 568 LINE",
"485.01 290 LINE"
);
},
{
closed = 1;
nodes = (
"288.47 -209 LINE",
"551.47 -209 LINE",
"551.47 -51 LINE",
"288.47 -51 LINE"
);
}
);
width = 840;
}
);
leftKerningGroup = A;
note = uni1EA0;
rightKerningGroup = A;
unicode = 1EA0;
},
{
glyphname = Agrave;
layers = (
{
hints = (
{
horizontal = 1;
place = "{109, 181}";
type = Stem;
},
{
horizontal = 1;
place = "{568, 169}";
type = Stem;
},
{
horizontal = 1;
place = "{789, 163}";
type = Stem;
},
{
place = "{11, 818}";
type = Stem;
}
);
layerId = "E328F9F0-3A13-48BC-903B-CF0D861777C2";
paths = (
{
closed = 1;
nodes = (
"338 789 LINE",
"510 789 LINE",
"401 952 LINE",
"176 952 LINE"
);
},
{
closed = 1;
nodes = (
"11 0 LINE",
"309 0 LINE",
"326.26 109 LINE",
"513.71 109 LINE",
"530.98 0 LINE",
"828.98 0 LINE",
"666.98 737 LINE",
"173.98 737 LINE"
);
},
{
closed = 1;
nodes = (
"354.92 290 LINE",
"398.97 568 LINE",
"440.97 568 LINE",
"485.01 290 LINE"
);
}
);
width = 840;
}
);
leftKerningGroup = A;
note = Agrave;
rightKerningGroup = A;
unicode = 00C0;
},
{
glyphname = uni1EA2;
layers = (
{
hints = (
{
horizontal = 1;
place = "{109, 181}";
type = Stem;
},
{
horizontal = 1;
place = "{568, 169}";
type = Stem;
},
{
horizontal = 1;
place = "{789, 106}";
type = Stem;
},
{
horizontal = 1;
place = "{920, 107}";
type = Stem;
},
{
place = "{342, 158}";
type = Stem;
},
{
horizontal = 1;
place = "{828, 67}";
type = Stem;
},
{
place = "{263, 145}";
type = Stem;
},
{
place = "{440, 150}";
type = Stem;
},
{
horizontal = 1;
place = "{961, 66}";
type = Stem;
}
);
layerId = "E328F9F0-3A13-48BC-903B-CF0D861777C2";
paths = (
{
closed = 1;
nodes = (
"342 789 LINE",
"500 789 LINE",
"500 828 LINE",
"542 828 LINE",
"590 866 LINE",
"590 985 LINE",
"541 1027 LINE",
"318 1027 LINE",
"263 985 LINE",
"263 920 LINE",
"408 920 LINE",
"408 961 LINE",
"440 961 LINE",
"440 895 LINE",
"381 895 LINE",
"342 866 LINE"
);
},
{
closed = 1;
nodes = (
"11 0 LINE",
"309 0 LINE",
"326.26 109 LINE",
"513.71 109 LINE",
"530.98 0 LINE",
"828.98 0 LINE",
"666.98 737 LINE",
"173.98 737 LINE"
);
},
{
closed = 1;
nodes = (
"354.92 290 LINE",
"398.97 568 LINE",
"440.97 568 LINE",
"485.01 290 LINE"
);
}
);
width = 840;
}
);
leftKerningGroup = A;
note = uni1EA2;
rightKerningGroup = A;
unicode = 1EA2;
},
{
glyphname = uni0202;
layers = (
{
hints = (
{
horizontal = 1;
place = "{109, 181}";
type = Stem;
},
{
horizontal = 1;
place = "{568, 169}";
type = Stem;
},
{
horizontal = 1;
place = "{789, 163}";
type = Stem;
},
{
place = "{179, 191}";
type = Stem;
},
{
place = "{472, 191}";
type = Stem;
},
{
horizontal = 1;
place = "{841, 111}";
type = Stem;
}
);
layerId = "E328F9F0-3A13-48BC-903B-CF0D861777C2";
paths = (
{
closed = 1;
nodes = (
"179 789 LINE",
"370 789 LINE",
"370 841 LINE",
"472 841 LINE",
"472 789 LINE",
"663 789 LINE",
"663 864 LINE",
"560 952 LINE",
"282 952 LINE",
"179 864 LINE"
);
},
{
closed = 1;
nodes = (
"11 0 LINE",
"309 0 LINE",
"326.26 109 LINE",
"513.71 109 LINE",
"530.98 0 LINE",
"828.98 0 LINE",
"666.98 737 LINE",
"173.98 737 LINE"
);
},
{
closed = 1;
nodes = (
"354.92 290 LINE",
"398.97 568 LINE",
"440.97 568 LINE",
"485.01 290 LINE"
);
}
);
width = 840;
}
);
leftKerningGroup = A;
note = uni0202;
rightKerningGroup = A;
unicode = 0202;
},
{
glyphname = Amacron;
layers = (
{
hints = (
{
horizontal = 1;
place = "{109, 181}";
type = Stem;
},
{
horizontal = 1;
place = "{568, 169}";
type = Stem;
},
{
horizontal = 1;
place = "{789, 149}";
type = Stem;
},
{
place = "{148, 546}";
type = Stem;
}
);
layerId = "E328F9F0-3A13-48BC-903B-CF0D861777C2";
paths = (
{
closed = 1;
nodes = (
"148 789 LINE",
"694 789 LINE",
"694 938 LINE",
"148 938 LINE"
);
},
{
closed = 1;
nodes = (
"11 0 LINE",
"309 0 LINE",
"326.26 109 LINE",
"513.71 109 LINE",
"530.98 0 LINE",
"828.98 0 LINE",
"666.98 737 LINE",
"173.98 737 LINE"
);
},
{
closed = 1;
nodes = (
"354.92 290 LINE",
"398.97 568 LINE",
"440.97 568 LINE",
"485.01 290 LINE"
);
}
);
width = 840;
}
);
leftKerningGroup = A;
note = Amacron;
rightKerningGroup = A;
unicode = 0100;
},
{
glyphname = Aogonek;
layers = (
{
hints = (
{
horizontal = 1;
place = "{-191, 127}";
type = Stem;
},
{
horizontal = 1;
place = "{109, 181}";
type = Stem;
},
{
horizontal = 1;
place = "{568, 169}";
type = Stem;
},
{
place = "{486, 174}";
type = Stem;
},
{
place = "{486, 135}";
type = Stem;
}
);
layerId = "E328F9F0-3A13-48BC-903B-CF0D861777C2";
paths = (
{
closed = 1;
nodes = (
"569 -191 LINE",
"660 -191 LINE",
"660 -64 LINE",
"637 -64 LINE",
"621 -50 LINE",
"621 -26 LINE",
"651 0 LINE",
"829 0 LINE",
"667 737 LINE",
"174 737 LINE",
"11 0 LINE",
"309 0 LINE",
"326.26 109 LINE",
"513.71 109 LINE",
"530.98 0 LINE",
"485.98 -33 LINE",
"485.98 -122 LINE"
);
},
{
closed = 1;
nodes = (
"354.93 290 LINE",
"398.98 568 LINE",
"440.98 568 LINE",
"485.02 290 LINE"
);
}
);
width = 840;
}
);
leftKerningGroup = A;
note = Aogonek;
rightKerningGroup = A;
unicode = 0104;
},
{
glyphname = Aring;
layers = (
{
hints = (
{
horizontal = 1;
place = "{109, 181}";
type = Stem;
},
{
horizontal = 1;
place = "{568, 169}";
type = Stem;
},
{
horizontal = 1;
place = "{789, 97}";
type = Stem;
},
{
horizontal = 1;
place = "{932, 97}";
type = Stem;
},
{
place = "{282.5, 115.5}";
type = Stem;
},
{
place = "{444, 115.5}";
type = Stem;
}
);
layerId = "E328F9F0-3A13-48BC-903B-CF0D861777C2";
paths = (
{
closed = 1;
nodes = (
"358.5 789 LINE",
"483.5 789 LINE",
"559.5 865 LINE",
"559.5 953 LINE",
"483.5 1029 LINE",
"358.5 1029 LINE",
"282.5 953 LINE",
"282.5 865 LINE"
);
},
{
closed = 1;
nodes = (
"412 886 LINE",
"398 900 LINE",
"398 917 LINE",
"412 932 LINE",
"429 932 LINE",
"444 917 LINE",
"444 900 LINE",
"429 886 LINE"
);
},
{
closed = 1;
nodes = (
"11 0 LINE",
"309 0 LINE",
"326.26 109 LINE",
"513.71 109 LINE",
"530.98 0 LINE",
"828.98 0 LINE",
"666.98 737 LINE",
"173.98 737 LINE"
);
},
{
closed = 1;
nodes = (
"354.92 290 LINE",
"398.97 568 LINE",
"440.97 568 LINE",
"485.01 290 LINE"
);
}
);
width = 840;
}
);
leftKerningGroup = A;
note = Aring;
rightKerningGroup = A;
unicode = 00C5;
},
{
glyphname = Aringacute;
layers = (
{
hints = (
{
horizontal = 1;
place = "{109, 181}";
type = Stem;
},
{
horizontal = 1;
place = "{568, 169}";
type = Stem;
},
{
horizontal = 1;
place = "{789, 97}";
type = Stem;
},
{
horizontal = 1;
place = "{932, 97}";
type = Stem;
},
{
horizontal = 1;
place = "{1061.06, 163}";
type = Stem;
},
{
place = "{282.5, 115.5}";
type = Stem;
},
{
place = "{444, 115.5}";
type = Stem;
}
);
layerId = "E328F9F0-3A13-48BC-903B-CF0D861777C2";
paths = (
{
closed = 1;
nodes = (
"341.82 1061.05 LINE",
"513.82 1061.05 LINE",
"675.82 1224.05 LINE",
"450.82 1224.05 LINE"
);
},
{
closed = 1;
nodes = (
"358.5 789 LINE",
"483.5 789 LINE",
"559.5 865 LINE",
"559.5 953 LINE",
"483.5 1029 LINE",
"358.5 1029 LINE",
"282.5 953 LINE",
"282.5 865 LINE"
);
},
{
closed = 1;
nodes = (
"412 886 LINE",
"398 900 LINE",
"398 917 LINE",
"412 932 LINE",
"429 932 LINE",
"444 917 LINE",
"444 900 LINE",
"429 886 LINE"
);
},
{
closed = 1;
nodes = (
"11 0 LINE",
"309 0 LINE",
"326.26 109 LINE",
"513.71 109 LINE",
"530.98 0 LINE",
"828.98 0 LINE",
"666.98 737 LINE",
"173.98 737 LINE"
);
},
{
closed = 1;
nodes = (
"354.92 290 LINE",
"398.97 568 LINE",
"440.97 568 LINE",
"485.01 290 LINE"
);
}
);
width = 840;
}
);
leftKerningGroup = A;
note = Aringacute;
rightKerningGroup = A;
unicode = 01FA;
},
{
glyphname = Atilde;
layers = (
{
hints = (
{
horizontal = 1;
place = "{109, 181}";
type = Stem;
},
{
horizontal = 1;
place = "{568, 169}";
type = Stem;
},
{
horizontal = 1;
place = "{789, 161}";
type = Stem;
},
{
place = "{169, 147}";
type = Stem;
},
{
place = "{528, 147}";
type = Stem;
},
{
horizontal = 1;
place = "{861, 89}";
type = Stem;
},
{
horizontal = 1;
place = "{789, 113}";
type = Stem;
},
{
horizontal = 1;
place = "{795, 162}";
type = Stem;
},
{
horizontal = 1;
place = "{843, 114}";
type = Stem;
}
);
layerId = "E328F9F0-3A13-48BC-903B-CF0D861777C2";
paths = (
{
closed = 1;
nodes = (
"399 789 LINE",
"591 789 LINE",
"675 861 LINE",
"675 950 LINE",
"528 950 LINE",
"528 917 LINE",
"512 902 LINE",
"494 902 LINE",
"445 957 LINE",
"252 957 LINE",
"169 883 LINE",
"169 795 LINE",
"316 795 LINE",
"316 827 LINE",
"332 843 LINE",
"349 843 LINE"
);
},
{
closed = 1;
nodes = (
"11 0 LINE",
"309 0 LINE",
"326.26 109 LINE",
"513.71 109 LINE",
"530.98 0 LINE",
"828.98 0 LINE",
"666.98 737 LINE",
"173.98 737 LINE"
);
},
{
closed = 1;
nodes = (
"354.92 290 LINE",
"398.97 568 LINE",
"440.97 568 LINE",
"485.01 290 LINE"
);
}
);
width = 840;
}
);
leftKerningGroup = A;
note = Atilde;
rightKerningGroup = A;
unicode = 00C3;
},
{
glyphname = AE;
layers = (
{
hints = (
{
horizontal = 1;
place = "{0, 197}";
type = Stem;
},
{
horizontal = 1;
place = "{289, 159}";
type = Stem;
},
{
horizontal = 1;
place = "{540, 197}";
type = Stem;
},
{
place = "{11, 1117}";
type = Stem;
},
{
horizontal = 1;
place = "{109, 181}";
type = Stem;
},
{
horizontal = 1;
place = "{568, 169}";
type = Stem;
}
);
layerId = "E328F9F0-3A13-48BC-903B-CF0D861777C2";
paths = (
{
closed = 1;
nodes = (
"11 0 LINE",
"309 0 LINE",
"326.26 109 LINE",
"513.71 109 LINE",
"530.98 0 LINE",
"1127.98 0 LINE",
"1127.98 197 LINE",
"785.68 197 LINE",
"765.46 289 LINE",
"1084.98 289 LINE",
"1084.98 448 LINE",
"730.51 448 LINE",
"710.28 540 LINE",
"1127.98 540 LINE",
"1127.98 737 LINE",
"173.98 737 LINE"
);
},
{
closed = 1;
nodes = (
"354.92 290 LINE",
"398.97 568 LINE",
"440.97 568 LINE",
"485.01 290 LINE"
);
}
);
width = 1172;
}
);
leftKerningGroup = A;
note = AE;
rightKerningGroup = AE;
unicode = 00C6;
},
{
glyphname = AEacute;
layers = (
{
hints = (
{
horizontal = 1;
place = "{0, 197}";
type = Stem;
},
{
horizontal = 1;
place = "{289, 159}";
type = Stem;
},
{
horizontal = 1;
place = "{540, 197}";
type = Stem;
},
{
horizontal = 1;
place = "{789, 163}";
type = Stem;
},
{
place = "{11, 1117}";
type = Stem;
},
{
horizontal = 1;
place = "{109, 181}";
type = Stem;
},
{
horizontal = 1;
place = "{568, 169}";
type = Stem;
}
);
layerId = "E328F9F0-3A13-48BC-903B-CF0D861777C2";
paths = (
{
closed = 1;
nodes = (
"363 789 LINE",
"535 789 LINE",
"697 952 LINE",
"472 952 LINE"
);
},
{
closed = 1;
nodes = (
"11 0 LINE",
"309 0 LINE",
"326.26 109 LINE",
"513.71 109 LINE",
"530.98 0 LINE",
"1127.98 0 LINE",
"1127.98 197 LINE",
"785.68 197 LINE",
"765.46 289 LINE",
"1084.98 289 LINE",
"1084.98 448 LINE",
"730.51 448 LINE",
"710.28 540 LINE",
"1127.98 540 LINE",
"1127.98 737 LINE",
"173.98 737 LINE"
);
},
{
closed = 1;
nodes = (
"354.92 290 LINE",
"398.97 568 LINE",
"440.97 568 LINE",
"485.01 290 LINE"
);
}
);
width = 1172;
}
);
leftKerningGroup = A;
note = AEacute;
rightKerningGroup = AE;
unicode = 01FC;
},
{
glyphname = B;
layers = (
{
hints = (
{
horizontal = 1;
place = "{0, 153}";
type = Stem;
},
{
horizontal = 1;
place = "{309, 153}";
type = Stem;
},
{
horizontal = 1;
place = "{584, 153}";
type = Stem;
},
{
place = "{50, 284.9}";
type = Stem;
},
{
place = "{485.5, 285}";
type = Stem;
},
{
place = "{478.5, 269}";
type = Stem;
}
);
layerId = "E328F9F0-3A13-48BC-903B-CF0D861777C2";
paths = (
{
closed = 1;
nodes = (
"50 0 LINE",
"659.5 0 LINE",
"770.5 95 LINE",
"770.5 331 LINE",
"691.5 397 LINE",
"747.5 444 LINE",
"747.5 642 LINE",
"636.5 737 LINE",
"50 737 LINE"
);
},
{
closed = 1;
nodes = (
"334.89 462 LINE",
"334.89 584 LINE",
"478.49 584 LINE",
"478.49 462 LINE"
);
},
{
closed = 1;
nodes = (
"334.89 153 LINE",
"334.89 309 LINE",
"485.49 309 LINE",
"485.49 153 LINE"
);
}
);
width = 810;
}
);
leftKerningGroup = B;
note = B;
rightKerningGroup = B;
unicode = 0042;
},
{
glyphname = C;
layers = (
{
hints = (
{
horizontal = 1;
place = "{0, 153}";
type = Stem;
},
{
horizontal = 1;
place = "{584, 153}";
type = Stem;
},
{
place = "{39, 285}";
type = Stem;
},
{
place = "{457, 293}";
type = Stem;
},
{
place = "{455, 292}";
type = Stem;
}
);
layerId = "E328F9F0-3A13-48BC-903B-CF0D861777C2";
paths = (
{
closed = 1;
nodes = (
"150 0 LINE",
"639 0 LINE",
"750 95 LINE",
"750 312 LINE",
"457 312 LINE",
"457 153 LINE",
"324 153 LINE",
"324 584 LINE",
"455 584 LINE",
"455 428 LINE",
"747 428 LINE",
"747 642 LINE",
"636 737 LINE",
"150 737 LINE",
"39 642 LINE",
"39 95 LINE"
);
}
);
width = 789;
}
);
note = C;
rightKerningGroup = C;
unicode = 0043;
},
{
glyphname = Cacute;
layers = (
{
hints = (
{
horizontal = 1;
place = "{0, 153}";
type = Stem;
},
{
horizontal = 1;
place = "{584, 153}";
type = Stem;
},
{
horizontal = 1;
place = "{789, 163}";
type = Stem;
},
{
place = "{39, 285}";
type = Stem;
},
{
place = "{457, 293}";
type = Stem;
},
{
place = "{455, 292}";
type = Stem;
}
);
layerId = "E328F9F0-3A13-48BC-903B-CF0D861777C2";
paths = (
{
closed = 1;
nodes = (
"306 789 LINE",
"478 789 LINE",
"640 952 LINE",
"415 952 LINE"
);
},
{
closed = 1;
nodes = (
"150 0 LINE",
"639 0 LINE",
"750 95 LINE",
"750 312 LINE",
"457 312 LINE",
"457 153 LINE",
"324 153 LINE",
"324 584 LINE",
"455 584 LINE",
"455 428 LINE",
"747 428 LINE",
"747 642 LINE",
"636 737 LINE",
"150 737 LINE",
"39 642 LINE",
"39 95 LINE"
);
}
);
width = 789;
}
);
note = Cacute;
rightKerningGroup = C;
unicode = 0106;
},
{
glyphname = Ccaron;
layers = (
{
hints = (
{
horizontal = 1;
place = "{0, 153}";
type = Stem;
},
{
horizontal = 1;
place = "{584, 153}";
type = Stem;
},
{
horizontal = 1;
place = "{789, 163}";
type = Stem;
},
{
place = "{39, 285}";
type = Stem;
},
{
place = "{457, 293}";
type = Stem;
},
{
place = "{455, 292}";
type = Stem;
}
);
layerId = "E328F9F0-3A13-48BC-903B-CF0D861777C2";
paths = (
{
closed = 1;
nodes = (
"254 789 LINE",
"534 789 LINE",
"657 952 LINE",
"470 952 LINE",
"394 876 LINE",
"318 952 LINE",
"131 952 LINE"
);
},
{
closed = 1;
nodes = (
"150 0 LINE",
"639 0 LINE",
"750 95 LINE",
"750 312 LINE",
"457 312 LINE",
"457 153 LINE",
"324 153 LINE",
"324 584 LINE",
"455 584 LINE",
"455 428 LINE",
"747 428 LINE",
"747 642 LINE",
"636 737 LINE",
"150 737 LINE",
"39 642 LINE",
"39 95 LINE"
);
}
);
width = 789;
}
);
note = Ccaron;
rightKerningGroup = C;
unicode = 010C;
},
{
glyphname = Ccedilla;
layers = (
{
hints = (
{
horizontal = 1;
place = "{0, 153}";
type = Stem;
},
{
horizontal = 1;
place = "{584, 153}";
type = Stem;
},
{
place = "{39, 285}";
type = Stem;
},
{
place = "{457, 293}";
type = Stem;
},
{
place = "{455, 292}";
type = Stem;
}
);
layerId = "E328F9F0-3A13-48BC-903B-CF0D861777C2";
paths = (
{
closed = 1;
nodes = (
"268 -125 LINE",
"432 -125 LINE",
"495 0 LINE",
"639 0 LINE",
"750 95 LINE",
"750 312 LINE",
"457 312 LINE",
"457 153 LINE",
"324 153 LINE",
"324 584 LINE",
"455 584 LINE",
"455 428 LINE",
"747 428 LINE",
"747 642 LINE",
"636 737 LINE",
"150 737 LINE",
"39 642 LINE",
"39 95 LINE",
"150 0 LINE",
"288 0 LINE"
);
}
);
width = 789;
}
);
note = Ccedilla;
rightKerningGroup = C;
unicode = 00C7;
},
{
glyphname = Ccircumflex;
layers = (
{
hints = (
{
horizontal = 1;
place = "{0, 153}";
type = Stem;
},
{
horizontal = 1;
place = "{584, 153}";
type = Stem;
},
{
horizontal = 1;
place = "{789, 163}";
type = Stem;
},
{
place = "{39, 285}";
type = Stem;
},
{
place = "{457, 293}";
type = Stem;
},
{
horizontal = 1;
place = "{865, 87}";
type = Stem;
},
{
place = "{455, 292}";
type = Stem;
}
);
layerId = "E328F9F0-3A13-48BC-903B-CF0D861777C2";
paths = (
{
closed = 1;
nodes = (
"131 789 LINE",
"318 789 LINE",
"394 865 LINE",
"470 789 LINE",
"657 789 LINE",
"534 952 LINE",
"254 952 LINE"
);
},
{
closed = 1;
nodes = (
"150 0 LINE",
"639 0 LINE",
"750 95 LINE",
"750 312 LINE",
"457 312 LINE",
"457 153 LINE",
"324 153 LINE",
"324 584 LINE",
"455 584 LINE",
"455 428 LINE",
"747 428 LINE",
"747 642 LINE",
"636 737 LINE",
"150 737 LINE",
"39 642 LINE",
"39 95 LINE"
);
}
);
width = 789;
}
);
note = Ccircumflex;
rightKerningGroup = C;
unicode = 0108;
},
{
glyphname = Cdotaccent;
layers = (
{
hints = (
{
horizontal = 1;
place = "{0, 153}";
type = Stem;
},
{
horizontal = 1;
place = "{584, 153}";
type = Stem;
},
{
horizontal = 1;
place = "{789, 158}";
type = Stem;
},
{
place = "{262.5, 263}";
type = Stem;
},
{
place = "{39, 285}";
type = Stem;
},
{
place = "{457, 293}";
type = Stem;
},
{
place = "{455, 292}";
type = Stem;
}
);
layerId = "E328F9F0-3A13-48BC-903B-CF0D861777C2";
paths = (
{
closed = 1;
nodes = (
"262.5 789 LINE",
"525.5 789 LINE",
"525.5 947 LINE",
"262.5 947 LINE"
);
},
{
closed = 1;
nodes = (
"150 0 LINE",
"639 0 LINE",
"750 95 LINE",
"750 312 LINE",
"457 312 LINE",
"457 153 LINE",
"324 153 LINE",
"324 584 LINE",
"455 584 LINE",
"455 428 LINE",
"747 428 LINE",
"747 642 LINE",
"636 737 LINE",
"150 737 LINE",
"39 642 LINE",
"39 95 LINE"
);
}
);
width = 789;
}
);
note = Cdotaccent;
rightKerningGroup = C;
unicode = 010A;
},
{
glyphname = D;
layers = (
{
hints = (
{
horizontal = 1;
place = "{0, 153}";
type = Stem;
},
{
horizontal = 1;
place = "{584, 153}";
type = Stem;
},
{
place = "{50, 284.9}";
type = Stem;
},
{
place = "{488.5, 285}";
type = Stem;
}
);
layerId = "E328F9F0-3A13-48BC-903B-CF0D861777C2";
paths = (
{
closed = 1;
nodes = (
"50 0 LINE",
"607.5 0 LINE",
"773.5 150 LINE",
"773.5 586 LINE",
"607.5 737 LINE",
"50 737 LINE"
);
},
{
closed = 1;
nodes = (
"334.89 153 LINE",
"334.89 584 LINE",
"488.49 584 LINE",
"488.49 153 LINE"
);
}
);
width = 813;
}
);
leftKerningGroup = B;
note = D;
rightKerningGroup = D;
unicode = 0044;
},
{
glyphname = uni01C4;
layers = (
{
hints = (
{
horizontal = 1;
place = "{0, 153}";
type = Stem;
},
{
horizontal = 1;
place = "{584, 153}";
type = Stem;
},
{
horizontal = 1;
place = "{789, 163}";
type = Stem;
},
{
place = "{50, 284.9}";
type = Stem;
},
{
place = "{488.5, 285}";
type = Stem;
},
{
horizontal = 1;
place = "{0, 197}";
type = Stem;
},
{
horizontal = 1;
place = "{540, 197}";
type = Stem;
}
);
layerId = "E328F9F0-3A13-48BC-903B-CF0D861777C2";
paths = (
{
closed = 1;
nodes = (
"1036.5 789 LINE",
"1316.5 789 LINE",
"1439.5 952 LINE",
"1252.5 952 LINE",
"1176.5 876 LINE",
"1100.5 952 LINE",
"913.5 952 LINE"
);
},
{
closed = 1;
nodes = (
"50 0 LINE",
"607.5 0 LINE",
"773.5 150 LINE",
"773.5 586 LINE",
"607.5 737 LINE",
"50 737 LINE"
);
},
{
closed = 1;
nodes = (
"839.5 0 LINE",
"1480.5 0 LINE",
"1480.5 197 LINE",
"1154.5 197 LINE",
"1480.5 529 LINE",
"1480.5 737 LINE",
"854.5 737 LINE",
"854.5 540 LINE",
"1168.5 540 LINE",
"839.5 208 LINE"
);
},
{
closed = 1;
nodes = (
"334.9 153 LINE",
"334.9 584 LINE",
"488.5 584 LINE",
"488.5 153 LINE"
);
}
);
width = 1514;
}
);
note = uni01C4;
unicode = 01C4;
},
{
glyphname = Eth;
layers = (
{
hints = (
{
horizontal = 1;
place = "{0, 153}";
type = Stem;
},
{
horizontal = 1;
place = "{305, 138}";
type = Stem;
},
{
horizontal = 1;
place = "{584, 153}";
type = Stem;
},
{
place = "{50, 284.9}";
type = Stem;
},
{
place = "{488.5, 285}";
type = Stem;
}
);
layerId = "E328F9F0-3A13-48BC-903B-CF0D861777C2";
paths = (
{
closed = 1;
nodes = (
"50 0 LINE",
"607.5 0 LINE",
"773.5 150 LINE",
"773.5 586 LINE",
"607.5 737 LINE",
"50 737 LINE",
"50 443 LINE",
"-4.5 443 LINE",
"-4.5 305 LINE",
"50 305 LINE"
);
},
{
closed = 1;
nodes = (
"334.89 153 LINE",
"334.89 305 LINE",
"414.49 305 LINE",
"414.49 443 LINE",
"334.89 443 LINE",
"334.89 584 LINE",
"488.49 584 LINE",
"488.49 153 LINE"
);
}
);
width = 811;
}
);
note = Eth;
rightKerningGroup = D;
unicode = 00D0;
},
{
glyphname = Dcaron;
layers = (
{
hints = (
{
horizontal = 1;
place = "{0, 153}";
type = Stem;
},
{
horizontal = 1;
place = "{584, 153}";
type = Stem;
},
{
horizontal = 1;
place = "{789, 163}";
type = Stem;
},
{
place = "{50, 284.9}";
type = Stem;
},
{
place = "{488.5, 285}";
type = Stem;
}
);
layerId = "E328F9F0-3A13-48BC-903B-CF0D861777C2";
paths = (
{
closed = 1;
nodes = (
"243.5 789 LINE",
"523.5 789 LINE",
"646.5 952 LINE",
"459.5 952 LINE",
"383.5 876 LINE",
"307.5 952 LINE",
"120.5 952 LINE"
);
},
{
closed = 1;
nodes = (
"50 0 LINE",
"607.5 0 LINE",
"773.5 150 LINE",
"773.5 586 LINE",
"607.5 737 LINE",
"50 737 LINE"
);
},
{
closed = 1;
nodes = (
"334.89 153 LINE",
"334.89 584 LINE",
"488.49 584 LINE",
"488.49 153 LINE"
);
}
);
width = 813;
}
);
note = Dcaron;
rightKerningGroup = D;
unicode = 010E;
},
{
glyphname = Dcroat;
layers = (
{
hints = (
{
horizontal = 1;
place = "{0, 153}";
type = Stem;
},
{
horizontal = 1;
place = "{305, 138}";
type = Stem;
},
{
horizontal = 1;
place = "{584, 153}";
type = Stem;
},
{
place = "{50, 284.9}";
type = Stem;
},
{
place = "{488.5, 285}";
type = Stem;
}
);
layerId = "E328F9F0-3A13-48BC-903B-CF0D861777C2";
paths = (
{
closed = 1;
nodes = (
"50 0 LINE",
"607.5 0 LINE",
"773.5 150 LINE",
"773.5 586 LINE",
"607.5 737 LINE",
"50 737 LINE",
"50 443 LINE",
"-4.5 443 LINE",
"-4.5 305 LINE",
"50 305 LINE"
);
},
{
closed = 1;
nodes = (
"334.89 153 LINE",
"334.89 305 LINE",
"414.49 305 LINE",
"414.49 443 LINE",
"334.89 443 LINE",
"334.89 584 LINE",
"488.49 584 LINE",
"488.49 153 LINE"
);
}
);
width = 811;
}
);
note = Dcroat;
rightKerningGroup = D;
unicode = 0110;
},
{
glyphname = uni01C5;
layers = (
{
hints = (
{
horizontal = 1;
place = "{0, 153}";
type = Stem;
},
{
horizontal = 1;
place = "{386, 137}";
type = Stem;
},
{
horizontal = 1;
place = "{584, 153}";
type = Stem;
},
{
place = "{50, 284.9}";
type = Stem;
},
{
place = "{488.5, 285}";
type = Stem;
},
{
horizontal = 1;
place = "{574, 163}";
type = Stem;
},
{
horizontal = 1;
place = "{0, 136}";
type = Stem;
},
{
place = "{869.5, 529}";
type = Stem;
}
);
layerId = "E328F9F0-3A13-48BC-903B-CF0D861777C2";
paths = (
{
closed = 1;
nodes = (
"50 0 LINE",
"607.5 0 LINE",
"773.5 150 LINE",
"773.5 586 LINE",
"607.5 737 LINE",
"50 737 LINE"
);
},
{
closed = 1;
nodes = (
"992.5 574 LINE",
"1272.5 574 LINE",
"1395.5 737 LINE",
"1208.5 737 LINE",
"1132.5 661 LINE",
"1056.5 737 LINE",
"869.5 737 LINE"
);
},
{
closed = 1;
nodes = (
"334.9 153 LINE",
"334.9 584 LINE",
"488.5 584 LINE",
"488.5 153 LINE"
);
},
{
closed = 1;
nodes = (
"845.5 0 LINE",
"1408.5 0 LINE",
"1408.5 136 LINE",
"1155.37 136 LINE",
"1398.5 376 LINE",
"1398.5 523 LINE",
"869.5 523 LINE",
"869.5 386 LINE",
"1092.05 386 LINE",
"845.5 141 LINE"
);
}
);
width = 1442;
}
);
note = uni01C5;
unicode = 01C5;
},
{
glyphname = E;
layers = (
{
hints = (
{
horizontal = 1;
place = "{0, 197}";
type = Stem;
},
{
horizontal = 1;
place = "{289, 159}";
type = Stem;
},
{
horizontal = 1;
place = "{540, 197}";
type = Stem;
},
{
place = "{50, 284.9}";
type = Stem;
}
);
layerId = "E328F9F0-3A13-48BC-903B-CF0D861777C2";
paths = (
{
closed = 1;
nodes = (
"50 0 LINE",
"692.5 0 LINE",
"692.5 197 LINE",
"334.9 197 LINE",
"334.9 289 LINE",
"650.5 289 LINE",
"650.5 448 LINE",
"334.9 448 LINE",
"334.9 540 LINE",
"692.5 540 LINE",
"692.5 737 LINE",
"50 737 LINE"
);
}
);
width = 737;
}
);
leftKerningGroup = B;
note = E;
rightKerningGroup = AE;
unicode = 0045;
},
{
glyphname = Eacute;
layers = (
{
hints = (
{
horizontal = 1;
place = "{0, 197}";
type = Stem;
},
{
horizontal = 1;
place = "{289, 159}";
type = Stem;
},
{
horizontal = 1;
place = "{540, 197}";
type = Stem;
},
{
horizontal = 1;
place = "{789, 163}";
type = Stem;
},
{
place = "{50, 284.9}";
type = Stem;
}
);
layerId = "E328F9F0-3A13-48BC-903B-CF0D861777C2";
paths = (
{
closed = 1;
nodes = (
"293.5 789 LINE",
"465.5 789 LINE",
"627.5 952 LINE",
"402.5 952 LINE"
);
},
{
closed = 1;
nodes = (
"50 0 LINE",
"692.5 0 LINE",
"692.5 197 LINE",
"334.9 197 LINE",
"334.9 289 LINE",
"650.5 289 LINE",
"650.5 448 LINE",
"334.9 448 LINE",
"334.9 540 LINE",
"692.5 540 LINE",
"692.5 737 LINE",
"50 737 LINE"
);
}
);
width = 737;
}
);
leftKerningGroup = B;
note = Eacute;
rightKerningGroup = AE;
unicode = 00C9;
},
{
glyphname = Ebreve;
layers = (
{
hints = (
{
horizontal = 1;
place = "{0, 197}";
type = Stem;
},
{
horizontal = 1;
place = "{289, 159}";
type = Stem;
},
{
horizontal = 1;
place = "{540, 197}";
type = Stem;
},
{
horizontal = 1;
place = "{789, 163}";
type = Stem;
},
{
place = "{50, 284.9}";
type = Stem;
},
{
horizontal = 1;
place = "{877, 75}";
type = Stem;
},
{
place = "{432.5, 191}";
type = Stem;
},
{
horizontal = 1;
place = "{789, 111}";
type = Stem;
},
{
place = "{139.5, 191}";
type = Stem;
}
);
layerId = "E328F9F0-3A13-48BC-903B-CF0D861777C2";
paths = (
{
closed = 1;
nodes = (
"242.5 789 LINE",
"520.5 789 LINE",
"623.5 877 LINE",
"623.5 952 LINE",
"432.5 952 LINE",
"432.5 900 LINE",
"330.5 900 LINE",
"330.5 952 LINE",
"139.5 952 LINE",
"139.5 877 LINE"
);
},
{
closed = 1;
nodes = (
"50 0 LINE",
"692.5 0 LINE",
"692.5 197 LINE",
"334.9 197 LINE",
"334.9 289 LINE",
"650.5 289 LINE",
"650.5 448 LINE",
"334.9 448 LINE",
"334.9 540 LINE",
"692.5 540 LINE",
"692.5 737 LINE",
"50 737 LINE"
);
}
);
width = 737;
}
);
leftKerningGroup = B;
note = Ebreve;
rightKerningGroup = AE;
unicode = 0114;
},
{
glyphname = Ecaron;
layers = (
{
hints = (
{
horizontal = 1;
place = "{0, 197}";
type = Stem;
},
{
horizontal = 1;
place = "{289, 159}";
type = Stem;
},
{
horizontal = 1;
place = "{540, 197}";
type = Stem;
},
{
horizontal = 1;
place = "{789, 163}";
type = Stem;
},
{
place = "{50, 284.9}";
type = Stem;
}
);
layerId = "E328F9F0-3A13-48BC-903B-CF0D861777C2";
paths = (
{
closed = 1;
nodes = (
"241.5 789 LINE",
"521.5 789 LINE",
"644.5 952 LINE",
"457.5 952 LINE",
"381.5 876 LINE",
"305.5 952 LINE",
"118.5 952 LINE"
);
},
{
closed = 1;
nodes = (
"50 0 LINE",
"692.5 0 LINE",
"692.5 197 LINE",
"334.9 197 LINE",
"334.9 289 LINE",
"650.5 289 LINE",
"650.5 448 LINE",
"334.9 448 LINE",
"334.9 540 LINE",
"692.5 540 LINE",
"692.5 737 LINE",
"50 737 LINE"
);
}
);
width = 737;
}
);
leftKerningGroup = B;
note = Ecaron;
rightKerningGroup = AE;
unicode = 011A;
},
{
glyphname = Ecircumflex;
layers = (
{
hints = (
{
horizontal = 1;
place = "{0, 197}";
type = Stem;
},
{
horizontal = 1;
place = "{289, 159}";
type = Stem;
},
{
horizontal = 1;
place = "{540, 197}";
type = Stem;
},
{
horizontal = 1;
place = "{789, 163}";
type = Stem;
},
{
place = "{50, 284.9}";
type = Stem;
},
{
horizontal = 1;
place = "{865, 87}";
type = Stem;
}
);
layerId = "E328F9F0-3A13-48BC-903B-CF0D861777C2";
paths = (
{
closed = 1;
nodes = (
"118.5 789 LINE",
"305.5 789 LINE",
"381.5 865 LINE",
"457.5 789 LINE",
"644.5 789 LINE",
"521.5 952 LINE",
"241.5 952 LINE"
);
},
{
closed = 1;
nodes = (
"50 0 LINE",
"692.5 0 LINE",
"692.5 197 LINE",
"334.9 197 LINE",
"334.9 289 LINE",
"650.5 289 LINE",
"650.5 448 LINE",
"334.9 448 LINE",
"334.9 540 LINE",
"692.5 540 LINE",
"692.5 737 LINE",
"50 737 LINE"
);
}
);
width = 737;
}
);
leftKerningGroup = B;
note = Ecircumflex;
rightKerningGroup = AE;
unicode = 00CA;
},
{
glyphname = uni1EBE;
layers = (
{
hints = (
{
horizontal = 1;
place = "{0, 197}";
type = Stem;
},
{
horizontal = 1;
place = "{289, 159}";
type = Stem;
},
{
horizontal = 1;
place = "{540, 197}";
type = Stem;
},
{
horizontal = 1;
place = "{876.53, 163}";
type = Stem;
},
{
place = "{50, 284.9}";
type = Stem;
},
{
horizontal = 1;
place = "{789, 163}";
type = Stem;
},
{
horizontal = 1;
place = "{865, 87}";
type = Stem;
}
);
layerId = "E328F9F0-3A13-48BC-903B-CF0D861777C2";
paths = (
{
closed = 1;
nodes = (
"626.5 876.52 LINE",
"798.5 876.52 LINE",
"960.5 1039.52 LINE",
"735.5 1039.52 LINE"
);
},
{
closed = 1;
nodes = (
"118.5 789 LINE",
"305.5 789 LINE",
"381.5 865 LINE",
"457.5 789 LINE",
"644.5 789 LINE",
"521.5 952 LINE",
"241.5 952 LINE"
);
},
{
closed = 1;
nodes = (
"50 0 LINE",
"692.5 0 LINE",
"692.5 197 LINE",
"334.9 197 LINE",
"334.9 289 LINE",
"650.5 289 LINE",
"650.5 448 LINE",
"334.9 448 LINE",
"334.9 540 LINE",
"692.5 540 LINE",
"692.5 737 LINE",
"50 737 LINE"
);
}
);
width = 737;
}
);
leftKerningGroup = B;
note = uni1EBE;
rightKerningGroup = AE;
unicode = 1EBE;
},
{
glyphname = uni1EC6;
layers = (
{
hints = (
{
horizontal = 1;
place = "{-209, 158}";
type = Stem;
},
{
horizontal = 1;
place = "{0, 197}";
type = Stem;
},
{
horizontal = 1;
place = "{289, 159}";
type = Stem;
},
{
horizontal = 1;
place = "{540, 197}";
type = Stem;
},
{
horizontal = 1;
place = "{789, 163}";
type = Stem;
},
{
place = "{50, 284.9}";
type = Stem;
},
{
horizontal = 1;
place = "{865, 87}";
type = Stem;
},
{
place = "{234, 263}";
type = Stem;
}
);
layerId = "E328F9F0-3A13-48BC-903B-CF0D861777C2";
paths = (
{
closed = 1;
nodes = (
"118.5 789 LINE",
"305.5 789 LINE",
"381.5 865 LINE",
"457.5 789 LINE",
"644.5 789 LINE",
"521.5 952 LINE",
"241.5 952 LINE"
);
},
{
closed = 1;
nodes = (
"50 0 LINE",
"692.5 0 LINE",
"692.5 197 LINE",
"334.9 197 LINE",
"334.9 289 LINE",
"650.5 289 LINE",
"650.5 448 LINE",
"334.9 448 LINE",
"334.9 540 LINE",
"692.5 540 LINE",
"692.5 737 LINE",
"50 737 LINE"
);
},
{
closed = 1;
nodes = (
"234 -209 LINE",
"497 -209 LINE",
"497 -51 LINE",
"234 -51 LINE"
);
}
);
width = 737;
}
);
leftKerningGroup = B;
note = uni1EC6;
rightKerningGroup = AE;
unicode = 1EC6;
},
{
glyphname = uni1EC0;
layers = (
{
hints = (
{
horizontal = 1;
place = "{0, 197}";
type = Stem;
},
{
horizontal = 1;
place = "{289, 159}";
type = Stem;
},
{
horizontal = 1;
place = "{540, 197}";
type = Stem;
},
{
horizontal = 1;
place = "{876.53, 163}";
type = Stem;
},
{
place = "{50, 284.9}";
type = Stem;
},
{
horizontal = 1;
place = "{789, 163}";
type = Stem;
},
{
horizontal = 1;
place = "{865, 87}";
type = Stem;
}
);
layerId = "E328F9F0-3A13-48BC-903B-CF0D861777C2";
paths = (
{
closed = 1;
nodes = (
"-36 876.52 LINE",
"136 876.52 LINE",
"27 1039.52 LINE",
"-198 1039.52 LINE"
);
},
{
closed = 1;
nodes = (
"118 789 LINE",
"305 789 LINE",
"381 865 LINE",
"457 789 LINE",
"644 789 LINE",
"521 952 LINE",
"241 952 LINE"
);
},
{
closed = 1;
nodes = (
"50 0 LINE",
"692.5 0 LINE",
"692.5 197 LINE",
"334.9 197 LINE",
"334.9 289 LINE",
"650.5 289 LINE",
"650.5 448 LINE",
"334.9 448 LINE",
"334.9 540 LINE",
"692.5 540 LINE",
"692.5 737 LINE",
"50 737 LINE"
);
}
);
width = 736;
}
);
leftKerningGroup = B;
note = uni1EC0;
rightKerningGroup = AE;
unicode = 1EC0;
},
{
glyphname = uni1EC2;
layers = (
{
hints = (
{
horizontal = 1;
place = "{0, 197}";
type = Stem;
},
{
horizontal = 1;
place = "{289, 159}";
type = Stem;
},
{
horizontal = 1;
place = "{540, 197}";
type = Stem;
},
{
horizontal = 1;
place = "{876.65, 106}";
type = Stem;
},
{
horizontal = 1;
place = "{1007.65, 107}";
type = Stem;
},
{
place = "{50, 284.9}";
type = Stem;
},
{
place = "{626.5, 158}";
type = Stem;
},
{
horizontal = 1;
place = "{915.65, 67}";
type = Stem;
},
{
place = "{547.5, 145}";
type = Stem;
},
{
place = "{724.5, 150}";
type = Stem;
},
{
horizontal = 1;
place = "{789, 163}";
type = Stem;
},
{
horizontal = 1;
place = "{1048.65, 66}";
type = Stem;
},
{
horizontal = 1;
place = "{865, 87}";
type = Stem;
}
);
layerId = "E328F9F0-3A13-48BC-903B-CF0D861777C2";
paths = (
{
closed = 1;
nodes = (
"626.5 876.64 LINE",
"784.5 876.64 LINE",
"784.5 915.64 LINE",
"826.5 915.64 LINE",
"874.5 953.64 LINE",
"874.5 1072.64 LINE",
"825.5 1114.64 LINE",
"602.5 1114.64 LINE",
"547.5 1072.64 LINE",
"547.5 1007.64 LINE",
"692.5 1007.64 LINE",
"692.5 1048.64 LINE",
"724.5 1048.64 LINE",
"724.5 982.64 LINE",
"665.5 982.64 LINE",
"626.5 953.64 LINE"
);
},
{
closed = 1;
nodes = (
"118.5 789 LINE",
"305.5 789 LINE",
"381.5 865 LINE",
"457.5 789 LINE",
"644.5 789 LINE",
"521.5 952 LINE",
"241.5 952 LINE"
);
},
{
closed = 1;
nodes = (
"50 0 LINE",
"692.5 0 LINE",
"692.5 197 LINE",
"334.9 197 LINE",
"334.9 289 LINE",
"650.5 289 LINE",
"650.5 448 LINE",
"334.9 448 LINE",
"334.9 540 LINE",
"692.5 540 LINE",
"692.5 737 LINE",
"50 737 LINE"
);
}
);
width = 737;
}
);
leftKerningGroup = B;
note = uni1EC2;
rightKerningGroup = AE;
unicode = 1EC2;
},
{
glyphname = uni1EC4;
layers = (
{
hints = (
{
horizontal = 1;
place = "{0, 197}";
type = Stem;
},
{
horizontal = 1;
place = "{289, 159}";
type = Stem;
},
{
horizontal = 1;
place = "{540, 197}";
type = Stem;
},
{
horizontal = 1;
place = "{789, 163}";
type = Stem;
},
{
horizontal = 1;
place = "{983, 161}";
type = Stem;
},
{
place = "{50, 284.9}";
type = Stem;
},
{
place = "{492.5, 147}";
type = Stem;
},
{
horizontal = 1;
place = "{1055, 89}";
type = Stem;
},
{
horizontal = 1;
place = "{983, 113}";
type = Stem;
},
{
horizontal = 1;
place = "{989, 162}";
type = Stem;
},
{
place = "{133.5, 147}";
type = Stem;
},
{
horizontal = 1;
place = "{1037, 114}";
type = Stem;
},
{
horizontal = 1;
place = "{865, 87}";
type = Stem;
}
);
layerId = "E328F9F0-3A13-48BC-903B-CF0D861777C2";
paths = (
{
closed = 1;
nodes = (
"363.5 983 LINE",
"555.5 983 LINE",
"639.5 1055 LINE",
"639.5 1144 LINE",
"492.5 1144 LINE",
"492.5 1111 LINE",
"476.5 1096 LINE",
"458.5 1096 LINE",
"409.5 1151 LINE",
"216.5 1151 LINE",
"133.5 1077 LINE",
"133.5 989 LINE",
"280.5 989 LINE",
"280.5 1021 LINE",
"296.5 1037 LINE",
"313.5 1037 LINE"
);
},
{
closed = 1;
nodes = (
"118.5 789 LINE",
"305.5 789 LINE",
"381.5 865 LINE",
"457.5 789 LINE",
"644.5 789 LINE",
"521.5 952 LINE",
"241.5 952 LINE"
);
},
{
closed = 1;
nodes = (
"50 0 LINE",
"692.5 0 LINE",
"692.5 197 LINE",
"334.9 197 LINE",
"334.9 289 LINE",
"650.5 289 LINE",
"650.5 448 LINE",
"334.9 448 LINE",
"334.9 540 LINE",
"692.5 540 LINE",
"692.5 737 LINE",
"50 737 LINE"
);
}
);
width = 737;
}
);
leftKerningGroup = B;
note = uni1EC4;
rightKerningGroup = AE;
unicode = 1EC4;
},
{
glyphname = uni0204;
layers = (
{
hints = (
{
horizontal = 1;
place = "{0, 197}";
type = Stem;
},
{
horizontal = 1;
place = "{289, 159}";
type = Stem;
},
{
horizontal = 1;
place = "{540, 197}";
type = Stem;
},
{
horizontal = 1;
place = "{789, 163}";
type = Stem;
},
{
place = "{49.5, 284.9}";
type = Stem;
}
);
layerId = "E328F9F0-3A13-48BC-903B-CF0D861777C2";
paths = (
{
closed = 1;
nodes = (
"155 789 LINE",
"315 789 LINE",
"207 952 LINE",
"-8 952 LINE"
);
},
{
closed = 1;
nodes = (
"431 789 LINE",
"592 789 LINE",
"483 952 LINE",
"268 952 LINE"
);
},
{
closed = 1;
nodes = (
"49.5 0 LINE",
"692 0 LINE",
"692 197 LINE",
"334.4 197 LINE",
"334.4 289 LINE",
"650 289 LINE",
"650 448 LINE",
"334.4 448 LINE",
"334.4 540 LINE",
"692 540 LINE",
"692 737 LINE",
"49.5 737 LINE"
);
}
);
width = 736;
}
);
leftKerningGroup = B;
note = uni0204;
rightKerningGroup = AE;
unicode = 0204;
},
{
glyphname = Edieresis;
layers = (
{
hints = (
{
horizontal = 1;
place = "{0, 197}";
type = Stem;
},
{
horizontal = 1;
place = "{289, 159}";
type = Stem;
},
{
horizontal = 1;
place = "{540, 197}";
type = Stem;
},
{
horizontal = 1;
place = "{789, 158}";
type = Stem;
},
{
place = "{98.25, 239}";
type = Stem;
},
{
place = "{405.25, 239}";
type = Stem;
},
{
place = "{50, 287.25}";
type = Stem;
},
{
place = "{50, 284.9}";
type = Stem;
},
{
place = "{405.25, 287.25}";
type = Stem;
}
);
layerId = "E328F9F0-3A13-48BC-903B-CF0D861777C2";
paths = (
{
closed = 1;
nodes = (
"98.25 789 LINE",
"337.25 789 LINE",
"337.25 947 LINE",
"98.25 947 LINE"
);
},
{
closed = 1;
nodes = (
"405.25 789 LINE",
"644.25 789 LINE",
"644.25 947 LINE",
"405.25 947 LINE"
);
},
{
closed = 1;
nodes = (
"50 0 LINE",
"692.5 0 LINE",
"692.5 197 LINE",
"334.9 197 LINE",
"334.9 289 LINE",
"650.5 289 LINE",
"650.5 448 LINE",
"334.9 448 LINE",
"334.9 540 LINE",
"692.5 540 LINE",
"692.5 737 LINE",
"50 737 LINE"
);
}
);
width = 737;
}
);
leftKerningGroup = B;
note = Edieresis;
rightKerningGroup = AE;
unicode = 00CB;
},
{
glyphname = Edotaccent;
layers = (
{
hints = (
{
horizontal = 1;
place = "{0, 197}";
type = Stem;
},
{
horizontal = 1;
place = "{289, 159}";
type = Stem;
},
{
horizontal = 1;
place = "{540, 197}";
type = Stem;
},
{
horizontal = 1;
place = "{789, 158}";
type = Stem;
},
{
place = "{250, 263}";
type = Stem;
},
{
place = "{50, 284.9}";
type = Stem;
}
);
layerId = "E328F9F0-3A13-48BC-903B-CF0D861777C2";
paths = (
{
closed = 1;
nodes = (
"250 789 LINE",
"513 789 LINE",
"513 947 LINE",
"250 947 LINE"
);
},
{
closed = 1;
nodes = (
"50 0 LINE",
"692.5 0 LINE",
"692.5 197 LINE",
"334.9 197 LINE",
"334.9 289 LINE",
"650.5 289 LINE",
"650.5 448 LINE",
"334.9 448 LINE",
"334.9 540 LINE",
"692.5 540 LINE",
"692.5 737 LINE",
"50 737 LINE"
);
}
);
width = 737;
}
);
leftKerningGroup = B;
note = Edotaccent;
rightKerningGroup = AE;
unicode = 0116;
},
{
glyphname = uni1EB8;
layers = (
{
hints = (
{
horizontal = 1;
place = "{-209, 158}";
type = Stem;
},
{
horizontal = 1;
place = "{0, 197}";
type = Stem;
},
{
horizontal = 1;
place = "{289, 159}";
type = Stem;
},
{
horizontal = 1;
place = "{540, 197}";
type = Stem;
},
{
place = "{50, 284.9}";
type = Stem;
},
{
place = "{234, 263}";
type = Stem;
}
);
layerId = "E328F9F0-3A13-48BC-903B-CF0D861777C2";
paths = (
{
closed = 1;
nodes = (
"50 0 LINE",
"692.5 0 LINE",
"692.5 197 LINE",
"334.9 197 LINE",
"334.9 289 LINE",
"650.5 289 LINE",
"650.5 448 LINE",
"334.9 448 LINE",
"334.9 540 LINE",
"692.5 540 LINE",
"692.5 737 LINE",
"50 737 LINE"
);
},
{
closed = 1;
nodes = (
"234 -209 LINE",
"497 -209 LINE",
"497 -51 LINE",
"234 -51 LINE"
);
}
);
width = 737;
}
);
leftKerningGroup = B;
note = uni1EB8;
rightKerningGroup = AE;
unicode = 1EB8;
},
{
glyphname = Egrave;
layers = (
{
hints = (
{
horizontal = 1;
place = "{0, 197}";
type = Stem;
},
{
horizontal = 1;
place = "{289, 159}";
type = Stem;
},
{
horizontal = 1;
place = "{540, 197}";
type = Stem;
},
{
horizontal = 1;
place = "{789, 163}";
type = Stem;
},
{
place = "{50, 284.9}";
type = Stem;
}
);
layerId = "E328F9F0-3A13-48BC-903B-CF0D861777C2";
paths = (
{
closed = 1;
nodes = (
"298.5 789 LINE",
"470.5 789 LINE",
"361.5 952 LINE",
"136.5 952 LINE"
);
},
{
closed = 1;
nodes = (
"50 0 LINE",
"692.5 0 LINE",
"692.5 197 LINE",
"334.9 197 LINE",
"334.9 289 LINE",
"650.5 289 LINE",
"650.5 448 LINE",
"334.9 448 LINE",
"334.9 540 LINE",
"692.5 540 LINE",
"692.5 737 LINE",
"50 737 LINE"
);
}
);
width = 737;
}
);
leftKerningGroup = B;
note = Egrave;
rightKerningGroup = AE;
unicode = 00C8;
},
{
glyphname = uni1EBA;
layers = (
{
hints = (
{
horizontal = 1;
place = "{0, 197}";
type = Stem;
},
{
horizontal = 1;
place = "{289, 159}";
type = Stem;
},
{
horizontal = 1;
place = "{540, 197}";
type = Stem;
},
{
horizontal = 1;
place = "{789, 106}";
type = Stem;
},
{
horizontal = 1;
place = "{920, 107}";
type = Stem;
},
{
place = "{302.5, 158}";
type = Stem;
},
{
horizontal = 1;
place = "{828, 67}";
type = Stem;
},
{
place = "{50, 284.9}";
type = Stem;
},
{
place = "{400.5, 150}";
type = Stem;
},
{
place = "{223.5, 145}";
type = Stem;
},
{
horizontal = 1;
place = "{961, 66}";
type = Stem;
}
);
layerId = "E328F9F0-3A13-48BC-903B-CF0D861777C2";
paths = (
{
closed = 1;
nodes = (
"302.5 789 LINE",
"460.5 789 LINE",
"460.5 828 LINE",
"502.5 828 LINE",
"550.5 866 LINE",
"550.5 985 LINE",
"501.5 1027 LINE",
"278.5 1027 LINE",
"223.5 985 LINE",
"223.5 920 LINE",
"368.5 920 LINE",
"368.5 961 LINE",
"400.5 961 LINE",
"400.5 895 LINE",
"341.5 895 LINE",
"302.5 866 LINE"
);
},
{
closed = 1;
nodes = (
"50 0 LINE",
"692.5 0 LINE",
"692.5 197 LINE",
"334.9 197 LINE",
"334.9 289 LINE",
"650.5 289 LINE",
"650.5 448 LINE",
"334.9 448 LINE",
"334.9 540 LINE",
"692.5 540 LINE",
"692.5 737 LINE",
"50 737 LINE"
);
}
);
width = 737;
}
);
leftKerningGroup = B;
note = uni1EBA;
rightKerningGroup = AE;
unicode = 1EBA;
},
{
glyphname = uni0206;
layers = (
{
hints = (
{
horizontal = 1;
place = "{0, 197}";
type = Stem;
},
{
horizontal = 1;
place = "{289, 159}";
type = Stem;
},
{
horizontal = 1;
place = "{540, 197}";
type = Stem;
},
{
horizontal = 1;
place = "{789, 163}";
type = Stem;
},
{
place = "{129.25, 191}";
type = Stem;
},
{
place = "{50, 270.25}";
type = Stem;
},
{
horizontal = 1;
place = "{841, 111}";
type = Stem;
},
{
place = "{422.25, 191}";
type = Stem;
},
{
place = "{50, 284.9}";
type = Stem;
},
{
place = "{422.25, 270.25}";
type = Stem;
}
);
layerId = "E328F9F0-3A13-48BC-903B-CF0D861777C2";
paths = (
{
closed = 1;
nodes = (
"129.25 789 LINE",
"320.25 789 LINE",
"320.25 841 LINE",
"422.25 841 LINE",
"422.25 789 LINE",
"613.25 789 LINE",
"613.25 864 LINE",
"510.25 952 LINE",
"232.25 952 LINE",
"129.25 864 LINE"
);
},
{
closed = 1;
nodes = (
"50 0 LINE",
"692.5 0 LINE",
"692.5 197 LINE",
"334.9 197 LINE",
"334.9 289 LINE",
"650.5 289 LINE",
"650.5 448 LINE",
"334.9 448 LINE",
"334.9 540 LINE",
"692.5 540 LINE",
"692.5 737 LINE",
"50 737 LINE"
);
}
);
width = 737;
}
);
leftKerningGroup = B;
note = uni0206;
rightKerningGroup = AE;
unicode = 0206;
},
{
glyphname = Emacron;
layers = (
{
hints = (
{
horizontal = 1;
place = "{0, 197}";
type = Stem;
},
{
horizontal = 1;
place = "{289, 159}";
type = Stem;
},
{
horizontal = 1;
place = "{540, 197}";
type = Stem;
},
{
horizontal = 1;
place = "{789, 149}";
type = Stem;
},
{
place = "{98.25, 546}";
type = Stem;
},
{
place = "{50, 284.9}";
type = Stem;
}
);
layerId = "E328F9F0-3A13-48BC-903B-CF0D861777C2";
paths = (
{
closed = 1;
nodes = (
"98.25 789 LINE",
"644.25 789 LINE",
"644.25 938 LINE",
"98.25 938 LINE"
);
},
{
closed = 1;
nodes = (
"50 0 LINE",
"692.5 0 LINE",
"692.5 197 LINE",
"334.9 197 LINE",
"334.9 289 LINE",
"650.5 289 LINE",
"650.5 448 LINE",
"334.9 448 LINE",
"334.9 540 LINE",
"692.5 540 LINE",
"692.5 737 LINE",
"50 737 LINE"
);
}
);
width = 737;
}
);
leftKerningGroup = B;
note = Emacron;
rightKerningGroup = AE;
unicode = 0112;
},
{
glyphname = Eogonek;
layers = (
{
hints = (
{
horizontal = 1;
place = "{-191, 127}";
type = Stem;
},
{
horizontal = 1;
place = "{0, 197}";
type = Stem;
},
{
horizontal = 1;
place = "{289, 159}";
type = Stem;
},
{
horizontal = 1;
place = "{540, 197}";
type = Stem;
},
{
place = "{50, 284.9}";
type = Stem;
},
{
place = "{527.5, 174}";
type = Stem;
},
{
place = "{527.5, 135}";
type = Stem;
},
{
place = "{527.5, 165}";
type = Stem;
}
);
layerId = "E328F9F0-3A13-48BC-903B-CF0D861777C2";
paths = (
{
closed = 1;
nodes = (
"610.5 -191 LINE",
"701.5 -191 LINE",
"701.5 -64 LINE",
"678.5 -64 LINE",
"662.5 -50 LINE",
"662.5 -26 LINE",
"692.5 0 LINE",
"692.5 197 LINE",
"334.9 197 LINE",
"334.9 289 LINE",
"650.5 289 LINE",
"650.5 448 LINE",
"334.9 448 LINE",
"334.9 540 LINE",
"692.5 540 LINE",
"692.5 737 LINE",
"50 737 LINE",
"50 0 LINE",
"572.5 0 LINE",
"527.5 -33 LINE",
"527.5 -122 LINE"
);
}
);
width = 737;
}
);
leftKerningGroup = B;
note = Eogonek;
rightKerningGroup = AE;
unicode = 0118;
},
{
glyphname = uni1EBC;
layers = (
{
hints = (
{
horizontal = 1;
place = "{0, 197}";
type = Stem;
},
{
horizontal = 1;
place = "{289, 159}";
type = Stem;
},
{
horizontal = 1;
place = "{540, 197}";
type = Stem;
},
{
horizontal = 1;
place = "{789, 161}";
type = Stem;
},
{
place = "{50, 284.9}";
type = Stem;
},
{
place = "{488.5, 147}";
type = Stem;
},
{
horizontal = 1;
place = "{861, 89}";
type = Stem;
},
{
horizontal = 1;
place = "{789, 113}";
type = Stem;
},
{
horizontal = 1;
place = "{795, 162}";
type = Stem;
},
{
place = "{129.5, 147}";
type = Stem;
},
{
place = "{50, 226.5}";
type = Stem;
},
{
horizontal = 1;
place = "{843, 114}";
type = Stem;
}
);
layerId = "E328F9F0-3A13-48BC-903B-CF0D861777C2";
paths = (
{
closed = 1;
nodes = (
"359.5 789 LINE",
"551.5 789 LINE",
"635.5 861 LINE",
"635.5 950 LINE",
"488.5 950 LINE",
"488.5 917 LINE",
"472.5 902 LINE",
"454.5 902 LINE",
"405.5 957 LINE",
"212.5 957 LINE",
"129.5 883 LINE",
"129.5 795 LINE",
"276.5 795 LINE",
"276.5 827 LINE",
"292.5 843 LINE",
"309.5 843 LINE"
);
},
{
closed = 1;
nodes = (
"50 0 LINE",
"692.5 0 LINE",
"692.5 197 LINE",
"334.9 197 LINE",
"334.9 289 LINE",
"650.5 289 LINE",
"650.5 448 LINE",
"334.9 448 LINE",
"334.9 540 LINE",
"692.5 540 LINE",
"692.5 737 LINE",
"50 737 LINE"
);
}
);
width = 737;
}
);
leftKerningGroup = B;
note = uni1EBC;
rightKerningGroup = AE;
unicode = 1EBC;
},
{
glyphname = F;
layers = (
{
hints = (
{
horizontal = 1;
place = "{259, 176}";
type = Stem;
},
{
horizontal = 1;
place = "{540, 197}";
type = Stem;
},
{
place = "{50, 285}";
type = Stem;
}
);
layerId = "E328F9F0-3A13-48BC-903B-CF0D861777C2";
paths = (
{
closed = 1;
nodes = (
"50 0 LINE",
"335 0 LINE",
"335 259 LINE",
"632 259 LINE",
"632 435 LINE",
"335 435 LINE",
"335 540 LINE",
"680 540 LINE",
"680 737 LINE",
"50 737 LINE"
);
}
);
width = 713;
}
);
leftKerningGroup = B;
note = F;
rightKerningGroup = F;
unicode = 0046;
},
{
glyphname = G;
layers = (
{
hints = (
{
horizontal = 1;
place = "{0, 153}";
type = Stem;
},
{
horizontal = 1;
place = "{251, 153}";
type = Stem;
},
{
horizontal = 1;
place = "{584, 153}";
type = Stem;
},
{
place = "{39, 285}";
type = Stem;
},
{
place = "{443, 319}";
type = Stem;
},
{
place = "{541, 221}";
type = Stem;
},
{
place = "{469, 293}";
type = Stem;
}
);
layerId = "E328F9F0-3A13-48BC-903B-CF0D861777C2";
paths = (
{
closed = 1;
nodes = (
"150 0 LINE",
"468 0 LINE",
"541 61.29 LINE",
"541 0 LINE",
"762 0 LINE",
"762 404 LINE",
"443 404 LINE",
"443 251 LINE",
"539.89 251 LINE",
"424 153 LINE",
"324 153 LINE",
"324 584 LINE",
"469 584 LINE",
"469 476 LINE",
"762 475 LINE",
"762 642 LINE",
"651 737 LINE",
"150 737 LINE",
"39 642 LINE",
"39 95 LINE"
);
}
);
width = 812;
}
);
note = G;
rightKerningGroup = G;
unicode = 0047;
},
{
glyphname = Gbreve;
layers = (
{
hints = (
{
horizontal = 1;
place = "{0, 153}";
type = Stem;
},
{
horizontal = 1;
place = "{251, 153}";
type = Stem;
},
{
horizontal = 1;
place = "{584, 153}";
type = Stem;
},
{
horizontal = 1;
place = "{789, 163}";
type = Stem;
},
{
place = "{39, 285}";
type = Stem;
},
{
place = "{443, 319}";
type = Stem;
},
{
horizontal = 1;
place = "{877, 75}";
type = Stem;
},
{
place = "{448, 191}";
type = Stem;
},
{
horizontal = 1;
place = "{789, 111}";
type = Stem;
},
{
place = "{155, 191}";
type = Stem;
},
{
place = "{541, 221}";
type = Stem;
},
{
place = "{469, 293}";
type = Stem;
}
);
layerId = "E328F9F0-3A13-48BC-903B-CF0D861777C2";
paths = (
{
closed = 1;
nodes = (
"258 789 LINE",
"536 789 LINE",
"639 877 LINE",
"639 952 LINE",
"448 952 LINE",
"448 900 LINE",
"346 900 LINE",
"346 952 LINE",
"155 952 LINE",
"155 877 LINE"
);
},
{
closed = 1;
nodes = (
"150 0 LINE",
"468 0 LINE",
"541 61.29 LINE",
"541 0 LINE",
"762 0 LINE",
"762 404 LINE",
"443 404 LINE",
"443 251 LINE",
"539.89 251 LINE",
"424 153 LINE",
"324 153 LINE",
"324 584 LINE",
"469 584 LINE",
"469 476 LINE",
"762 475 LINE",
"762 642 LINE",
"651 737 LINE",
"150 737 LINE",
"39 642 LINE",
"39 95 LINE"
);
}
);
width = 812;
}
);
note = Gbreve;
rightKerningGroup = G;
unicode = 011E;
},
{
glyphname = Gcaron;
layers = (
{
hints = (
{
horizontal = 1;
place = "{0, 153}";
type = Stem;
},
{
horizontal = 1;
place = "{251, 153}";
type = Stem;
},
{
horizontal = 1;
place = "{584, 153}";
type = Stem;
},
{
horizontal = 1;
place = "{789, 163}";
type = Stem;
},
{
place = "{39, 285}";
type = Stem;
},
{
place = "{443, 319}";
type = Stem;
},
{
place = "{541, 221}";
type = Stem;
},
{
place = "{469, 293}";
type = Stem;
}
);
layerId = "E328F9F0-3A13-48BC-903B-CF0D861777C2";
paths = (
{
closed = 1;
nodes = (
"257 789 LINE",
"537 789 LINE",
"660 952 LINE",
"473 952 LINE",
"397 876 LINE",
"321 952 LINE",
"134 952 LINE"
);
},
{
closed = 1;
nodes = (
"150 0 LINE",
"468 0 LINE",
"541 61.29 LINE",
"541 0 LINE",
"762 0 LINE",
"762 404 LINE",
"443 404 LINE",
"443 251 LINE",
"539.89 251 LINE",
"424 153 LINE",
"324 153 LINE",
"324 584 LINE",
"469 584 LINE",
"469 476 LINE",
"762 475 LINE",
"762 642 LINE",
"651 737 LINE",
"150 737 LINE",
"39 642 LINE",
"39 95 LINE"
);
}
);
width = 812;
}
);
note = Gcaron;
rightKerningGroup = G;
unicode = 01E6;
},
{
glyphname = Gcircumflex;
layers = (
{
hints = (
{
horizontal = 1;
place = "{0, 153}";
type = Stem;
},
{
horizontal = 1;
place = "{251, 153}";
type = Stem;
},
{
horizontal = 1;
place = "{584, 153}";
type = Stem;
},
{
horizontal = 1;
place = "{789, 163}";
type = Stem;
},
{
place = "{39, 285}";
type = Stem;
},
{
place = "{443, 319}";
type = Stem;
},
{
horizontal = 1;
place = "{865, 87}";
type = Stem;
},
{
place = "{541, 221}";
type = Stem;
},
{
place = "{469, 293}";
type = Stem;
}
);
layerId = "E328F9F0-3A13-48BC-903B-CF0D861777C2";
paths = (
{
closed = 1;
nodes = (
"134 789 LINE",
"321 789 LINE",
"397 865 LINE",
"473 789 LINE",
"660 789 LINE",
"537 952 LINE",
"257 952 LINE"
);
},
{
closed = 1;
nodes = (
"150 0 LINE",
"468 0 LINE",
"541 61.29 LINE",
"541 0 LINE",
"762 0 LINE",
"762 404 LINE",
"443 404 LINE",
"443 251 LINE",
"539.89 251 LINE",
"424 153 LINE",
"324 153 LINE",
"324 584 LINE",
"469 584 LINE",
"469 476 LINE",
"762 475 LINE",
"762 642 LINE",
"651 737 LINE",
"150 737 LINE",
"39 642 LINE",
"39 95 LINE"
);
}
);
width = 812;
}
);
note = Gcircumflex;
rightKerningGroup = G;
unicode = 011C;
},
{
glyphname = uni0122;
layers = (
{
hints = (
{
horizontal = 1;
place = "{-234, 182}";
type = Stem;
},
{
horizontal = 1;
place = "{0, 153}";
type = Stem;
},
{
horizontal = 1;
place = "{251, 153}";
type = Stem;
},
{
horizontal = 1;
place = "{584, 153}";
type = Stem;
},
{
place = "{39, 285}";
type = Stem;
},
{
place = "{443, 319}";
type = Stem;
},
{
place = "{541, 221}";
type = Stem;
},
{
place = "{469, 293}";
type = Stem;
}
);
layerId = "E328F9F0-3A13-48BC-903B-CF0D861777C2";
paths = (
{
closed = 1;
nodes = (
"150 0 LINE",
"468 0 LINE",
"541 61.29 LINE",
"541 0 LINE",
"762 0 LINE",
"762 404 LINE",
"443 404 LINE",
"443 251 LINE",
"539.89 251 LINE",
"424 153 LINE",
"324 153 LINE",
"324 584 LINE",
"469 584 LINE",
"469 476 LINE",
"762 475 LINE",
"762 642 LINE",
"651 737 LINE",
"150 737 LINE",
"39 642 LINE",
"39 95 LINE"
);
},
{
closed = 1;
nodes = (
"229 -234 LINE",
"369 -234 LINE",
"502 -52 LINE",
"280 -52 LINE"
);
}
);
width = 812;
}
);
note = uni0122;
rightKerningGroup = G;
unicode = 0122;
},
{
glyphname = Gdotaccent;
layers = (
{
hints = (
{
horizontal = 1;
place = "{0, 153}";
type = Stem;
},
{
horizontal = 1;
place = "{251, 153}";
type = Stem;
},
{
horizontal = 1;
place = "{584, 153}";
type = Stem;
},
{
horizontal = 1;
place = "{789, 158}";
type = Stem;
},
{
place = "{265.5, 263}";
type = Stem;
},
{
place = "{39, 285}";
type = Stem;
},
{
place = "{541, 221}";
type = Stem;
},
{
place = "{443, 319}";
type = Stem;
},
{
place = "{469, 293}";
type = Stem;
}
);
layerId = "E328F9F0-3A13-48BC-903B-CF0D861777C2";
paths = (
{
closed = 1;
nodes = (
"265.5 789 LINE",
"528.5 789 LINE",
"528.5 947 LINE",
"265.5 947 LINE"
);
},
{
closed = 1;
nodes = (
"150 0 LINE",
"468 0 LINE",
"541 61.29 LINE",
"541 0 LINE",
"762 0 LINE",
"762 404 LINE",
"443 404 LINE",
"443 251 LINE",
"539.89 251 LINE",
"424 153 LINE",
"324 153 LINE",
"324 584 LINE",
"469 584 LINE",
"469 476 LINE",
"762 475 LINE",
"762 642 LINE",
"651 737 LINE",
"150 737 LINE",
"39 642 LINE",
"39 95 LINE"
);
}
);
width = 812;
}
);
note = Gdotaccent;
rightKerningGroup = G;
unicode = 0120;
},
{
glyphname = H;
layers = (
{
hints = (
{
horizontal = 1;
place = "{282, 196}";
type = Stem;
},
{
place = "{50, 284.9}";
type = Stem;
},
{
place = "{477, 284.9}";
type = Stem;
}
);
layerId = "E328F9F0-3A13-48BC-903B-CF0D861777C2";
paths = (
{
closed = 1;
nodes = (
"50 0 LINE",
"334.89 0 LINE",
"334.89 282 LINE",
"476.99 282 LINE",
"476.99 0 LINE",
"761.88 0 LINE",
"761.88 737 LINE",
"476.99 737 LINE",
"476.99 478 LINE",
"334.89 478 LINE",
"334.89 737 LINE",
"50 737 LINE"
);
}
);
width = 812;
}
);
leftKerningGroup = B;
note = H;
rightKerningGroup = H;
unicode = 0048;
},
{
glyphname = Hbar;
layers = (
{
hints = (
{
horizontal = 1;
place = "{282, 196}";
type = Stem;
},
{
horizontal = 1;
place = "{547, 118}";
type = Stem;
},
{
place = "{49.55, 284.9}";
type = Stem;
},
{
place = "{476.55, 284.9}";
type = Stem;
},
{
horizontal = 1;
place = "{547, 190}";
type = Stem;
}
);
layerId = "E328F9F0-3A13-48BC-903B-CF0D861777C2";
paths = (
{
closed = 1;
nodes = (
"49.54 0 LINE",
"334.44 0 LINE",
"334.44 282 LINE",
"476.53 282 LINE",
"476.53 0 LINE",
"761.43 0 LINE",
"761.43 547 LINE",
"810.98 547 LINE",
"810.98 665 LINE",
"761.43 665 LINE",
"761.43 737 LINE",
"476.53 737 LINE",
"476.53 665 LINE",
"334.44 665 LINE",
"334.44 737 LINE",
"49.54 737 LINE",
"49.54 665 LINE",
"0 665 LINE",
"0 547 LINE",
"49.54 547 LINE"
);
},
{
closed = 1;
nodes = (
"334.44 478 LINE",
"334.44 547 LINE",
"476.53 547 LINE",
"476.53 478 LINE"
);
}
);
width = 811;
}
);
note = Hbar;
unicode = 0126;
},
{
glyphname = Hcircumflex;
layers = (
{
hints = (
{
horizontal = 1;
place = "{282, 196}";
type = Stem;
},
{
horizontal = 1;
place = "{789, 163}";
type = Stem;
},
{
place = "{50, 284.9}";
type = Stem;
},
{
place = "{477, 284.9}";
type = Stem;
},
{
horizontal = 1;
place = "{865, 87}";
type = Stem;
}
);
layerId = "E328F9F0-3A13-48BC-903B-CF0D861777C2";
paths = (
{
closed = 1;
nodes = (
"143 789 LINE",
"330 789 LINE",
"406 865 LINE",
"482 789 LINE",
"669 789 LINE",
"546 952 LINE",
"266 952 LINE"
);
},
{
closed = 1;
nodes = (
"50 0 LINE",
"334.89 0 LINE",
"334.89 282 LINE",
"476.99 282 LINE",
"476.99 0 LINE",
"761.88 0 LINE",
"761.88 737 LINE",
"476.99 737 LINE",
"476.99 478 LINE",
"334.89 478 LINE",
"334.89 737 LINE",
"50 737 LINE"
);
}
);
width = 812;
}
);
note = Hcircumflex;
unicode = 0124;
},
{
glyphname = I;
layers = (
{
hints = (
{
horizontal = 1;
place = "{0, 197}";
type = Stem;
},
{
horizontal = 1;
place = "{540, 197}";
type = Stem;
},
{
place = "{132.17, 270.66}";
type = Stem;
}
);
layerId = "E328F9F0-3A13-48BC-903B-CF0D861777C2";
paths = (
{
closed = 1;
nodes = (
"33 0 LINE",
"502 0 LINE",
"502 197 LINE",
"402.83 197 LINE",
"402.83 540 LINE",
"502 540 LINE",
"502 737 LINE",
"33 737 LINE",
"33 540 LINE",
"132.16 540 LINE",
"132.16 197 LINE",
"33 197 LINE"
);
}
);
width = 535;
}
);
leftKerningGroup = B;
note = I;
rightKerningGroup = H;
unicode = 0049;
},
{
glyphname = Iacute;
layers = (
{
hints = (
{
horizontal = 1;
place = "{0, 197}";
type = Stem;
},
{
horizontal = 1;
place = "{540, 197}";
type = Stem;
},
{
horizontal = 1;
place = "{789, 163}";
type = Stem;
},
{
place = "{132.17, 270.66}";
type = Stem;
}
);
layerId = "E328F9F0-3A13-48BC-903B-CF0D861777C2";
paths = (
{
closed = 1;
nodes = (
"179.5 789 LINE",
"351.5 789 LINE",
"513.5 952 LINE",
"288.5 952 LINE"
);
},
{
closed = 1;
nodes = (
"33 0 LINE",
"502 0 LINE",
"502 197 LINE",
"402.83 197 LINE",
"402.83 540 LINE",
"502 540 LINE",
"502 737 LINE",
"33 737 LINE",
"33 540 LINE",
"132.16 540 LINE",
"132.16 197 LINE",
"33 197 LINE"
);
}
);
width = 535;
}
);
leftKerningGroup = B;
note = Iacute;
rightKerningGroup = H;
unicode = 00CD;
},
{
glyphname = Ibreve;
layers = (
{
hints = (
{
horizontal = 1;
place = "{0, 197}";
type = Stem;
},
{
horizontal = 1;
place = "{540, 197}";
type = Stem;
},
{
horizontal = 1;
place = "{789, 163}";
type = Stem;
},
{
place = "{132.17, 270.66}";
type = Stem;
},
{
horizontal = 1;
place = "{877, 75}";
type = Stem;
},
{
place = "{318.5, 191}";
type = Stem;
},
{
horizontal = 1;
place = "{789, 111}";
type = Stem;
},
{
place = "{25.5, 191}";
type = Stem;
}
);
layerId = "E328F9F0-3A13-48BC-903B-CF0D861777C2";
paths = (
{
closed = 1;
nodes = (
"128.5 789 LINE",
"406.5 789 LINE",
"509.5 877 LINE",
"509.5 952 LINE",
"318.5 952 LINE",
"318.5 900 LINE",
"216.5 900 LINE",
"216.5 952 LINE",
"25.5 952 LINE",
"25.5 877 LINE"
);
},
{
closed = 1;
nodes = (
"33 0 LINE",
"502 0 LINE",
"502 197 LINE",
"402.83 197 LINE",
"402.83 540 LINE",
"502 540 LINE",
"502 737 LINE",
"33 737 LINE",
"33 540 LINE",
"132.16 540 LINE",
"132.16 197 LINE",
"33 197 LINE"
);
}
);
width = 535;
}
);
note = Ibreve;
unicode = 012C;
},
{
glyphname = Icircumflex;
layers = (
{
hints = (
{
horizontal = 1;
place = "{0, 197}";
type = Stem;
},
{
horizontal = 1;
place = "{540, 197}";
type = Stem;
},
{
horizontal = 1;
place = "{789, 163}";
type = Stem;
},
{
place = "{132.17, 270.66}";
type = Stem;
},
{
horizontal = 1;
place = "{865, 87}";
type = Stem;
}
);
layerId = "E328F9F0-3A13-48BC-903B-CF0D861777C2";
paths = (
{
closed = 1;
nodes = (
"4.5 789 LINE",
"191.5 789 LINE",
"267.5 865 LINE",
"343.5 789 LINE",
"530.5 789 LINE",
"407.5 952 LINE",
"127.5 952 LINE"
);
},
{
closed = 1;
nodes = (
"33 0 LINE",
"502 0 LINE",
"502 197 LINE",
"402.83 197 LINE",
"402.83 540 LINE",
"502 540 LINE",
"502 737 LINE",
"33 737 LINE",
"33 540 LINE",
"132.16 540 LINE",
"132.16 197 LINE",
"33 197 LINE"
);
}
);
width = 535;
}
);
leftKerningGroup = B;
note = Icircumflex;
rightKerningGroup = H;
unicode = 00CE;
},
{
glyphname = uni0208;
layers = (
{
hints = (
{
horizontal = 1;
place = "{0, 197}";
type = Stem;
},
{
horizontal = 1;
place = "{540, 197}";
type = Stem;
},
{
horizontal = 1;
place = "{789, 163}";
type = Stem;
},
{
place = "{132.17, 270.66}";
type = Stem;
}
);
layerId = "E328F9F0-3A13-48BC-903B-CF0D861777C2";
paths = (
{
closed = 1;
nodes = (
"42 789 LINE",
"202 789 LINE",
"94 952 LINE",
"-121 952 LINE"
);
},
{
closed = 1;
nodes = (
"318 789 LINE",
"479 789 LINE",
"370 952 LINE",
"155 952 LINE"
);
},
{
closed = 1;
nodes = (
"33 0 LINE",
"502 0 LINE",
"502 197 LINE",
"402.83 197 LINE",
"402.83 540 LINE",
"502 540 LINE",
"502 737 LINE",
"33 737 LINE",
"33 540 LINE",
"132.16 540 LINE",
"132.16 197 LINE",
"33 197 LINE"
);
}
);
width = 535;
}
);
note = uni0208;
unicode = 0208;
},
{
glyphname = Idieresis;
layers = (
{
hints = (
{
horizontal = 1;
place = "{0, 197}";
type = Stem;
},
{
horizontal = 1;
place = "{540, 197}";
type = Stem;
},
{
horizontal = 1;
place = "{789, 158}";
type = Stem;
},
{
place = "{-5.49, 239}";
type = Stem;
},
{
place = "{301.5, 239}";
type = Stem;
},
{
place = "{131.67, 270.66}";
type = Stem;
},
{
place = "{32.5, 201}";
type = Stem;
},
{
place = "{301.5, 200}";
type = Stem;
}
);
layerId = "E328F9F0-3A13-48BC-903B-CF0D861777C2";
paths = (
{
closed = 1;
nodes = (
"-5.5 789 LINE",
"233.5 789 LINE",
"233.5 947 LINE",
"-5.5 947 LINE"
);
},
{
closed = 1;
nodes = (
"301.5 789 LINE",
"540.5 789 LINE",
"540.5 947 LINE",
"301.5 947 LINE"
);
},
{
closed = 1;
nodes = (
"32.5 0 LINE",
"501.5 0 LINE",
"501.5 197 LINE",
"402.33 197 LINE",
"402.33 540 LINE",
"501.5 540 LINE",
"501.5 737 LINE",
"32.5 737 LINE",
"32.5 540 LINE",
"131.66 540 LINE",
"131.66 197 LINE",
"32.5 197 LINE"
);
}
);
width = 535;
}
);
leftKerningGroup = B;
note = Idieresis;
rightKerningGroup = H;
unicode = 00CF;
},
{
glyphname = Idotaccent;
layers = (
{
hints = (
{
horizontal = 1;
place = "{0, 197}";
type = Stem;
},
{
horizontal = 1;
place = "{540, 197}";
type = Stem;
},
{
horizontal = 1;
place = "{789, 158}";
type = Stem;
},
{
place = "{136, 263}";
type = Stem;
},
{
place = "{132.17, 270.66}";
type = Stem;
}
);
layerId = "E328F9F0-3A13-48BC-903B-CF0D861777C2";
paths = (
{
closed = 1;
nodes = (
"136 789 LINE",
"399 789 LINE",
"399 947 LINE",
"136 947 LINE"
);
},
{
closed = 1;
nodes = (
"33 0 LINE",
"502 0 LINE",
"502 197 LINE",
"402.83 197 LINE",
"402.83 540 LINE",
"502 540 LINE",
"502 737 LINE",
"33 737 LINE",
"33 540 LINE",
"132.16 540 LINE",
"132.16 197 LINE",
"33 197 LINE"
);
}
);
width = 535;
}
);
note = Idotaccent;
unicode = 0130;
},
{
glyphname = uni1ECA;
layers = (
{
hints = (
{
horizontal = 1;
place = "{-209, 158}";
type = Stem;
},
{
horizontal = 1;
place = "{0, 197}";
type = Stem;
},
{
horizontal = 1;
place = "{540, 197}";
type = Stem;
},
{
place = "{132.17, 270.66}";
type = Stem;
},
{
place = "{136, 263}";
type = Stem;
}
);
layerId = "E328F9F0-3A13-48BC-903B-CF0D861777C2";
paths = (
{
closed = 1;
nodes = (
"33 0 LINE",
"502 0 LINE",
"502 197 LINE",
"402.83 197 LINE",
"402.83 540 LINE",
"502 540 LINE",
"502 737 LINE",
"33 737 LINE",
"33 540 LINE",
"132.16 540 LINE",
"132.16 197 LINE",
"33 197 LINE"
);
},
{
closed = 1;
nodes = (
"136 -209 LINE",
"399 -209 LINE",
"399 -51 LINE",
"136 -51 LINE"
);
}
);
width = 535;
}
);
note = uni1ECA;
unicode = 1ECA;
},
{
glyphname = Igrave;
layers = (
{
hints = (
{
horizontal = 1;
place = "{0, 197}";
type = Stem;
},
{
horizontal = 1;
place = "{540, 197}";
type = Stem;
},
{
horizontal = 1;
place = "{789, 163}";
type = Stem;
},
{
place = "{132.17, 270.66}";
type = Stem;
}
);
layerId = "E328F9F0-3A13-48BC-903B-CF0D861777C2";
paths = (
{
closed = 1;
nodes = (
"185 789 LINE",
"357 789 LINE",
"248 952 LINE",
"23 952 LINE"
);
},
{
closed = 1;
nodes = (
"33 0 LINE",
"502 0 LINE",
"502 197 LINE",
"402.83 197 LINE",
"402.83 540 LINE",
"502 540 LINE",
"502 737 LINE",
"33 737 LINE",
"33 540 LINE",
"132.16 540 LINE",
"132.16 197 LINE",
"33 197 LINE"
);
}
);
width = 535;
}
);
leftKerningGroup = B;
note = Igrave;
rightKerningGroup = H;
unicode = 00CC;
},
{
glyphname = uni1EC8;
layers = (
{
hints = (
{
horizontal = 1;
place = "{0, 197}";
type = Stem;
},
{
horizontal = 1;
place = "{540, 197}";
type = Stem;
},
{
horizontal = 1;
place = "{789, 106}";
type = Stem;
},
{
horizontal = 1;
place = "{920, 107}";
type = Stem;
},
{
place = "{188.5, 158}";
type = Stem;
},
{
horizontal = 1;
place = "{828, 67}";
type = Stem;
},
{
place = "{286.5, 150}";
type = Stem;
},
{
place = "{109.5, 145}";
type = Stem;
},
{
horizontal = 1;
place = "{961, 66}";
type = Stem;
},
{
place = "{132.17, 270.66}";
type = Stem;
},
{
place = "{188.5, 313.5}";
type = Stem;
},
{
place = "{33, 313.5}";
type = Stem;
}
);
layerId = "E328F9F0-3A13-48BC-903B-CF0D861777C2";
paths = (
{
closed = 1;
nodes = (
"188.5 789 LINE",
"346.5 789 LINE",
"346.5 828 LINE",
"388.5 828 LINE",
"436.5 866 LINE",
"436.5 985 LINE",
"387.5 1027 LINE",
"164.5 1027 LINE",
"109.5 985 LINE",
"109.5 920 LINE",
"254.5 920 LINE",
"254.5 961 LINE",
"286.5 961 LINE",
"286.5 895 LINE",
"227.5 895 LINE",
"188.5 866 LINE"
);
},
{
closed = 1;
nodes = (
"33 0 LINE",
"502 0 LINE",
"502 197 LINE",
"402.83 197 LINE",
"402.83 540 LINE",
"502 540 LINE",
"502 737 LINE",
"33 737 LINE",
"33 540 LINE",
"132.16 540 LINE",
"132.16 197 LINE",
"33 197 LINE"
);
}
);
width = 535;
}
);
note = uni1EC8;
unicode = 1EC8;
},
{
glyphname = uni020A;
layers = (
{
hints = (
{
horizontal = 1;
place = "{0, 197}";
type = Stem;
},
{
horizontal = 1;
place = "{540, 197}";
type = Stem;
},
{
horizontal = 1;
place = "{789, 163}";
type = Stem;
},
{
place = "{26, 191}";
type = Stem;
},
{
horizontal = 1;
place = "{841, 111}";
type = Stem;
},
{
place = "{319, 191}";
type = Stem;
},
{
place = "{132.17, 270.66}";
type = Stem;
},
{
place = "{33, 184}";
type = Stem;
},
{
place = "{319, 183}";
type = Stem;
}
);
layerId = "E328F9F0-3A13-48BC-903B-CF0D861777C2";
paths = (
{
closed = 1;
nodes = (
"26 789 LINE",
"217 789 LINE",
"217 841 LINE",
"319 841 LINE",
"319 789 LINE",
"510 789 LINE",
"510 864 LINE",
"407 952 LINE",
"129 952 LINE",
"26 864 LINE"
);
},
{
closed = 1;
nodes = (
"33 0 LINE",
"502 0 LINE",
"502 197 LINE",
"402.83 197 LINE",
"402.83 540 LINE",
"502 540 LINE",
"502 737 LINE",
"33 737 LINE",
"33 540 LINE",
"132.16 540 LINE",
"132.16 197 LINE",
"33 197 LINE"
);
}
);
width = 535;
}
);
note = uni020A;
unicode = 020A;
},
{
glyphname = Imacron;
layers = (
{
hints = (
{
horizontal = 1;
place = "{0, 197}";
type = Stem;
},
{
horizontal = 1;
place = "{540, 197}";
type = Stem;
},
{
horizontal = 1;
place = "{789, 149}";
type = Stem;
},
{
place = "{-5.49, 546}";
type = Stem;
},
{
place = "{132.17, 270.66}";
type = Stem;
}
);
layerId = "E328F9F0-3A13-48BC-903B-CF0D861777C2";
paths = (
{
closed = 1;
nodes = (
"-5.5 789 LINE",
"540.5 789 LINE",
"540.5 938 LINE",
"-5.5 938 LINE"
);
},
{
closed = 1;
nodes = (
"33 0 LINE",
"502 0 LINE",
"502 197 LINE",
"402.83 197 LINE",
"402.83 540 LINE",
"502 540 LINE",
"502 737 LINE",
"33 737 LINE",
"33 540 LINE",
"132.16 540 LINE",
"132.16 197 LINE",
"33 197 LINE"
);
}
);
width = 535;
}
);
note = Imacron;
unicode = 012A;
},
{
glyphname = Iogonek;
layers = (
{
hints = (
{
horizontal = 1;
place = "{-191, 127}";
type = Stem;
},
{
horizontal = 1;
place = "{0, 197}";
type = Stem;
},
{
horizontal = 1;
place = "{540, 197}";
type = Stem;
},
{
place = "{337, 174}";
type = Stem;
},
{
place = "{337, 135}";
type = Stem;
},
{
place = "{337, 165}";
type = Stem;
},
{
place = "{132.17, 270.66}";
type = Stem;
}
);
layerId = "E328F9F0-3A13-48BC-903B-CF0D861777C2";
paths = (
{
closed = 1;
nodes = (
"420 -191 LINE",
"511 -191 LINE",
"511 -64 LINE",
"488 -64 LINE",
"472 -50 LINE",
"472 -26 LINE",
"502 0 LINE",
"502 197 LINE",
"402.83 197 LINE",
"402.83 540 LINE",
"502 540 LINE",
"502 737 LINE",
"33 737 LINE",
"33 540 LINE",
"132.16 540 LINE",
"132.16 197 LINE",
"33 197 LINE",
"33 0 LINE",
"382 0 LINE",
"337 -33 LINE",
"337 -122 LINE"
);
}
);
width = 535;
}
);
note = Iogonek;
unicode = 012E;
},
{
glyphname = Itilde;
layers = (
{
hints = (
{
horizontal = 1;
place = "{0, 197}";
type = Stem;
},
{
horizontal = 1;
place = "{540, 197}";
type = Stem;
},
{
horizontal = 1;
place = "{789, 161}";
type = Stem;
},
{
place = "{132.17, 270.66}";
type = Stem;
},
{
place = "{373, 147}";
type = Stem;
},
{
horizontal = 1;
place = "{861, 89}";
type = Stem;
},
{
horizontal = 1;
place = "{789, 113}";
type = Stem;
},
{
horizontal = 1;
place = "{795, 162}";
type = Stem;
},
{
place = "{14, 147}";
type = Stem;
},
{
horizontal = 1;
place = "{843, 114}";
type = Stem;
},
{
place = "{33, 128}";
type = Stem;
}
);
layerId = "E328F9F0-3A13-48BC-903B-CF0D861777C2";
paths = (
{
closed = 1;
nodes = (
"244 789 LINE",
"436 789 LINE",
"520 861 LINE",
"520 950 LINE",
"373 950 LINE",
"373 917 LINE",
"357 902 LINE",
"339 902 LINE",
"290 957 LINE",
"97 957 LINE",
"14 883 LINE",
"14 795 LINE",
"161 795 LINE",
"161 827 LINE",
"177 843 LINE",
"194 843 LINE"
);
},
{
closed = 1;
nodes = (
"33 0 LINE",
"502 0 LINE",
"502 197 LINE",
"402.83 197 LINE",
"402.83 540 LINE",
"502 540 LINE",
"502 737 LINE",
"33 737 LINE",
"33 540 LINE",
"132.16 540 LINE",
"132.16 197 LINE",
"33 197 LINE"
);
}
);
width = 535;
}
);
note = Itilde;
unicode = 0128;
},
{
glyphname = J;
layers = (
{
hints = (
{
horizontal = 1;
place = "{0, 153}";
type = Stem;
},
{
place = "{28, 285}";
type = Stem;
},
{
place = "{430, 284}";
type = Stem;
}
);
layerId = "E328F9F0-3A13-48BC-903B-CF0D861777C2";
paths = (
{
closed = 1;
nodes = (
"139 0 LINE",
"603 0 LINE",
"714 95 LINE",
"714 737 LINE",
"430 737 LINE",
"430 153 LINE",
"313 153 LINE",
"313 354 LINE",
"28 354 LINE",
"28 95 LINE"
);
}
);
width = 764;
}
);
leftKerningGroup = J;
note = J;
unicode = 004A;
},
{
glyphname = Jcircumflex;
layers = (
{
hints = (
{
horizontal = 1;
place = "{0, 153}";
type = Stem;
},
{
horizontal = 1;
place = "{789, 163}";
type = Stem;
},
{
place = "{28, 285}";
type = Stem;
},
{
place = "{430, 284}";
type = Stem;
},
{
horizontal = 1;
place = "{865, 87}";
type = Stem;
}
);
layerId = "E328F9F0-3A13-48BC-903B-CF0D861777C2";
paths = (
{
closed = 1;
nodes = (
"308 789 LINE",
"495 789 LINE",
"571 865 LINE",
"647 789 LINE",
"834 789 LINE",
"711 952 LINE",
"431 952 LINE"
);
},
{
closed = 1;
nodes = (
"139 0 LINE",
"603 0 LINE",
"714 95 LINE",
"714 737 LINE",
"430 737 LINE",
"430 153 LINE",
"313 153 LINE",
"313 354 LINE",
"28 354 LINE",
"28 95 LINE"
);
}
);
width = 764;
}
);
leftKerningGroup = J;
note = Jcircumflex;
unicode = 0134;
},
{
glyphname = K;
layers = (
{
hints = (
{
horizontal = 1;
place = "{0, 737}";
type = Stem;
},
{
place = "{50, 284.9}";
type = Stem;
}
);
layerId = "E328F9F0-3A13-48BC-903B-CF0D861777C2";
paths = (
{
closed = 1;
nodes = (
"50 0 LINE",
"334.89 0 LINE",
"334.89 314.94 LINE",
"500.49 0 LINE",
"820.49 0 LINE",
"577.76 397.44 LINE",
"827.49 736.99 LINE",
"503.49 736.99 LINE",
"334.89 476.19 LINE",
"334.89 736.99 LINE",
"50 736.99 LINE"
);
}
);
width = 828;
}
);
leftKerningGroup = B;
note = K;
rightKerningGroup = K;
unicode = 004B;
},
{
glyphname = uni0136;
layers = (
{
hints = (
{
horizontal = 1;
place = "{-234, 182}";
type = Stem;
},
{
place = "{50, 284.9}";
type = Stem;
}
);
layerId = "E328F9F0-3A13-48BC-903B-CF0D861777C2";
paths = (
{
closed = 1;
nodes = (
"50 0 LINE",
"334.89 0 LINE",
"334.89 314.94 LINE",
"500.49 0 LINE",
"820.49 0 LINE",
"577.76 397.44 LINE",
"827.49 736.99 LINE",
"503.49 736.99 LINE",
"334.89 476.19 LINE",
"334.89 736.99 LINE",
"50 736.99 LINE"
);
},
{
closed = 1;
nodes = (
"243.5 -234.01 LINE",
"383.5 -234.01 LINE",
"516.5 -52.01 LINE",
"294.5 -52.01 LINE"
);
}
);
width = 828;
}
);
leftKerningGroup = B;
note = uni0136;
rightKerningGroup = K;
unicode = 0136;
},
{
glyphname = L;
layers = (
{
hints = (
{
horizontal = 1;
place = "{0, 208}";
type = Stem;
},
{
place = "{50, 284.9}";
type = Stem;
}
);
layerId = "E328F9F0-3A13-48BC-903B-CF0D861777C2";
paths = (
{
closed = 1;
nodes = (
"50 0 LINE",
"629.5 0 LINE",
"629.5 208 LINE",
"334.9 208 LINE",
"334.9 737 LINE",
"50.01 737 LINE"
);
}
);
width = 663;
}
);
leftKerningGroup = B;
note = L;
rightKerningGroup = L;
unicode = 004C;
},
{
glyphname = uni01C7;
layers = (
{
hints = (
{
horizontal = 1;
place = "{0, 208}";
type = Stem;
},
{
place = "{50, 284.9}";
type = Stem;
},
{
place = "{690.5, 285}";
type = Stem;
},
{
place = "{1092.5, 284}";
type = Stem;
},
{
horizontal = 1;
place = "{0, 153}";
type = Stem;
}
);
layerId = "E328F9F0-3A13-48BC-903B-CF0D861777C2";
paths = (
{
closed = 1;
nodes = (
"50 0 LINE",
"629.5 0 LINE",
"629.5 208 LINE",
"334.9 208 LINE",
"334.9 737 LINE",
"50.01 737 LINE"
);
},
{
closed = 1;
nodes = (
"801.51 0 LINE",
"1265.51 0 LINE",
"1376.51 95 LINE",
"1376.51 737 LINE",
"1092.51 737 LINE",
"1092.51 153 LINE",
"975.51 153 LINE",
"975.51 354 LINE",
"690.51 354 LINE",
"690.51 95 LINE"
);
}
);
width = 1427;
}
);
note = uni01C7;
unicode = 01C7;
},
{
glyphname = Lacute;
layers = (
{
hints = (
{
horizontal = 1;
place = "{0, 208}";
type = Stem;
},
{
horizontal = 1;
place = "{789, 163}";
type = Stem;
},
{
place = "{50, 284.9}";
type = Stem;
}
);
layerId = "E328F9F0-3A13-48BC-903B-CF0D861777C2";
paths = (
{
closed = 1;
nodes = (
"115.5 789 LINE",
"287.5 789 LINE",
"449.5 952 LINE",
"224.5 952 LINE"
);
},
{
closed = 1;
nodes = (
"50 0 LINE",
"629.5 0 LINE",
"629.5 208 LINE",
"334.9 208 LINE",
"334.9 737 LINE",
"50.01 737 LINE"
);
}
);
width = 663;
}
);
leftKerningGroup = B;
note = Lacute;
rightKerningGroup = L;
unicode = 0139;
},
{
glyphname = Lcaron;
layers = (
{
hints = (
{
horizontal = 1;
place = "{0, 208}";
type = Stem;
},
{
horizontal = 1;
place = "{555, 182}";
type = Stem;
},
{
place = "{50, 284.9}";
type = Stem;
}
);
layerId = "E328F9F0-3A13-48BC-903B-CF0D861777C2";
paths = (
{
closed = 1;
nodes = (
"50 0 LINE",
"629.5 0 LINE",
"629.5 208 LINE",
"334.9 208 LINE",
"334.9 737 LINE",
"50.01 737 LINE"
);
},
{
closed = 1;
nodes = (
"368.51 555 LINE",
"508.51 555 LINE",
"641.51 737 LINE",
"419.51 737 LINE"
);
}
);
width = 663;
}
);
note = Lcaron;
rightKerningGroup = L;
unicode = 013D;
},
{
glyphname = uni013B;
layers = (
{
hints = (
{
horizontal = 1;
place = "{-234, 182}";
type = Stem;
},
{
horizontal = 1;
place = "{0, 208}";
type = Stem;
},
{
place = "{50, 284.9}";
type = Stem;
}
);
layerId = "E328F9F0-3A13-48BC-903B-CF0D861777C2";
paths = (
{
closed = 1;
nodes = (
"50 0 LINE",
"629.5 0 LINE",
"629.5 208 LINE",
"334.9 208 LINE",
"334.9 737 LINE",
"50.01 737 LINE"
);
},
{
closed = 1;
nodes = (
"189.51 -234 LINE",
"329.51 -234 LINE",
"462.51 -52 LINE",
"240.51 -52 LINE"
);
}
);
width = 663;
}
);
note = uni013B;
rightKerningGroup = L;
unicode = 013B;
},
{
glyphname = Ldot;
layers = (
{
hints = (
{
horizontal = 1;
place = "{0, 208}";
type = Stem;
},
{
horizontal = 1;
place = "{331.13, 187}";
type = Stem;
},
{
place = "{50, 284.9}";
type = Stem;
},
{
place = "{402.5, 218}";
type = Stem;
}
);
layerId = "E328F9F0-3A13-48BC-903B-CF0D861777C2";
paths = (
{
closed = 1;
nodes = (
"50 0 LINE",
"629.5 0 LINE",
"629.5 208 LINE",
"334.9 208 LINE",
"334.9 737 LINE",
"50.01 737 LINE"
);
},
{
closed = 1;
nodes = (
"402.51 331.13 LINE",
"620.51 331.13 LINE",
"620.51 518.13 LINE",
"402.51 518.13 LINE"
);
}
);
width = 663;
}
);
note = Ldot;
unicode = 013F;
},
{
glyphname = uni01C8;
layers = (
{
hints = (
{
horizontal = 1;
place = "{-187, 120}";
type = Stem;
},
{
horizontal = 1;
place = "{0, 208}";
type = Stem;
},
{
horizontal = 1;
place = "{575, 158}";
type = Stem;
},
{
place = "{50, 284.9}";
type = Stem;
},
{
place = "{619, 10.5}";
type = Stem;
},
{
place = "{709, 263.5}";
type = Stem;
},
{
place = "{709.5, 263}";
type = Stem;
}
);
layerId = "E328F9F0-3A13-48BC-903B-CF0D861777C2";
paths = (
{
closed = 1;
nodes = (
"50 0 LINE",
"629.5 0 LINE",
"629.5 208 LINE",
"334.9 208 LINE",
"334.9 737 LINE",
"50.01 737 LINE"
);
},
{
closed = 1;
nodes = (
"709.51 575 LINE",
"972.51 575 LINE",
"972.51 733 LINE",
"709.51 733 LINE"
);
},
{
closed = 1;
nodes = (
"619.01 -187 LINE",
"862.01 -187 LINE",
"973.01 -92 LINE",
"972.01 523 LINE",
"709.01 523 LINE",
"709.01 -67 LINE",
"619.01 -67 LINE"
);
}
);
width = 1017;
}
);
note = uni01C8;
unicode = 01C8;
},
{
glyphname = Lslash;
layers = (
{
hints = (
{
horizontal = 1;
place = "{0, 208}";
type = Stem;
},
{
place = "{50, 284.9}";
type = Stem;
}
);
layerId = "E328F9F0-3A13-48BC-903B-CF0D861777C2";
paths = (
{
closed = 1;
nodes = (
"50 0 LINE",
"629.5 0 LINE",
"629.5 208 LINE",
"334.9 208 LINE",
"334.9 350.08 LINE",
"490 417.99 LINE",
"490 574.99 LINE",
"334.9 507.08 LINE",
"334.9 736.99 LINE",
"50.01 736.99 LINE",
"50.01 382.33 LINE",
"-16.99 353 LINE",
"-16.99 196 LINE",
"50.01 225.33 LINE"
);
}
);
width = 663;
}
);
note = Lslash;
rightKerningGroup = L;
unicode = 0141;
},
{
glyphname = M;
layers = (
{
hints = (
{
horizontal = 1;
place = "{0, 737}";
type = Stem;
},
{
place = "{50, 256.41}";
type = Stem;
},
{
place = "{621, 256.41}";
type = Stem;
}
);
layerId = "E328F9F0-3A13-48BC-903B-CF0D861777C2";
paths = (
{
closed = 1;
nodes = (
"50 0 LINE",
"306.4 0 LINE",
"306.4 382 LINE",
"409.54 46 LINE",
"518.54 46 LINE",
"620.99 380.2 LINE",
"620.99 0 LINE",
"877.39 0 LINE",
"877.39 737 LINE",
"601.54 737 LINE",
"463.54 378 LINE",
"325.54 737 LINE",
"50 737 LINE"
);
}
);
width = 927;
}
);
note = M;
unicode = 004D;
},
{
glyphname = N;
layers = (
{
hints = (
{
horizontal = 1;
place = "{0, 737}";
type = Stem;
},
{
place = "{50, 256.48}";
type = Stem;
},
{
place = "{469, 256.41}";
type = Stem;
}
);
layerId = "E328F9F0-3A13-48BC-903B-CF0D861777C2";
paths = (
{
closed = 1;
nodes = (
"50 0 LINE",
"306.4 0 LINE",
"306.54 376 LINE",
"468.54 0 LINE",
"725.39 0 LINE",
"725.39 737 LINE",
"468.99 737 LINE",
"468.99 377.23 LINE",
"307.54 737 LINE",
"50 737 LINE"
);
}
);
width = 775;
}
);
leftKerningGroup = B;
note = N;
rightKerningGroup = H;
unicode = 004E;
},
{
glyphname = uni01CA;
layers = (
{
hints = (
{
horizontal = 1;
place = "{0, 153}";
type = Stem;
},
{
place = "{50, 256.48}";
type = Stem;
},
{
place = "{469, 256.41}";
type = Stem;
},
{
place = "{802, 285}";
type = Stem;
},
{
place = "{1204, 284}";
type = Stem;
}
);
layerId = "E328F9F0-3A13-48BC-903B-CF0D861777C2";
paths = (
{
closed = 1;
nodes = (
"50 0 LINE",
"306.4 0 LINE",
"306.54 376 LINE",
"468.54 0 LINE",
"725.39 0 LINE",
"725.39 737 LINE",
"468.99 737 LINE",
"468.99 377.23 LINE",
"307.54 737 LINE",
"50 737 LINE"
);
},
{
closed = 1;
nodes = (
"913 0 LINE",
"1377 0 LINE",
"1488 95 LINE",
"1488 737 LINE",
"1204 737 LINE",
"1204 153 LINE",
"1087 153 LINE",
"1087 354 LINE",
"802 354 LINE",
"802 95 LINE"
);
}
);
width = 1538;
}
);
note = uni01CA;
unicode = 01CA;
},
{
glyphname = Nacute;
layers = (
{
hints = (
{
horizontal = 1;
place = "{789, 163}";
type = Stem;
},
{
place = "{50, 256.48}";
type = Stem;
},
{
place = "{469, 256.41}";
type = Stem;
}
);
layerId = "E328F9F0-3A13-48BC-903B-CF0D861777C2";
paths = (
{
closed = 1;
nodes = (
"300.54 789 LINE",
"472.54 789 LINE",
"634.54 952 LINE",
"409.54 952 LINE"
);
},
{
closed = 1;
nodes = (
"50 0 LINE",
"306.4 0 LINE",
"306.54 376 LINE",
"468.54 0 LINE",
"725.39 0 LINE",
"725.39 737 LINE",
"468.99 737 LINE",
"468.99 377.23 LINE",
"307.54 737 LINE",
"50 737 LINE"
);
}
);
width = 775;
}
);
note = Nacute;
unicode = 0143;
},
{
glyphname = Ncaron;
layers = (
{
hints = (
{
horizontal = 1;
place = "{789, 163}";
type = Stem;
},
{
place = "{50, 256.41}";
type = Stem;
},
{
place = "{469, 256.41}";
type = Stem;
}
);
layerId = "E328F9F0-3A13-48BC-903B-CF0D861777C2";
paths = (
{
closed = 1;
nodes = (
"248.54 789 LINE",
"528.54 789 LINE",
"651.54 952 LINE",
"464.54 952 LINE",
"388.54 876 LINE",
"312.54 952 LINE",
"125.54 952 LINE"
);
},
{
closed = 1;
nodes = (
"50 0 LINE",
"306.4 0 LINE",
"306.4 376 LINE",
"468.54 0 LINE",
"725.39 0 LINE",
"725.39 737 LINE",
"468.99 737 LINE",
"468.99 377.23 LINE",
"307.54 737 LINE",
"50 737 LINE"
);
}
);
width = 775;
}
);
note = Ncaron;
unicode = 0147;
},
{
glyphname = uni0145;
layers = (
{
hints = (
{
horizontal = 1;
place = "{-234, 182}";
type = Stem;
},
{
place = "{50, 256.41}";
type = Stem;
},
{
place = "{469, 256.41}";
type = Stem;
}
);
layerId = "E328F9F0-3A13-48BC-903B-CF0D861777C2";
paths = (
{
closed = 1;
nodes = (
"50 0 LINE",
"306.4 0 LINE",
"306.4 376 LINE",
"307.54 376 LINE",
"468.54 0 LINE",
"725.39 0 LINE",
"725.39 737 LINE",
"468.99 737 LINE",
"468.99 377.23 LINE",
"307.54 737 LINE",
"50 737 LINE"
);
},
{
closed = 1;
nodes = (
"227.54 -234 LINE",
"367.54 -234 LINE",
"500.54 -52 LINE",
"278.54 -52 LINE"
);
}
);
width = 775;
}
);
note = uni0145;
unicode = 0145;
},
{
glyphname = Eng;
layers = (
{
hints = (
{
horizontal = 1;
place = "{-187, 120}";
type = Stem;
},
{
place = "{50, 256.41}";
type = Stem;
},
{
place = "{469, 256.41}";
type = Stem;
},
{
place = "{468.77, 256.63}";
type = Stem;
}
);
layerId = "E328F9F0-3A13-48BC-903B-CF0D861777C2";
paths = (
{
closed = 1;
nodes = (
"379 -187 LINE",
"614.4 -187 LINE",
"725.4 -92 LINE",
"725.4 737 LINE",
"469 737 LINE",
"469 377.23 LINE",
"307.55 737 LINE",
"50.01 737 LINE",
"50.01 0 LINE",
"306.41 0 LINE",
"306.41 376 LINE",
"307.55 376 LINE",
"468.55 0 LINE",
"469 -57 LINE",
"461 -67 LINE",
"379 -67 LINE"
);
}
);
width = 775;
}
);
note = Eng;
unicode = 014A;
},
{
glyphname = uni01CB;
layers = (
{
hints = (
{
horizontal = 1;
place = "{-187, 120}";
type = Stem;
},
{
horizontal = 1;
place = "{575, 158}";
type = Stem;
},
{
place = "{50, 256.41}";
type = Stem;
},
{
place = "{469, 256.41}";
type = Stem;
},
{
place = "{821.04, 263.5}";
type = Stem;
},
{
horizontal = 1;
place = "{575, 162}";
type = Stem;
},
{
place = "{821.54, 263}";
type = Stem;
}
);
layerId = "E328F9F0-3A13-48BC-903B-CF0D861777C2";
paths = (
{
closed = 1;
nodes = (
"50 0 LINE",
"306.4 0 LINE",
"306.4 376 LINE",
"468.54 0 LINE",
"725.39 0 LINE",
"725.39 737 LINE",
"468.99 737 LINE",
"468.99 377.23 LINE",
"307.54 737 LINE",
"50 737 LINE"
);
},
{
closed = 1;
nodes = (
"821.53 575 LINE",
"1084.53 575 LINE",
"1084.53 733 LINE",
"821.53 733 LINE"
);
},
{
closed = 1;
nodes = (
"731.03 -187 LINE",
"974.03 -187 LINE",
"1085.03 -92 LINE",
"1084.03 523 LINE",
"821.03 523 LINE",
"821.03 -67 LINE",
"731.03 -67 LINE"
);
}
);
width = 1129;
}
);
note = uni01CB;
unicode = 01CB;
},
{
glyphname = Ntilde;
layers = (
{
hints = (
{
horizontal = 1;
place = "{789, 161}";
type = Stem;
},
{
place = "{50, 256.41}";
type = Stem;
},
{
place = "{469, 256.41}";
type = Stem;
},
{
place = "{495.55, 147}";
type = Stem;
},
{
horizontal = 1;
place = "{861, 89}";
type = Stem;
},
{
horizontal = 1;
place = "{789, 113}";
type = Stem;
},
{
horizontal = 1;
place = "{795, 162}";
type = Stem;
},
{
place = "{136.55, 147}";
type = Stem;
},
{
place = "{50, 233.55}";
type = Stem;
},
{
horizontal = 1;
place = "{843, 114}";
type = Stem;
}
);
layerId = "E328F9F0-3A13-48BC-903B-CF0D861777C2";
paths = (
{
closed = 1;
nodes = (
"366.54 789 LINE",
"558.54 789 LINE",
"642.54 861 LINE",
"642.54 950 LINE",
"495.54 950 LINE",
"495.54 917 LINE",
"479.54 902 LINE",
"461.54 902 LINE",
"412.54 957 LINE",
"219.54 957 LINE",
"136.54 883 LINE",
"136.54 795 LINE",
"283.54 795 LINE",
"283.54 827 LINE",
"299.54 843 LINE",
"316.54 843 LINE"
);
},
{
closed = 1;
nodes = (
"50 0 LINE",
"306.4 0 LINE",
"306.4 376 LINE",
"468.54 0 LINE",
"725.39 0 LINE",
"725.39 737 LINE",
"468.99 737 LINE",
"468.99 377.23 LINE",
"307.54 737 LINE",
"50 737 LINE"
);
}
);
width = 775;
}
);
leftKerningGroup = B;
note = Ntilde;
rightKerningGroup = H;
unicode = 00D1;
},
{
glyphname = O;
layers = (
{
hints = (
{
horizontal = 1;
place = "{0, 153}";
type = Stem;
},
{
horizontal = 1;
place = "{584, 153}";
type = Stem;
},
{
place = "{39, 285}";
type = Stem;
},
{
place = "{469, 285}";
type = Stem;
}
);
layerId = "E328F9F0-3A13-48BC-903B-CF0D861777C2";
paths = (
{
closed = 1;
nodes = (
"150 0 LINE",
"643 0 LINE",
"754 95 LINE",
"754 642 LINE",
"643 737 LINE",
"150 737 LINE",
"39 642 LINE",
"39 95 LINE"
);
},
{
closed = 1;
nodes = (
"324 153 LINE",
"324 584 LINE",
"469 584 LINE",
"469 153 LINE"
);
}
);
width = 793;
}
);
note = O;
rightKerningGroup = O;
unicode = 004F;
},
{
glyphname = Oacute;
layers = (
{
hints = (
{
horizontal = 1;
place = "{0, 153}";
type = Stem;
},
{
horizontal = 1;
place = "{584, 153}";
type = Stem;
},
{
horizontal = 1;
place = "{789, 163}";
type = Stem;
},
{
place = "{39, 285}";
type = Stem;
},
{
place = "{469, 285}";
type = Stem;
}
);
layerId = "E328F9F0-3A13-48BC-903B-CF0D861777C2";
paths = (
{
closed = 1;
nodes = (
"309 789 LINE",
"481 789 LINE",
"643 952 LINE",
"418 952 LINE"
);
},
{
closed = 1;
nodes = (
"150 0 LINE",
"643 0 LINE",
"754 95 LINE",
"754 642 LINE",
"643 737 LINE",
"150 737 LINE",
"39 642 LINE",
"39 95 LINE"
);
},
{
closed = 1;
nodes = (
"324 153 LINE",
"324 584 LINE",
"469 584 LINE",
"469 153 LINE"
);
}
);
width = 793;
}
);
note = Oacute;
rightKerningGroup = O;
unicode = 00D3;
},
{
glyphname = Obreve;
layers = (
{
hints = (
{
horizontal = 1;
place = "{0, 153}";
type = Stem;
},
{
horizontal = 1;
place = "{584, 153}";
type = Stem;
},
{
horizontal = 1;
place = "{789, 163}";
type = Stem;
},
{
place = "{39, 285}";
type = Stem;
},
{
place = "{469, 285}";
type = Stem;
},
{
horizontal = 1;
place = "{877, 75}";
type = Stem;
},
{
place = "{448, 191}";
type = Stem;
},
{
horizontal = 1;
place = "{789, 111}";
type = Stem;
},
{
place = "{155, 191}";
type = Stem;
}
);
layerId = "E328F9F0-3A13-48BC-903B-CF0D861777C2";
paths = (
{
closed = 1;
nodes = (
"258 789 LINE",
"536 789 LINE",
"639 877 LINE",
"639 952 LINE",
"448 952 LINE",
"448 900 LINE",
"346 900 LINE",
"346 952 LINE",
"155 952 LINE",
"155 877 LINE"
);
},
{
closed = 1;
nodes = (
"150 0 LINE",
"643 0 LINE",
"754 95 LINE",
"754 642 LINE",
"643 737 LINE",
"150 737 LINE",
"39 642 LINE",
"39 95 LINE"
);
},
{
closed = 1;
nodes = (
"324 153 LINE",
"324 584 LINE",
"469 584 LINE",
"469 153 LINE"
);
}
);
width = 793;
}
);
note = Obreve;
unicode = 014E;
},
{
glyphname = Ocircumflex;
layers = (
{
hints = (
{
horizontal = 1;
place = "{0, 153}";
type = Stem;
},
{
horizontal = 1;
place = "{584, 153}";
type = Stem;
},
{
horizontal = 1;
place = "{789, 163}";
type = Stem;
},
{
place = "{39, 285}";
type = Stem;
},
{
place = "{469, 285}";
type = Stem;
},
{
horizontal = 1;
place = "{865, 87}";
type = Stem;
}
);
layerId = "E328F9F0-3A13-48BC-903B-CF0D861777C2";
paths = (
{
closed = 1;
nodes = (
"134 789 LINE",
"321 789 LINE",
"397 865 LINE",
"473 789 LINE",
"660 789 LINE",
"537 952 LINE",
"257 952 LINE"
);
},
{
closed = 1;
nodes = (
"150 0 LINE",
"643 0 LINE",
"754 95 LINE",
"754 642 LINE",
"643 737 LINE",
"150 737 LINE",
"39 642 LINE",
"39 95 LINE"
);
},
{
closed = 1;
nodes = (
"324 153 LINE",
"324 584 LINE",
"469 584 LINE",
"469 153 LINE"
);
}
);
width = 793;
}
);
note = Ocircumflex;
rightKerningGroup = O;
unicode = 00D4;
},
{
glyphname = uni1ED0;
layers = (
{
hints = (
{
horizontal = 1;
place = "{0, 153}";
type = Stem;
},
{
horizontal = 1;
place = "{584, 153}";
type = Stem;
},
{
horizontal = 1;
place = "{876.53, 163}";
type = Stem;
},
{
place = "{39, 285}";
type = Stem;
},
{
place = "{469, 285}";
type = Stem;
},
{
horizontal = 1;
place = "{789, 163}";
type = Stem;
},
{
horizontal = 1;
place = "{865, 87}";
type = Stem;
}
);
layerId = "E328F9F0-3A13-48BC-903B-CF0D861777C2";
paths = (
{
closed = 1;
nodes = (
"642 876.52 LINE",
"814 876.52 LINE",
"976 1039.52 LINE",
"751 1039.52 LINE"
);
},
{
closed = 1;
nodes = (
"134 789 LINE",
"321 789 LINE",
"397 865 LINE",
"473 789 LINE",
"660 789 LINE",
"537 952 LINE",
"257 952 LINE"
);
},
{
closed = 1;
nodes = (
"150 0 LINE",
"643 0 LINE",
"754 95 LINE",
"754 642 LINE",
"643 737 LINE",
"150 737 LINE",
"39 642 LINE",
"39 95 LINE"
);
},
{
closed = 1;
nodes = (
"324 153 LINE",
"324 584 LINE",
"469 584 LINE",
"469 153 LINE"
);
}
);
width = 793;
}
);
note = uni1ED0;
unicode = 1ED0;
},
{
glyphname = uni1ED8;
layers = (
{
hints = (
{
horizontal = 1;
place = "{-209, 158}";
type = Stem;
},
{
horizontal = 1;
place = "{0, 153}";
type = Stem;
},
{
horizontal = 1;
place = "{584, 153}";
type = Stem;
},
{
horizontal = 1;
place = "{789, 163}";
type = Stem;
},
{
place = "{39, 285}";
type = Stem;
},
{
place = "{469, 285}";
type = Stem;
},
{
horizontal = 1;
place = "{865, 87}";
type = Stem;
},
{
place = "{265.5, 263}";
type = Stem;
}
);
layerId = "E328F9F0-3A13-48BC-903B-CF0D861777C2";
paths = (
{
closed = 1;
nodes = (
"134 789 LINE",
"321 789 LINE",
"397 865 LINE",
"473 789 LINE",
"660 789 LINE",
"537 952 LINE",
"257 952 LINE"
);
},
{
closed = 1;
nodes = (
"150 0 LINE",
"643 0 LINE",
"754 95 LINE",
"754 642 LINE",
"643 737 LINE",
"150 737 LINE",
"39 642 LINE",
"39 95 LINE"
);
},
{
closed = 1;
nodes = (
"324 153 LINE",
"324 584 LINE",
"469 584 LINE",
"469 153 LINE"
);
},
{
closed = 1;
nodes = (
"265.5 -209 LINE",
"528.5 -209 LINE",
"528.5 -51 LINE",
"265.5 -51 LINE"
);
}
);
width = 793;
}
);
note = uni1ED8;
unicode = 1ED8;
},
{
glyphname = uni1ED2;
layers = (
{
hints = (
{
horizontal = 1;
place = "{0, 153}";
type = Stem;
},
{
horizontal = 1;
place = "{584, 153}";
type = Stem;
},
{
horizontal = 1;
place = "{876.53, 163}";
type = Stem;
},
{
place = "{39, 285}";
type = Stem;
},
{
place = "{469, 285}";
type = Stem;
},
{
horizontal = 1;
place = "{789, 163}";
type = Stem;
},
{
horizontal = 1;
place = "{865, 87}";
type = Stem;
}
);
layerId = "E328F9F0-3A13-48BC-903B-CF0D861777C2";
paths = (
{
closed = 1;
nodes = (
"-21 876.52 LINE",
"151 876.52 LINE",
"42 1039.52 LINE",
"-183 1039.52 LINE"
);
},
{
closed = 1;
nodes = (
"134 789 LINE",
"321 789 LINE",
"397 865 LINE",
"473 789 LINE",
"660 789 LINE",
"537 952 LINE",
"257 952 LINE"
);
},
{
closed = 1;
nodes = (
"150 0 LINE",
"643 0 LINE",
"754 95 LINE",
"754 642 LINE",
"643 737 LINE",
"150 737 LINE",
"39 642 LINE",
"39 95 LINE"
);
},
{
closed = 1;
nodes = (
"324 153 LINE",
"324 584 LINE",
"469 584 LINE",
"469 153 LINE"
);
}
);
width = 793;
}
);
note = uni1ED2;
unicode = 1ED2;
},
{
glyphname = uni1ED4;
layers = (
{
hints = (
{
horizontal = 1;
place = "{0, 153}";
type = Stem;
},
{
horizontal = 1;
place = "{584, 153}";
type = Stem;
},
{
horizontal = 1;
place = "{876.65, 106}";
type = Stem;
},
{
horizontal = 1;
place = "{1007.65, 107}";
type = Stem;
},
{
place = "{39, 285}";
type = Stem;
},
{
place = "{642, 158}";
type = Stem;
},
{
horizontal = 1;
place = "{915.65, 67}";
type = Stem;
},
{
place = "{740, 150}";
type = Stem;
},
{
horizontal = 1;
place = "{789, 163}";
type = Stem;
},
{
place = "{563, 145}";
type = Stem;
},
{
horizontal = 1;
place = "{1048.65, 66}";
type = Stem;
},
{
place = "{469, 285}";
type = Stem;
},
{
horizontal = 1;
place = "{865, 87}";
type = Stem;
}
);
layerId = "E328F9F0-3A13-48BC-903B-CF0D861777C2";
paths = (
{
closed = 1;
nodes = (
"642 876.64 LINE",
"800 876.64 LINE",
"800 915.64 LINE",
"842 915.64 LINE",
"890 953.64 LINE",
"890 1072.64 LINE",
"841 1114.64 LINE",
"618 1114.64 LINE",
"563 1072.64 LINE",
"563 1007.64 LINE",
"708 1007.64 LINE",
"708 1048.64 LINE",
"740 1048.64 LINE",
"740 982.64 LINE",
"681 982.64 LINE",
"642 953.64 LINE"
);
},
{
closed = 1;
nodes = (
"134 789 LINE",
"321 789 LINE",
"397 865 LINE",
"473 789 LINE",
"660 789 LINE",
"537 952 LINE",
"257 952 LINE"
);
},
{
closed = 1;
nodes = (
"150 0 LINE",
"643 0 LINE",
"754 95 LINE",
"754 642 LINE",
"643 737 LINE",
"150 737 LINE",
"39 642 LINE",
"39 95 LINE"
);
},
{
closed = 1;
nodes = (
"324 153 LINE",
"324 584 LINE",
"469 584 LINE",
"469 153 LINE"
);
}
);
width = 793;
}
);
note = uni1ED4;
unicode = 1ED4;
},
{
glyphname = uni1ED6;
layers = (
{
hints = (
{
horizontal = 1;
place = "{0, 153}";
type = Stem;
},
{
horizontal = 1;
place = "{584, 153}";
type = Stem;
},
{
horizontal = 1;
place = "{789, 163}";
type = Stem;
},
{
horizontal = 1;
place = "{983, 161}";
type = Stem;
},
{
place = "{39, 285}";
type = Stem;
},
{
place = "{469, 285}";
type = Stem;
},
{
place = "{508, 147}";
type = Stem;
},
{
horizontal = 1;
place = "{1055, 89}";
type = Stem;
},
{
horizontal = 1;
place = "{983, 113}";
type = Stem;
},
{
horizontal = 1;
place = "{989, 162}";
type = Stem;
},
{
place = "{149, 147}";
type = Stem;
},
{
horizontal = 1;
place = "{1037, 114}";
type = Stem;
},
{
horizontal = 1;
place = "{865, 87}";
type = Stem;
}
);
layerId = "E328F9F0-3A13-48BC-903B-CF0D861777C2";
paths = (
{
closed = 1;
nodes = (
"379 983 LINE",
"571 983 LINE",
"655 1055 LINE",
"655 1144 LINE",
"508 1144 LINE",
"508 1111 LINE",
"492 1096 LINE",
"474 1096 LINE",
"425 1151 LINE",
"232 1151 LINE",
"149 1077 LINE",
"149 989 LINE",
"296 989 LINE",
"296 1021 LINE",
"312 1037 LINE",
"329 1037 LINE"
);
},
{
closed = 1;
nodes = (
"134 789 LINE",
"321 789 LINE",
"397 865 LINE",
"473 789 LINE",
"660 789 LINE",
"537 952 LINE",
"257 952 LINE"
);
},
{
closed = 1;
nodes = (
"150 0 LINE",
"643 0 LINE",
"754 95 LINE",
"754 642 LINE",
"643 737 LINE",
"150 737 LINE",
"39 642 LINE",
"39 95 LINE"
);
},
{
closed = 1;
nodes = (
"324 153 LINE",
"324 584 LINE",
"469 584 LINE",
"469 153 LINE"
);
}
);
width = 793;
}
);
note = uni1ED6;
unicode = 1ED6;
},
{
glyphname = uni020C;
layers = (
{
hints = (
{
horizontal = 1;
place = "{0, 153}";
type = Stem;
},
{
horizontal = 1;
place = "{584, 153}";
type = Stem;
},
{
horizontal = 1;
place = "{789, 163}";
type = Stem;
},
{
place = "{39, 285}";
type = Stem;
},
{
place = "{469, 285}";
type = Stem;
}
);
layerId = "E328F9F0-3A13-48BC-903B-CF0D861777C2";
paths = (
{
closed = 1;
nodes = (
"170 789 LINE",
"330 789 LINE",
"222 952 LINE",
"7 952 LINE"
);
},
{
closed = 1;
nodes = (
"446 789 LINE",
"607 789 LINE",
"498 952 LINE",
"283 952 LINE"
);
},
{
closed = 1;
nodes = (
"150 0 LINE",
"643 0 LINE",
"754 95 LINE",
"754 642 LINE",
"643 737 LINE",
"150 737 LINE",
"39 642 LINE",
"39 95 LINE"
);
},
{
closed = 1;
nodes = (
"324 153 LINE",
"324 584 LINE",
"469 584 LINE",
"469 153 LINE"
);
}
);
width = 793;
}
);
note = uni020C;
unicode = 020C;
},
{
glyphname = Odieresis;
layers = (
{
hints = (
{
horizontal = 1;
place = "{0, 153}";
type = Stem;
},
{
horizontal = 1;
place = "{584, 153}";
type = Stem;
},
{
horizontal = 1;
place = "{789, 158}";
type = Stem;
},
{
place = "{124, 239}";
type = Stem;
},
{
place = "{431, 239}";
type = Stem;
},
{
place = "{39, 285}";
type = Stem;
},
{
place = "{469, 285}";
type = Stem;
}
);
layerId = "E328F9F0-3A13-48BC-903B-CF0D861777C2";
paths = (
{
closed = 1;
nodes = (
"124 789 LINE",
"363 789 LINE",
"363 947 LINE",
"124 947 LINE"
);
},
{
closed = 1;
nodes = (
"431 789 LINE",
"670 789 LINE",
"670 947 LINE",
"431 947 LINE"
);
},
{
closed = 1;
nodes = (
"150 0 LINE",
"643 0 LINE",
"754 95 LINE",
"754 642 LINE",
"643 737 LINE",
"150 737 LINE",
"39 642 LINE",
"39 95 LINE"
);
},
{
closed = 1;
nodes = (
"324 153 LINE",
"324 584 LINE",
"469 584 LINE",
"469 153 LINE"
);
}
);
width = 793;
}
);
note = Odieresis;
rightKerningGroup = O;
unicode = 00D6;
},
{
glyphname = uni022A;
layers = (
{
hints = (
{
horizontal = 1;
place = "{0, 153}";
type = Stem;
},
{
horizontal = 1;
place = "{584, 153}";
type = Stem;
},
{
horizontal = 1;
place = "{789, 158}";
type = Stem;
},
{
horizontal = 1;
place = "{979.23, 149}";
type = Stem;
},
{
place = "{123.5, 239.5}";
type = Stem;
},
{
place = "{431, 238.5}";
type = Stem;
},
{
place = "{124, 239}";
type = Stem;
},
{
place = "{431, 239}";
type = Stem;
},
{
place = "{39, 285}";
type = Stem;
},
{
place = "{469, 285}";
type = Stem;
}
);
layerId = "E328F9F0-3A13-48BC-903B-CF0D861777C2";
paths = (
{
closed = 1;
nodes = (
"123.5 979.22 LINE",
"669.5 979.22 LINE",
"669.5 1128.22 LINE",
"123.5 1128.22 LINE"
);
},
{
closed = 1;
nodes = (
"124 789 LINE",
"363 789 LINE",
"363 947 LINE",
"124 947 LINE"
);
},
{
closed = 1;
nodes = (
"431 789 LINE",
"670 789 LINE",
"670 947 LINE",
"431 947 LINE"
);
},
{
closed = 1;
nodes = (
"150 0 LINE",
"643 0 LINE",
"754 95 LINE",
"754 642 LINE",
"643 737 LINE",
"150 737 LINE",
"39 642 LINE",
"39 95 LINE"
);
},
{
closed = 1;
nodes = (
"324 153 LINE",
"324 584 LINE",
"469 584 LINE",
"469 153 LINE"
);
}
);
width = 793;
}
);
note = uni022A;
unicode = 022A;
},
{
glyphname = uni0230;
layers = (
{
hints = (
{
horizontal = 1;
place = "{0, 153}";
type = Stem;
},
{
horizontal = 1;
place = "{584, 153}";
type = Stem;
},
{
horizontal = 1;
place = "{789, 158}";
type = Stem;
},
{
horizontal = 1;
place = "{979.19, 149}";
type = Stem;
},
{
place = "{123.5, 546}";
type = Stem;
},
{
place = "{265.5, 263}";
type = Stem;
},
{
place = "{39, 285}";
type = Stem;
},
{
place = "{469, 285}";
type = Stem;
}
);
layerId = "E328F9F0-3A13-48BC-903B-CF0D861777C2";
paths = (
{
closed = 1;
nodes = (
"123.5 979.18 LINE",
"669.5 979.18 LINE",
"669.5 1128.18 LINE",
"123.5 1128.18 LINE"
);
},
{
closed = 1;
nodes = (
"265.5 789 LINE",
"528.5 789 LINE",
"528.5 947 LINE",
"265.5 947 LINE"
);
},
{
closed = 1;
nodes = (
"150 0 LINE",
"643 0 LINE",
"754 95 LINE",
"754 642 LINE",
"643 737 LINE",
"150 737 LINE",
"39 642 LINE",
"39 95 LINE"
);
},
{
closed = 1;
nodes = (
"324 153 LINE",
"324 584 LINE",
"469 584 LINE",
"469 153 LINE"
);
}
);
width = 793;
}
);
note = uni0230;
unicode = 0230;
},
{
glyphname = uni1ECC;
layers = (
{
hints = (
{
horizontal = 1;
place = "{-209, 158}";
type = Stem;
},
{
horizontal = 1;
place = "{0, 153}";
type = Stem;
},
{
horizontal = 1;
place = "{584, 153}";
type = Stem;
},
{
place = "{39, 285}";
type = Stem;
},
{
place = "{469, 285}";
type = Stem;
},
{
place = "{265.5, 263}";
type = Stem;
}
);
layerId = "E328F9F0-3A13-48BC-903B-CF0D861777C2";
paths = (
{
closed = 1;
nodes = (
"150 0 LINE",
"643 0 LINE",
"754 95 LINE",
"754 642 LINE",
"643 737 LINE",
"150 737 LINE",
"39 642 LINE",
"39 95 LINE"
);
},
{
closed = 1;
nodes = (
"324 153 LINE",
"324 584 LINE",
"469 584 LINE",
"469 153 LINE"
);
},
{
closed = 1;
nodes = (
"265.5 -209 LINE",
"528.5 -209 LINE",
"528.5 -51 LINE",
"265.5 -51 LINE"
);
}
);
width = 793;
}
);
note = uni1ECC;
unicode = 1ECC;
},
{
glyphname = Ograve;
layers = (
{
hints = (
{
horizontal = 1;
place = "{0, 153}";
type = Stem;
},
{
horizontal = 1;
place = "{584, 153}";
type = Stem;
},
{
horizontal = 1;
place = "{789, 163}";
type = Stem;
},
{
place = "{39, 285}";
type = Stem;
},
{
place = "{469, 285}";
type = Stem;
}
);
layerId = "E328F9F0-3A13-48BC-903B-CF0D861777C2";
paths = (
{
closed = 1;
nodes = (
"314 789 LINE",
"486 789 LINE",
"377 952 LINE",
"152 952 LINE"
);
},
{
closed = 1;
nodes = (
"150 0 LINE",
"643 0 LINE",
"754 95 LINE",
"754 642 LINE",
"643 737 LINE",
"150 737 LINE",
"39 642 LINE",
"39 95 LINE"
);
},
{
closed = 1;
nodes = (
"324 153 LINE",
"324 584 LINE",
"469 584 LINE",
"469 153 LINE"
);
}
);
width = 793;
}
);
note = Ograve;
rightKerningGroup = O;
unicode = 00D2;
},
{
glyphname = uni1ECE;
layers = (
{
hints = (
{
horizontal = 1;
place = "{0, 153}";
type = Stem;
},
{
horizontal = 1;
place = "{584, 153}";
type = Stem;
},
{
horizontal = 1;
place = "{789, 106}";
type = Stem;
},
{
horizontal = 1;
place = "{920, 107}";
type = Stem;
},
{
place = "{318, 158}";
type = Stem;
},
{
horizontal = 1;
place = "{828, 67}";
type = Stem;
},
{
place = "{39, 285}";
type = Stem;
},
{
place = "{416, 150}";
type = Stem;
},
{
place = "{239, 145}";
type = Stem;
},
{
horizontal = 1;
place = "{961, 66}";
type = Stem;
},
{
place = "{469, 285}";
type = Stem;
}
);
layerId = "E328F9F0-3A13-48BC-903B-CF0D861777C2";
paths = (
{
closed = 1;
nodes = (
"318 789 LINE",
"476 789 LINE",
"476 828 LINE",
"518 828 LINE",
"566 866 LINE",
"566 985 LINE",
"517 1027 LINE",
"294 1027 LINE",
"239 985 LINE",
"239 920 LINE",
"384 920 LINE",
"384 961 LINE",
"416 961 LINE",
"416 895 LINE",
"357 895 LINE",
"318 866 LINE"
);
},
{
closed = 1;
nodes = (
"150 0 LINE",
"643 0 LINE",
"754 95 LINE",
"754 642 LINE",
"643 737 LINE",
"150 737 LINE",
"39 642 LINE",
"39 95 LINE"
);
},
{
closed = 1;
nodes = (
"324 153 LINE",
"324 584 LINE",
"469 584 LINE",
"469 153 LINE"
);
}
);
width = 793;
}
);
note = uni1ECE;
unicode = 1ECE;
},
{
glyphname = Ohorn;
layers = (
{
hints = (
{
horizontal = 1;
place = "{0, 153}";
type = Stem;
},
{
horizontal = 1;
place = "{584, 153}";
type = Stem;
},
{
place = "{39, 285}";
type = Stem;
},
{
place = "{469, 285}";
type = Stem;
},
{
horizontal = 1;
place = "{595, 88}";
type = Stem;
},
{
horizontal = 1;
place = "{595, 206}";
type = Stem;
}
);
layerId = "E328F9F0-3A13-48BC-903B-CF0D861777C2";
paths = (
{
closed = 1;
nodes = (
"150 0 LINE",
"643 0 LINE",
"754 95 LINE",
"754 595 LINE",
"847 595 LINE",
"1000 801 LINE",
"779 801 LINE",
"744 683 LINE",
"706.1 683 LINE",
"643.01 737 LINE",
"150.01 737 LINE",
"39.01 642 LINE",
"39.01 95 LINE"
);
},
{
closed = 1;
nodes = (
"324.01 153 LINE",
"324.01 584 LINE",
"469.01 584 LINE",
"469.01 153 LINE"
);
}
);
width = 793;
}
);
note = Ohorn;
unicode = 01A0;
},
{
glyphname = uni1EDA;
layers = (
{
hints = (
{
horizontal = 1;
place = "{0, 153}";
type = Stem;
},
{
horizontal = 1;
place = "{584, 153}";
type = Stem;
},
{
horizontal = 1;
place = "{789, 163}";
type = Stem;
},
{
place = "{39, 285}";
type = Stem;
},
{
place = "{469, 285}";
type = Stem;
},
{
horizontal = 1;
place = "{595, 88}";
type = Stem;
},
{
horizontal = 1;
place = "{595, 206}";
type = Stem;
}
);
layerId = "E328F9F0-3A13-48BC-903B-CF0D861777C2";
paths = (
{
closed = 1;
nodes = (
"309 789 LINE",
"481 789 LINE",
"643 952 LINE",
"418 952 LINE"
);
},
{
closed = 1;
nodes = (
"150 0 LINE",
"643 0 LINE",
"754 95 LINE",
"754 595 LINE",
"847 595 LINE",
"1000 801 LINE",
"779 801 LINE",
"744 683 LINE",
"706.1 683 LINE",
"643.01 737 LINE",
"150.01 737 LINE",
"39.01 642 LINE",
"39.01 95 LINE"
);
},
{
closed = 1;
nodes = (
"324.01 153 LINE",
"324.01 584 LINE",
"469.01 584 LINE",
"469.01 153 LINE"
);
}
);
width = 793;
}
);
note = uni1EDA;
unicode = 1EDA;
},
{
glyphname = uni1EE2;
layers = (
{
hints = (
{
horizontal = 1;
place = "{-209, 158}";
type = Stem;
},
{
horizontal = 1;
place = "{0, 153}";
type = Stem;
},
{
horizontal = 1;
place = "{584, 153}";
type = Stem;
},
{
place = "{39, 285}";
type = Stem;
},
{
place = "{469, 285}";
type = Stem;
},
{
horizontal = 1;
place = "{595, 88}";
type = Stem;
},
{
horizontal = 1;
place = "{595, 206}";
type = Stem;
},
{
place = "{265.5, 263}";
type = Stem;
}
);
layerId = "E328F9F0-3A13-48BC-903B-CF0D861777C2";
paths = (
{
closed = 1;
nodes = (
"150 0 LINE",
"643 0 LINE",
"754 95 LINE",
"754 595 LINE",
"847 595 LINE",
"1000 801 LINE",
"779 801 LINE",
"744 683 LINE",
"706.1 683 LINE",
"643.01 737 LINE",
"150.01 737 LINE",
"39.01 642 LINE",
"39.01 95 LINE"
);
},
{
closed = 1;
nodes = (
"324.01 153 LINE",
"324.01 584 LINE",
"469.01 584 LINE",
"469.01 153 LINE"
);
},
{
closed = 1;
nodes = (
"265.51 -209 LINE",
"528.51 -209 LINE",
"528.51 -51 LINE",
"265.51 -51 LINE"
);
}
);
width = 793;
}
);
note = uni1EE2;
unicode = 1EE2;
},
{
glyphname = uni1EDC;
layers = (
{
hints = (
{
horizontal = 1;
place = "{0, 153}";
type = Stem;
},
{
horizontal = 1;
place = "{584, 153}";
type = Stem;
},
{
horizontal = 1;
place = "{789, 163}";
type = Stem;
},
{
place = "{39, 285}";
type = Stem;
},
{
place = "{469, 285}";
type = Stem;
},
{
horizontal = 1;
place = "{595, 88}";
type = Stem;
},
{
horizontal = 1;
place = "{595, 206}";
type = Stem;
}
);
layerId = "E328F9F0-3A13-48BC-903B-CF0D861777C2";
paths = (
{
closed = 1;
nodes = (
"314 789 LINE",
"486 789 LINE",
"377 952 LINE",
"152 952 LINE"
);
},
{
closed = 1;
nodes = (
"150 0 LINE",
"643 0 LINE",
"754 95 LINE",
"754 595 LINE",
"847 595 LINE",
"1000 801 LINE",
"779 801 LINE",
"744 683 LINE",
"706.1 683 LINE",
"643.01 737 LINE",
"150.01 737 LINE",
"39.01 642 LINE",
"39.01 95 LINE"
);
},
{
closed = 1;
nodes = (
"324.01 153 LINE",
"324.01 584 LINE",
"469.01 584 LINE",
"469.01 153 LINE"
);
}
);
width = 793;
}
);
note = uni1EDC;
unicode = 1EDC;
},
{
glyphname = uni1EDE;
layers = (
{
hints = (
{
horizontal = 1;
place = "{0, 153}";
type = Stem;
},
{
horizontal = 1;
place = "{584, 153}";
type = Stem;
},
{
horizontal = 1;
place = "{789, 106}";
type = Stem;
},
{
horizontal = 1;
place = "{920, 107}";
type = Stem;
},
{
place = "{318, 158}";
type = Stem;
},
{
horizontal = 1;
place = "{828, 67}";
type = Stem;
},
{
place = "{39, 285}";
type = Stem;
},
{
place = "{416, 150}";
type = Stem;
},
{
place = "{239, 145}";
type = Stem;
},
{
horizontal = 1;
place = "{961, 66}";
type = Stem;
},
{
horizontal = 1;
place = "{595, 88}";
type = Stem;
},
{
place = "{469, 285}";
type = Stem;
},
{
horizontal = 1;
place = "{595, 206}";
type = Stem;
}
);
layerId = "E328F9F0-3A13-48BC-903B-CF0D861777C2";
paths = (
{
closed = 1;
nodes = (
"318 789 LINE",
"476 789 LINE",
"476 828 LINE",
"518 828 LINE",
"566 866 LINE",
"566 985 LINE",
"517 1027 LINE",
"294 1027 LINE",
"239 985 LINE",
"239 920 LINE",
"384 920 LINE",
"384 961 LINE",
"416 961 LINE",
"416 895 LINE",
"357 895 LINE",
"318 866 LINE"
);
},
{
closed = 1;
nodes = (
"150 0 LINE",
"643 0 LINE",
"754 95 LINE",
"754 595 LINE",
"847 595 LINE",
"1000 801 LINE",
"779 801 LINE",
"744 683 LINE",
"706.1 683 LINE",
"643.01 737 LINE",
"150.01 737 LINE",
"39.01 642 LINE",
"39.01 95 LINE"
);
},
{
closed = 1;
nodes = (
"324.01 153 LINE",
"324.01 584 LINE",
"469.01 584 LINE",
"469.01 153 LINE"
);
}
);
width = 793;
}
);
note = uni1EDE;
unicode = 1EDE;
},
{
glyphname = uni1EE0;
layers = (
{
hints = (
{
horizontal = 1;
place = "{0, 153}";
type = Stem;
},
{
horizontal = 1;
place = "{584, 153}";
type = Stem;
},
{
horizontal = 1;
place = "{789, 161}";
type = Stem;
},
{
place = "{39, 285}";
type = Stem;
},
{
place = "{469, 285}";
type = Stem;
},
{
place = "{504, 147}";
type = Stem;
},
{
horizontal = 1;
place = "{861, 89}";
type = Stem;
},
{
horizontal = 1;
place = "{789, 113}";
type = Stem;
},
{
horizontal = 1;
place = "{795, 162}";
type = Stem;
},
{
place = "{145, 147}";
type = Stem;
},
{
horizontal = 1;
place = "{595, 88}";
type = Stem;
},
{
horizontal = 1;
place = "{843, 114}";
type = Stem;
},
{
horizontal = 1;
place = "{595, 206}";
type = Stem;
}
);
layerId = "E328F9F0-3A13-48BC-903B-CF0D861777C2";
paths = (
{
closed = 1;
nodes = (
"375 789 LINE",
"567 789 LINE",
"651 861 LINE",
"651 950 LINE",
"504 950 LINE",
"504 917 LINE",
"488 902 LINE",
"470 902 LINE",
"421 957 LINE",
"228 957 LINE",
"145 883 LINE",
"145 795 LINE",
"292 795 LINE",
"292 827 LINE",
"308 843 LINE",
"325 843 LINE"
);
},
{
closed = 1;
nodes = (
"150 0 LINE",
"643 0 LINE",
"754 95 LINE",
"754 595 LINE",
"847 595 LINE",
"1000 801 LINE",
"779 801 LINE",
"744 683 LINE",
"706.1 683 LINE",
"643.01 737 LINE",
"150.01 737 LINE",
"39.01 642 LINE",
"39.01 95 LINE"
);
},
{
closed = 1;
nodes = (
"324.01 153 LINE",
"324.01 584 LINE",
"469.01 584 LINE",
"469.01 153 LINE"
);
}
);
width = 793;
}
);
note = uni1EE0;
unicode = 1EE0;
},
{
glyphname = Ohungarumlaut;
layers = (
{
hints = (
{
horizontal = 1;
place = "{0, 153}";
type = Stem;
},
{
horizontal = 1;
place = "{584, 153}";
type = Stem;
},
{
horizontal = 1;
place = "{789, 165}";
type = Stem;
},
{
place = "{39, 285}";
type = Stem;
},
{
place = "{469, 285}";
type = Stem;
}
);
layerId = "E328F9F0-3A13-48BC-903B-CF0D861777C2";
paths = (
{
closed = 1;
nodes = (
"187 789 LINE",
"360 789 LINE",
"524 954 LINE",
"284 954 LINE"
);
},
{
closed = 1;
nodes = (
"450 789 LINE",
"623 789 LINE",
"787 954 LINE",
"547 954 LINE"
);
},
{
closed = 1;
nodes = (
"150 0 LINE",
"643 0 LINE",
"754 95 LINE",
"754 642 LINE",
"643 737 LINE",
"150 737 LINE",
"39 642 LINE",
"39 95 LINE"
);
},
{
closed = 1;
nodes = (
"324 153 LINE",
"324 584 LINE",
"469 584 LINE",
"469 153 LINE"
);
}
);
width = 793;
}
);
note = Ohungarumlaut;
rightKerningGroup = O;
unicode = 0150;
},
{
glyphname = uni020E;
layers = (
{
hints = (
{
horizontal = 1;
place = "{0, 153}";
type = Stem;
},
{
horizontal = 1;
place = "{584, 153}";
type = Stem;
},
{
horizontal = 1;
place = "{789, 163}";
type = Stem;
},
{
place = "{155, 191}";
type = Stem;
},
{
place = "{469, 285}";
type = Stem;
},
{
horizontal = 1;
place = "{841, 111}";
type = Stem;
},
{
place = "{448, 191}";
type = Stem;
},
{
place = "{39, 285}";
type = Stem;
}
);
layerId = "E328F9F0-3A13-48BC-903B-CF0D861777C2";
paths = (
{
closed = 1;
nodes = (
"155 789 LINE",
"346 789 LINE",
"346 841 LINE",
"448 841 LINE",
"448 789 LINE",
"639 789 LINE",
"639 864 LINE",
"536 952 LINE",
"258 952 LINE",
"155 864 LINE"
);
},
{
closed = 1;
nodes = (
"150 0 LINE",
"643 0 LINE",
"754 95 LINE",
"754 642 LINE",
"643 737 LINE",
"150 737 LINE",
"39 642 LINE",
"39 95 LINE"
);
},
{
closed = 1;
nodes = (
"324 153 LINE",
"324 584 LINE",
"469 584 LINE",
"469 153 LINE"
);
}
);
width = 793;
}
);
note = uni020E;
unicode = 020E;
},
{
glyphname = Omacron;
layers = (
{
hints = (
{
horizontal = 1;
place = "{0, 153}";
type = Stem;
},
{
horizontal = 1;
place = "{584, 153}";
type = Stem;
},
{
horizontal = 1;
place = "{789, 149}";
type = Stem;
},
{
place = "{124, 200}";
type = Stem;
},
{
place = "{469, 201}";
type = Stem;
},
{
place = "{39, 285}";
type = Stem;
},
{
place = "{469, 285}";
type = Stem;
}
);
layerId = "E328F9F0-3A13-48BC-903B-CF0D861777C2";
paths = (
{
closed = 1;
nodes = (
"124 789 LINE",
"670 789 LINE",
"670 938 LINE",
"124 938 LINE"
);
},
{
closed = 1;
nodes = (
"150 0 LINE",
"643 0 LINE",
"754 95 LINE",
"754 642 LINE",
"643 737 LINE",
"150 737 LINE",
"39 642 LINE",
"39 95 LINE"
);
},
{
closed = 1;
nodes = (
"324 153 LINE",
"324 584 LINE",
"469 584 LINE",
"469 153 LINE"
);
}
);
width = 793;
}
);
note = Omacron;
rightKerningGroup = O;
unicode = 014C;
},
{
glyphname = uni01EA;
layers = (
{
hints = (
{
horizontal = 1;
place = "{-191, 127}";
type = Stem;
},
{
horizontal = 1;
place = "{0, 153}";
type = Stem;
},
{
horizontal = 1;
place = "{584, 153}";
type = Stem;
},
{
place = "{39, 285}";
type = Stem;
},
{
place = "{478, 174}";
type = Stem;
},
{
place = "{478, 135}";
type = Stem;
},
{
place = "{469, 285}";
type = Stem;
}
);
layerId = "E328F9F0-3A13-48BC-903B-CF0D861777C2";
paths = (
{
closed = 1;
nodes = (
"561 -191 LINE",
"652 -191 LINE",
"652 -64 LINE",
"629 -64 LINE",
"613 -50 LINE",
"613 -26 LINE",
"754 95 LINE",
"754 642 LINE",
"643 737 LINE",
"150 737 LINE",
"39 642 LINE",
"39 95 LINE",
"150 0 LINE",
"523 0 LINE",
"478 -33 LINE",
"478 -122 LINE"
);
},
{
closed = 1;
nodes = (
"324 153 LINE",
"324 584 LINE",
"469 584 LINE",
"469 153 LINE"
);
}
);
width = 793;
}
);
note = uni01EA;
unicode = 01EA;
},
{
glyphname = Oslash;
layers = (
{
hints = (
{
horizontal = 1;
place = "{0, 153}";
type = Stem;
},
{
horizontal = 1;
place = "{584, 153}";
type = Stem;
},
{
place = "{39, 285}";
type = Stem;
},
{
place = "{469, 285}";
type = Stem;
}
);
layerId = "E328F9F0-3A13-48BC-903B-CF0D861777C2";
paths = (
{
closed = 1;
nodes = (
"150 0 LINE",
"643 0 LINE",
"754 95 LINE",
"754 642 LINE",
"643 737 LINE",
"150 737 LINE",
"39 642 LINE",
"39 95 LINE"
);
},
{
closed = 1;
nodes = (
"324 362.42 LINE",
"324 583.99 LINE",
"462.44 583.99 LINE"
);
},
{
closed = 1;
nodes = (
"330.54 152.99 LINE",
"468.99 374.55 LINE",
"468.99 152.99 LINE"
);
}
);
width = 793;
}
);
note = Oslash;
rightKerningGroup = O;
unicode = 00D8;
},
{
glyphname = Oslashacute;
layers = (
{
hints = (
{
horizontal = 1;
place = "{0, 153}";
type = Stem;
},
{
horizontal = 1;
place = "{584, 153}";
type = Stem;
},
{
horizontal = 1;
place = "{789, 163}";
type = Stem;
},
{
place = "{39, 285}";
type = Stem;
},
{
place = "{469, 285}";
type = Stem;
}
);
layerId = "E328F9F0-3A13-48BC-903B-CF0D861777C2";
paths = (
{
closed = 1;
nodes = (
"309 789 LINE",
"481 789 LINE",
"643 952 LINE",
"418 952 LINE"
);
},
{
closed = 1;
nodes = (
"150 0 LINE",
"643 0 LINE",
"754 95 LINE",
"754 642 LINE",
"643 737 LINE",
"150 737 LINE",
"39 642 LINE",
"39 95 LINE"
);
},
{
closed = 1;
nodes = (
"324 362.42 LINE",
"324 583.99 LINE",
"462.44 583.99 LINE"
);
},
{
closed = 1;
nodes = (
"330.54 152.99 LINE",
"468.99 374.55 LINE",
"468.99 152.99 LINE"
);
}
);
width = 793;
}
);
note = Oslashacute;
unicode = 01FE;
},
{
glyphname = Otilde;
layers = (
{
hints = (
{
horizontal = 1;
place = "{0, 153}";
type = Stem;
},
{
horizontal = 1;
place = "{584, 153}";
type = Stem;
},
{
horizontal = 1;
place = "{789, 161}";
type = Stem;
},
{
place = "{39, 285}";
type = Stem;
},
{
place = "{469, 285}";
type = Stem;
},
{
place = "{504, 147}";
type = Stem;
},
{
horizontal = 1;
place = "{861, 89}";
type = Stem;
},
{
horizontal = 1;
place = "{789, 113}";
type = Stem;
},
{
horizontal = 1;
place = "{795, 162}";
type = Stem;
},
{
place = "{145, 147}";
type = Stem;
},
{
horizontal = 1;
place = "{843, 114}";
type = Stem;
}
);
layerId = "E328F9F0-3A13-48BC-903B-CF0D861777C2";
paths = (
{
closed = 1;
nodes = (
"375 789 LINE",
"567 789 LINE",
"651 861 LINE",
"651 950 LINE",
"504 950 LINE",
"504 917 LINE",
"488 902 LINE",
"470 902 LINE",
"421 957 LINE",
"228 957 LINE",
"145 883 LINE",
"145 795 LINE",
"292 795 LINE",
"292 827 LINE",
"308 843 LINE",
"325 843 LINE"
);
},
{
closed = 1;
nodes = (
"150 0 LINE",
"643 0 LINE",
"754 95 LINE",
"754 642 LINE",
"643 737 LINE",
"150 737 LINE",
"39 642 LINE",
"39 95 LINE"
);
},
{
closed = 1;
nodes = (
"324 153 LINE",
"324 584 LINE",
"469 584 LINE",
"469 153 LINE"
);
}
);
width = 793;
}
);
note = Otilde;
rightKerningGroup = O;
unicode = 00D5;
},
{
glyphname = uni022C;
layers = (
{
hints = (
{
horizontal = 1;
place = "{0, 153}";
type = Stem;
},
{
horizontal = 1;
place = "{584, 153}";
type = Stem;
},
{
horizontal = 1;
place = "{789, 161}";
type = Stem;
},
{
horizontal = 1;
place = "{989.17, 149}";
type = Stem;
},
{
place = "{39, 285}";
type = Stem;
},
{
place = "{469, 285}";
type = Stem;
},
{
place = "{504, 165.5}";
type = Stem;
},
{
place = "{504, 147}";
type = Stem;
},
{
horizontal = 1;
place = "{861, 89}";
type = Stem;
},
{
horizontal = 1;
place = "{789, 113}";
type = Stem;
},
{
horizontal = 1;
place = "{795, 162}";
type = Stem;
},
{
place = "{145, 147}";
type = Stem;
},
{
horizontal = 1;
place = "{843, 114}";
type = Stem;
}
);
layerId = "E328F9F0-3A13-48BC-903B-CF0D861777C2";
paths = (
{
closed = 1;
nodes = (
"123.5 989.16 LINE",
"669.5 989.16 LINE",
"669.5 1138.16 LINE",
"123.5 1138.16 LINE"
);
},
{
closed = 1;
nodes = (
"375 789 LINE",
"567 789 LINE",
"651 861 LINE",
"651 950 LINE",
"504 950 LINE",
"504 917 LINE",
"488 902 LINE",
"470 902 LINE",
"421 957 LINE",
"228 957 LINE",
"145 883 LINE",
"145 795 LINE",
"292 795 LINE",
"292 827 LINE",
"308 843 LINE",
"325 843 LINE"
);
},
{
closed = 1;
nodes = (
"150 0 LINE",
"643 0 LINE",
"754 95 LINE",
"754 642 LINE",
"643 737 LINE",
"150 737 LINE",
"39 642 LINE",
"39 95 LINE"
);
},
{
closed = 1;
nodes = (
"324 153 LINE",
"324 584 LINE",
"469 584 LINE",
"469 153 LINE"
);
}
);
width = 793;
}
);
note = uni022C;
unicode = 022C;
},
{
glyphname = OE;
layers = (
{
hints = (
{
horizontal = 1;
place = "{0, 153}";
type = Stem;
},
{
horizontal = 1;
place = "{288, 159}";
type = Stem;
},
{
horizontal = 1;
place = "{584, 153}";
type = Stem;
},
{
place = "{39, 285}";
type = Stem;
},
{
place = "{468.5, 285.5}";
type = Stem;
},
{
horizontal = 1;
place = "{0, 208}";
type = Stem;
},
{
horizontal = 1;
place = "{529, 208}";
type = Stem;
}
);
layerId = "E328F9F0-3A13-48BC-903B-CF0D861777C2";
paths = (
{
closed = 1;
nodes = (
"150 0 LINE",
"1112 0 LINE",
"1112 208 LINE",
"754 208 LINE",
"754 288 LINE",
"1070 288 LINE",
"1070 447 LINE",
"754 447 LINE",
"754 529 LINE",
"1112 529 LINE",
"1112 737 LINE",
"150 737 LINE",
"39 642 LINE",
"39 95 LINE"
);
},
{
closed = 1;
nodes = (
"324 153 LINE",
"324 584 LINE",
"468.5 584 LINE",
"468.5 153 LINE"
);
}
);
width = 1156;
}
);
note = OE;
rightKerningGroup = AE;
unicode = 0152;
},
{
glyphname = P;
layers = (
{
hints = (
{
horizontal = 1;
place = "{205, 152}";
type = Stem;
},
{
horizontal = 1;
place = "{584, 153}";
type = Stem;
},
{
place = "{50, 284.9}";
type = Stem;
},
{
place = "{475.5, 274}";
type = Stem;
}
);
layerId = "E328F9F0-3A13-48BC-903B-CF0D861777C2";
paths = (
{
closed = 1;
nodes = (
"50 0 LINE",
"334.89 0 LINE",
"334.89 205 LINE",
"638.49 205 LINE",
"749.49 299 LINE",
"749.49 642 LINE",
"638.49 737 LINE",
"49.99 737 LINE"
);
},
{
closed = 1;
nodes = (
"334.88 357 LINE",
"334.88 584 LINE",
"475.48 584 LINE",
"475.48 357 LINE"
);
}
);
width = 767;
}
);
leftKerningGroup = B;
note = P;
rightKerningGroup = P;
unicode = 0050;
},
{
glyphname = Thorn;
layers = (
{
hints = (
{
horizontal = 1;
place = "{113, 131}";
type = Stem;
},
{
horizontal = 1;
place = "{516, 131}";
type = Stem;
},
{
place = "{50, 284.9}";
type = Stem;
},
{
place = "{475.5, 274}";
type = Stem;
}
);
layerId = "E328F9F0-3A13-48BC-903B-CF0D861777C2";
paths = (
{
closed = 1;
nodes = (
"50 0 LINE",
"334.89 0 LINE",
"334.89 113 LINE",
"638.49 113 LINE",
"749.49 208 LINE",
"749.49 552 LINE",
"638.49 647 LINE",
"334.89 647 LINE",
"334.89 737 LINE",
"50 737 LINE"
);
},
{
closed = 1;
nodes = (
"334.89 244 LINE",
"334.89 516 LINE",
"475.49 516 LINE",
"475.49 244 LINE"
);
}
);
width = 767;
}
);
note = Thorn;
rightKerningGroup = Thorn;
unicode = 00DE;
},
{
glyphname = Q;
layers = (
{
hints = (
{
horizontal = 1;
place = "{-106, 259}";
type = Stem;
},
{
horizontal = 1;
place = "{584, 153}";
type = Stem;
},
{
place = "{285, 223}";
type = Stem;
},
{
horizontal = 1;
place = "{0, 153}";
type = Stem;
},
{
place = "{39, 285}";
type = Stem;
},
{
place = "{469, 285}";
type = Stem;
}
);
layerId = "E328F9F0-3A13-48BC-903B-CF0D861777C2";
paths = (
{
closed = 1;
nodes = (
"285 -106 LINE",
"508 -106 LINE",
"508 0 LINE",
"643 0 LINE",
"754 95 LINE",
"754 642 LINE",
"643 737 LINE",
"150 737 LINE",
"39 642 LINE",
"39 95 LINE",
"150 0 LINE",
"285 0 LINE"
);
},
{
closed = 1;
nodes = (
"324 153 LINE",
"324 584 LINE",
"469 584 LINE",
"469 153 LINE"
);
}
);
width = 793;
}
);
note = Q;
rightKerningGroup = O;
unicode = 0051;
},
{
glyphname = R;
layers = (
{
hints = (
{
horizontal = 1;
place = "{228, 153}";
type = Stem;
},
{
horizontal = 1;
place = "{584, 153}";
type = Stem;
},
{
place = "{50, 284.9}";
type = Stem;
},
{
place = "{478.5, 274}";
type = Stem;
}
);
layerId = "E328F9F0-3A13-48BC-903B-CF0D861777C2";
paths = (
{
closed = 1;
nodes = (
"50 0 LINE",
"334.89 0 LINE",
"334.89 228 LINE",
"430.62 228 LINE",
"505.49 0 LINE",
"785.49 0 LINE",
"688.7 267.97 LINE",
"752.49 321.99 LINE",
"752.49 641.99 LINE",
"641.49 736.99 LINE",
"49.99 736.99 LINE"
);
},
{
closed = 1;
nodes = (
"334.88 380.99 LINE",
"334.88 583.99 LINE",
"478.48 583.99 LINE",
"478.48 380.99 LINE"
);
}
);
width = 797;
}
);
leftKerningGroup = B;
note = R;
rightKerningGroup = R;
unicode = 0052;
},
{
glyphname = Racute;
layers = (
{
hints = (
{
horizontal = 1;
place = "{228, 153}";
type = Stem;
},
{
horizontal = 1;
place = "{584, 153}";
type = Stem;
},
{
horizontal = 1;
place = "{789, 163}";
type = Stem;
},
{
place = "{50, 284.9}";
type = Stem;
},
{
place = "{478.5, 274}";
type = Stem;
}
);
layerId = "E328F9F0-3A13-48BC-903B-CF0D861777C2";
paths = (
{
closed = 1;
nodes = (
"298.5 789 LINE",
"470.5 789 LINE",
"632.5 952 LINE",
"407.5 952 LINE"
);
},
{
closed = 1;
nodes = (
"50 0 LINE",
"334.89 0 LINE",
"334.89 228 LINE",
"430.62 228 LINE",
"505.49 0 LINE",
"785.49 0 LINE",
"688.7 267.97 LINE",
"752.49 321.99 LINE",
"752.49 641.99 LINE",
"641.49 736.99 LINE",
"49.99 736.99 LINE"
);
},
{
closed = 1;
nodes = (
"334.88 380.99 LINE",
"334.88 583.99 LINE",
"478.48 583.99 LINE",
"478.48 380.99 LINE"
);
}
);
width = 797;
}
);
note = Racute;
rightKerningGroup = R;
unicode = 0154;
},
{
glyphname = Rcaron;
layers = (
{
hints = (
{
horizontal = 1;
place = "{228, 153}";
type = Stem;
},
{
horizontal = 1;
place = "{584, 153}";
type = Stem;
},
{
horizontal = 1;
place = "{789, 163}";
type = Stem;
},
{
place = "{50, 284.9}";
type = Stem;
},
{
place = "{478.5, 274}";
type = Stem;
}
);
layerId = "E328F9F0-3A13-48BC-903B-CF0D861777C2";
paths = (
{
closed = 1;
nodes = (
"246.5 789 LINE",
"526.5 789 LINE",
"649.5 952 LINE",
"462.5 952 LINE",
"386.5 876 LINE",
"310.5 952 LINE",
"123.5 952 LINE"
);
},
{
closed = 1;
nodes = (
"50 0 LINE",
"334.89 0 LINE",
"334.89 228 LINE",
"430.62 228 LINE",
"505.49 0 LINE",
"785.49 0 LINE",
"688.7 267.97 LINE",
"752.49 321.99 LINE",
"752.49 641.99 LINE",
"641.49 736.99 LINE",
"49.99 736.99 LINE"
);
},
{
closed = 1;
nodes = (
"334.88 380.99 LINE",
"334.88 583.99 LINE",
"478.48 583.99 LINE",
"478.48 380.99 LINE"
);
}
);
width = 797;
}
);
note = Rcaron;
rightKerningGroup = R;
unicode = 0158;
},
{
glyphname = uni0156;
layers = (
{
hints = (
{
horizontal = 1;
place = "{-234, 182}";
type = Stem;
},
{
horizontal = 1;
place = "{228, 153}";
type = Stem;
},
{
horizontal = 1;
place = "{584, 153}";
type = Stem;
},
{
place = "{50, 284.9}";
type = Stem;
},
{
place = "{478.5, 274}";
type = Stem;
}
);
layerId = "E328F9F0-3A13-48BC-903B-CF0D861777C2";
paths = (
{
closed = 1;
nodes = (
"50 0 LINE",
"334.89 0 LINE",
"334.89 228 LINE",
"430.62 228 LINE",
"505.49 0 LINE",
"785.49 0 LINE",
"688.7 267.97 LINE",
"752.49 321.99 LINE",
"752.49 641.99 LINE",
"641.49 736.99 LINE",
"49.99 736.99 LINE"
);
},
{
closed = 1;
nodes = (
"334.88 380.99 LINE",
"334.88 583.99 LINE",
"478.48 583.99 LINE",
"478.48 380.99 LINE"
);
},
{
closed = 1;
nodes = (
"249.48 -234.01 LINE",
"389.48 -234.01 LINE",
"522.48 -52.01 LINE",
"300.48 -52.01 LINE"
);
}
);
width = 797;
}
);
note = uni0156;
rightKerningGroup = R;
unicode = 0156;
},
{
glyphname = uni0210;
layers = (
{
hints = (
{
horizontal = 1;
place = "{228, 153}";
type = Stem;
},
{
horizontal = 1;
place = "{584, 153}";
type = Stem;
},
{
horizontal = 1;
place = "{789, 163}";
type = Stem;
},
{
place = "{50, 284.9}";
type = Stem;
},
{
place = "{478.5, 274}";
type = Stem;
}
);
layerId = "E328F9F0-3A13-48BC-903B-CF0D861777C2";
paths = (
{
closed = 1;
nodes = (
"167 789 LINE",
"327 789 LINE",
"219 952 LINE",
"4 952 LINE"
);
},
{
closed = 1;
nodes = (
"443 789 LINE",
"604 789 LINE",
"495 952 LINE",
"280 952 LINE"
);
},
{
closed = 1;
nodes = (
"50 0 LINE",
"334.89 0 LINE",
"334.89 228 LINE",
"430.62 228 LINE",
"505.49 0 LINE",
"785.49 0 LINE",
"688.7 267.97 LINE",
"752.49 321.99 LINE",
"752.49 641.99 LINE",
"641.49 736.99 LINE",
"49.99 736.99 LINE"
);
},
{
closed = 1;
nodes = (
"334.88 380.99 LINE",
"334.88 583.99 LINE",
"478.48 583.99 LINE",
"478.48 380.99 LINE"
);
}
);
width = 797;
}
);
note = uni0210;
unicode = 0210;
},
{
glyphname = uni0212;
layers = (
{
hints = (
{
horizontal = 1;
place = "{228, 153}";
type = Stem;
},
{
horizontal = 1;
place = "{584, 153}";
type = Stem;
},
{
horizontal = 1;
place = "{789, 163}";
type = Stem;
},
{
place = "{137.5, 191}";
type = Stem;
},
{
place = "{478.5, 274}";
type = Stem;
},
{
horizontal = 1;
place = "{841, 111}";
type = Stem;
},
{
place = "{430.5, 191}";
type = Stem;
},
{
place = "{50, 284.9}";
type = Stem;
}
);
layerId = "E328F9F0-3A13-48BC-903B-CF0D861777C2";
paths = (
{
closed = 1;
nodes = (
"137.5 789 LINE",
"328.5 789 LINE",
"328.5 841 LINE",
"430.5 841 LINE",
"430.5 789 LINE",
"621.5 789 LINE",
"621.5 864 LINE",
"518.5 952 LINE",
"240.5 952 LINE",
"137.5 864 LINE"
);
},
{
closed = 1;
nodes = (
"50 0 LINE",
"334.89 0 LINE",
"334.89 228 LINE",
"430.62 228 LINE",
"505.49 0 LINE",
"785.49 0 LINE",
"688.7 267.97 LINE",
"752.49 321.99 LINE",
"752.49 641.99 LINE",
"641.49 736.99 LINE",
"49.99 736.99 LINE"
);
},
{
closed = 1;
nodes = (
"334.88 380.99 LINE",
"334.88 583.99 LINE",
"478.48 583.99 LINE",
"478.48 380.99 LINE"
);
}
);
width = 797;
}
);
note = uni0212;
unicode = 0212;
},
{
glyphname = S;
layers = (
{
hints = (
{
horizontal = 1;
place = "{0, 193}";
type = Stem;
},
{
horizontal = 1;
place = "{281.5, 183}";
type = Stem;
},
{
horizontal = 1;
place = "{546, 191}";
type = Stem;
},
{
place = "{33, 276}";
type = Stem;
},
{
place = "{426, 277}";
type = Stem;
}
);
layerId = "E328F9F0-3A13-48BC-903B-CF0D861777C2";
paths = (
{
closed = 1;
nodes = (
"64 0 LINE",
"592 0 LINE",
"703 95 LINE",
"703 370 LINE",
"592 464 LINE",
"309 465 LINE",
"309 546 LINE",
"667 546 LINE",
"667 737 LINE",
"144 737 LINE",
"33 642 LINE",
"33 376 LINE",
"144 282 LINE",
"426 281 LINE",
"426 193 LINE",
"64 193 LINE"
);
}
);
width = 736;
}
);
leftKerningGroup = S;
note = S;
rightKerningGroup = S;
unicode = 0053;
},
{
glyphname = Sacute;
layers = (
{
hints = (
{
horizontal = 1;
place = "{0, 193}";
type = Stem;
},
{
horizontal = 1;
place = "{281.5, 183}";
type = Stem;
},
{
horizontal = 1;
place = "{546, 191}";
type = Stem;
},
{
horizontal = 1;
place = "{789, 163}";
type = Stem;
},
{
place = "{33, 276}";
type = Stem;
},
{
place = "{426, 277}";
type = Stem;
}
);
layerId = "E328F9F0-3A13-48BC-903B-CF0D861777C2";
paths = (
{
closed = 1;
nodes = (
"278 789 LINE",
"450 789 LINE",
"612 952 LINE",
"387 952 LINE"
);
},
{
closed = 1;
nodes = (
"64 0 LINE",
"592 0 LINE",
"703 95 LINE",
"703 370 LINE",
"592 464 LINE",
"309 465 LINE",
"309 546 LINE",
"667 546 LINE",
"667 737 LINE",
"144 737 LINE",
"33 642 LINE",
"33 376 LINE",
"144 282 LINE",
"426 281 LINE",
"426 193 LINE",
"64 193 LINE"
);
}
);
width = 736;
}
);
leftKerningGroup = S;
note = Sacute;
rightKerningGroup = S;
unicode = 015A;
},
{
glyphname = Scaron;
layers = (
{
hints = (
{
horizontal = 1;
place = "{0, 193}";
type = Stem;
},
{
horizontal = 1;
place = "{281.5, 183}";
type = Stem;
},
{
horizontal = 1;
place = "{546, 191}";
type = Stem;
},
{
horizontal = 1;
place = "{789, 163}";
type = Stem;
},
{
place = "{33, 276}";
type = Stem;
},
{
place = "{426, 277}";
type = Stem;
}
);
layerId = "E328F9F0-3A13-48BC-903B-CF0D861777C2";
paths = (
{
closed = 1;
nodes = (
"226 789 LINE",
"506 789 LINE",
"629 952 LINE",
"442 952 LINE",
"366 876 LINE",
"290 952 LINE",
"103 952 LINE"
);
},
{
closed = 1;
nodes = (
"64 0 LINE",
"592 0 LINE",
"703 95 LINE",
"703 370 LINE",
"592 464 LINE",
"309 465 LINE",
"309 546 LINE",
"667 546 LINE",
"667 737 LINE",
"144 737 LINE",
"33 642 LINE",
"33 376 LINE",
"144 282 LINE",
"426 281 LINE",
"426 193 LINE",
"64 193 LINE"
);
}
);
width = 736;
}
);
leftKerningGroup = S;
note = Scaron;
rightKerningGroup = S;
unicode = 0160;
},
{
glyphname = Scedilla;
layers = (
{
hints = (
{
horizontal = 1;
place = "{0, 193}";
type = Stem;
},
{
horizontal = 1;
place = "{281.5, 183}";
type = Stem;
},
{
horizontal = 1;
place = "{546, 191}";
type = Stem;
},
{
place = "{33, 276}";
type = Stem;
},
{
place = "{426, 277}";
type = Stem;
}
);
layerId = "E328F9F0-3A13-48BC-903B-CF0D861777C2";
paths = (
{
closed = 1;
nodes = (
"245 -125 LINE",
"409 -125 LINE",
"472 0 LINE",
"592 0 LINE",
"703 95 LINE",
"703 370 LINE",
"592 464 LINE",
"309 465 LINE",
"309 546 LINE",
"667 546 LINE",
"667 737 LINE",
"144 737 LINE",
"33 642 LINE",
"33 376 LINE",
"144 282 LINE",
"426 281 LINE",
"426 193 LINE",
"64 193 LINE",
"64 0 LINE",
"265 0 LINE"
);
}
);
width = 736;
}
);
leftKerningGroup = S;
note = Scedilla;
rightKerningGroup = S;
unicode = 015E;
},
{
glyphname = Scircumflex;
layers = (
{
hints = (
{
horizontal = 1;
place = "{0, 193}";
type = Stem;
},
{
horizontal = 1;
place = "{281.5, 183}";
type = Stem;
},
{
horizontal = 1;
place = "{546, 191}";
type = Stem;
},
{
horizontal = 1;
place = "{789, 163}";
type = Stem;
},
{
place = "{33, 276}";
type = Stem;
},
{
place = "{426, 277}";
type = Stem;
},
{
horizontal = 1;
place = "{865, 87}";
type = Stem;
}
);
layerId = "E328F9F0-3A13-48BC-903B-CF0D861777C2";
paths = (
{
closed = 1;
nodes = (
"103 789 LINE",
"290 789 LINE",
"366 865 LINE",
"442 789 LINE",
"629 789 LINE",
"506 952 LINE",
"226 952 LINE"
);
},
{
closed = 1;
nodes = (
"64 0 LINE",
"592 0 LINE",
"703 95 LINE",
"703 370 LINE",
"592 464 LINE",
"309 465 LINE",
"309 546 LINE",
"667 546 LINE",
"667 737 LINE",
"144 737 LINE",
"33 642 LINE",
"33 376 LINE",
"144 282 LINE",
"426 281 LINE",
"426 193 LINE",
"64 193 LINE"
);
}
);
width = 736;
}
);
leftKerningGroup = S;
note = Scircumflex;
rightKerningGroup = S;
unicode = 015C;
},
{
glyphname = uni0218;
layers = (
{
hints = (
{
horizontal = 1;
place = "{-234, 182}";
type = Stem;
},
{
horizontal = 1;
place = "{0, 193}";
type = Stem;
},
{
horizontal = 1;
place = "{281.5, 183}";
type = Stem;
},
{
horizontal = 1;
place = "{546, 191}";
type = Stem;
},
{
place = "{33, 276}";
type = Stem;
},
{
place = "{426, 277}";
type = Stem;
}
);
layerId = "E328F9F0-3A13-48BC-903B-CF0D861777C2";
paths = (
{
closed = 1;
nodes = (
"64 0 LINE",
"592 0 LINE",
"703 95 LINE",
"703 370 LINE",
"592 464 LINE",
"309 465 LINE",
"309 546 LINE",
"667 546 LINE",
"667 737 LINE",
"144 737 LINE",
"33 642 LINE",
"33 376 LINE",
"144 282 LINE",
"426 281 LINE",
"426 193 LINE",
"64 193 LINE"
);
},
{
closed = 1;
nodes = (
"207 -234 LINE",
"347 -234 LINE",
"480 -52 LINE",
"258 -52 LINE"
);
}
);
width = 736;
}
);
leftKerningGroup = S;
note = uni0218;
rightKerningGroup = S;
unicode = 0218;
},
{
glyphname = uni1E9E;
layers = (
{
hints = (
{
horizontal = 1;
place = "{0, 131}";
type = Stem;
},
{
horizontal = 1;
place = "{606, 131}";
type = Stem;
},
{
place = "{50, 298}";
type = Stem;
},
{
place = "{459.5, 307.5}";
type = Stem;
},
{
place = "{447, 258}";
type = Stem;
}
);
layerId = "E328F9F0-3A13-48BC-903B-CF0D861777C2";
paths = (
{
closed = 1;
nodes = (
"50 0 LINE",
"348 0 LINE",
"348 606 LINE",
"447 606 LINE",
"447 559 LINE",
"384 442 LINE",
"384 311 LINE",
"459 311 LINE",
"460 131 LINE",
"384 131 LINE",
"384 0 LINE",
"656 0 LINE",
"767 95 LINE",
"767 289 LINE",
"634.7 401.45 LINE",
"705 527.99 LINE",
"705 641.99 LINE",
"593 736.99 LINE",
"161 736.99 LINE",
"50 641.99 LINE"
);
}
);
width = 806;
}
);
note = uni1E9E;
unicode = 1E9E;
},
{
glyphname = uni018F;
layers = (
{
hints = (
{
horizontal = 1;
place = "{0, 153}";
type = Stem;
},
{
horizontal = 1;
place = "{289, 159}";
type = Stem;
},
{
horizontal = 1;
place = "{540, 197}";
type = Stem;
},
{
place = "{39, 285}";
type = Stem;
},
{
place = "{469, 285}";
type = Stem;
}
);
layerId = "E328F9F0-3A13-48BC-903B-CF0D861777C2";
paths = (
{
closed = 1;
nodes = (
"150 0 LINE",
"643 0 LINE",
"754 95 LINE",
"754 642 LINE",
"643 737 LINE",
"47 737 LINE",
"47 540 LINE",
"469 540 LINE",
"469 448 LINE",
"39 448 LINE",
"39 95 LINE"
);
},
{
closed = 1;
nodes = (
"324 153 LINE",
"324 289 LINE",
"469 289 LINE",
"469 153 LINE"
);
}
);
width = 793;
}
);
note = uni018F;
unicode = 018F;
},
{
glyphname = T;
layers = (
{
hints = (
{
horizontal = 1;
place = "{540, 197}";
type = Stem;
},
{
place = "{212.05, 284.9}";
type = Stem;
}
);
layerId = "E328F9F0-3A13-48BC-903B-CF0D861777C2";
paths = (
{
closed = 1;
nodes = (
"212.04 0 LINE",
"496.94 0 LINE",
"496.94 540 LINE",
"691.99 540 LINE",
"691.99 737 LINE",
"16.99 737 LINE",
"16.99 540 LINE",
"212.03 540 LINE"
);
}
);
width = 709;
}
);
leftKerningGroup = T;
note = T;
rightKerningGroup = T;
unicode = 0054;
},
{
glyphname = Tbar;
layers = (
{
hints = (
{
horizontal = 1;
place = "{234, 169}";
type = Stem;
},
{
horizontal = 1;
place = "{540, 197}";
type = Stem;
},
{
place = "{212.05, 284.9}";
type = Stem;
}
);
layerId = "E328F9F0-3A13-48BC-903B-CF0D861777C2";
paths = (
{
closed = 1;
nodes = (
"212.04 0 LINE",
"496.94 0 LINE",
"496.94 234 LINE",
"641.49 234 LINE",
"641.49 403 LINE",
"496.94 403 LINE",
"496.94 540 LINE",
"691.99 540 LINE",
"691.99 737 LINE",
"16.99 737 LINE",
"16.99 540 LINE",
"212.03 540 LINE",
"212.03 403 LINE",
"67.49 403 LINE",
"67.49 234 LINE",
"212.03 234 LINE"
);
}
);
width = 709;
}
);
leftKerningGroup = T;
note = Tbar;
rightKerningGroup = T;
unicode = 0166;
},
{
glyphname = Tcaron;
layers = (
{
hints = (
{
horizontal = 1;
place = "{540, 197}";
type = Stem;
},
{
horizontal = 1;
place = "{789, 163}";
type = Stem;
},
{
place = "{212.05, 284.9}";
type = Stem;
}
);
layerId = "E328F9F0-3A13-48BC-903B-CF0D861777C2";
paths = (
{
closed = 1;
nodes = (
"214.5 789 LINE",
"494.5 789 LINE",
"617.5 952 LINE",
"430.5 952 LINE",
"354.5 876 LINE",
"278.5 952 LINE",
"91.5 952 LINE"
);
},
{
closed = 1;
nodes = (
"212.04 0 LINE",
"496.94 0 LINE",
"496.94 540 LINE",
"691.99 540 LINE",
"691.99 737 LINE",
"16.99 737 LINE",
"16.99 540 LINE",
"212.03 540 LINE"
);
}
);
width = 709;
}
);
leftKerningGroup = T;
note = Tcaron;
rightKerningGroup = T;
unicode = 0164;
},
{
glyphname = uni0162;
layers = (
{
hints = (
{
horizontal = 1;
place = "{540, 197}";
type = Stem;
},
{
place = "{212, 285}";
type = Stem;
}
);
layerId = "E328F9F0-3A13-48BC-903B-CF0D861777C2";
paths = (
{
closed = 1;
nodes = (
"270 -125 LINE",
"434 -125 LINE",
"497 0 LINE",
"497 540 LINE",
"692 540 LINE",
"692 737 LINE",
"17 737 LINE",
"17 540 LINE",
"212 540 LINE",
"212 0 LINE",
"290 0 LINE"
);
}
);
width = 709;
}
);
leftKerningGroup = T;
note = uni0162;
rightKerningGroup = T;
unicode = 0162;
},
{
glyphname = uni021A;
layers = (
{
hints = (
{
horizontal = 1;
place = "{-234, 182}";
type = Stem;
},
{
horizontal = 1;
place = "{540, 197}";
type = Stem;
},
{
place = "{212.05, 284.9}";
type = Stem;
}
);
layerId = "E328F9F0-3A13-48BC-903B-CF0D861777C2";
paths = (
{
closed = 1;
nodes = (
"212.04 0 LINE",
"496.94 0 LINE",
"496.94 540 LINE",
"691.99 540 LINE",
"691.99 737 LINE",
"16.99 737 LINE",
"16.99 540 LINE",
"212.03 540 LINE"
);
},
{
closed = 1;
nodes = (
"193.49 -234 LINE",
"333.49 -234 LINE",
"466.49 -52 LINE",
"244.49 -52 LINE"
);
}
);
width = 709;
}
);
leftKerningGroup = T;
note = uni021A;
rightKerningGroup = T;
unicode = 021A;
},
{
glyphname = U;
layers = (
{
hints = (
{
horizontal = 1;
place = "{0, 153}";
type = Stem;
},
{
place = "{50, 285}";
type = Stem;
},
{
place = "{468, 285}";
type = Stem;
}
);
layerId = "E328F9F0-3A13-48BC-903B-CF0D861777C2";
paths = (
{
closed = 1;
nodes = (
"161 0 LINE",
"642 0 LINE",
"753 95 LINE",
"753 737 LINE",
"468 737 LINE",
"468 153 LINE",
"335 153 LINE",
"335 737 LINE",
"50 737 LINE",
"50 95 LINE"
);
}
);
width = 803;
}
);
note = U;
unicode = 0055;
},
{
glyphname = Uacute;
layers = (
{
hints = (
{
horizontal = 1;
place = "{0, 153}";
type = Stem;
},
{
horizontal = 1;
place = "{789, 163}";
type = Stem;
},
{
place = "{50, 285}";
type = Stem;
},
{
place = "{468, 285}";
type = Stem;
}
);
layerId = "E328F9F0-3A13-48BC-903B-CF0D861777C2";
paths = (
{
closed = 1;
nodes = (
"314 789 LINE",
"486 789 LINE",
"648 952 LINE",
"423 952 LINE"
);
},
{
closed = 1;
nodes = (
"161 0 LINE",
"642 0 LINE",
"753 95 LINE",
"753 737 LINE",
"468 737 LINE",
"468 153 LINE",
"335 153 LINE",
"335 737 LINE",
"50 737 LINE",
"50 95 LINE"
);
}
);
width = 803;
}
);
note = Uacute;
unicode = 00DA;
},
{
glyphname = Ubreve;
layers = (
{
hints = (
{
horizontal = 1;
place = "{0, 153}";
type = Stem;
},
{
horizontal = 1;
place = "{789, 163}";
type = Stem;
},
{
place = "{50, 285}";
type = Stem;
},
{
place = "{468, 285}";
type = Stem;
},
{
horizontal = 1;
place = "{877, 75}";
type = Stem;
},
{
place = "{453, 191}";
type = Stem;
},
{
horizontal = 1;
place = "{789, 111}";
type = Stem;
},
{
place = "{160, 191}";
type = Stem;
}
);
layerId = "E328F9F0-3A13-48BC-903B-CF0D861777C2";
paths = (
{
closed = 1;
nodes = (
"263 789 LINE",
"541 789 LINE",
"644 877 LINE",
"644 952 LINE",
"453 952 LINE",
"453 900 LINE",
"351 900 LINE",
"351 952 LINE",
"160 952 LINE",
"160 877 LINE"
);
},
{
closed = 1;
nodes = (
"161 0 LINE",
"642 0 LINE",
"753 95 LINE",
"753 737 LINE",
"468 737 LINE",
"468 153 LINE",
"335 153 LINE",
"335 737 LINE",
"50 737 LINE",
"50 95 LINE"
);
}
);
width = 803;
}
);
note = Ubreve;
unicode = 016C;
},
{
glyphname = Ucircumflex;
layers = (
{
hints = (
{
horizontal = 1;
place = "{0, 153}";
type = Stem;
},
{
horizontal = 1;
place = "{789, 163}";
type = Stem;
},
{
place = "{50, 285}";
type = Stem;
},
{
place = "{468, 285}";
type = Stem;
},
{
horizontal = 1;
place = "{865, 87}";
type = Stem;
}
);
layerId = "E328F9F0-3A13-48BC-903B-CF0D861777C2";
paths = (
{
closed = 1;
nodes = (
"139 789 LINE",
"326 789 LINE",
"402 865 LINE",
"478 789 LINE",
"665 789 LINE",
"542 952 LINE",
"262 952 LINE"
);
},
{
closed = 1;
nodes = (
"161 0 LINE",
"642 0 LINE",
"753 95 LINE",
"753 737 LINE",
"468 737 LINE",
"468 153 LINE",
"335 153 LINE",
"335 737 LINE",
"50 737 LINE",
"50 95 LINE"
);
}
);
width = 803;
}
);
note = Ucircumflex;
unicode = 00DB;
},
{
glyphname = uni0214;
layers = (
{
hints = (
{
horizontal = 1;
place = "{0, 153}";
type = Stem;
},
{
horizontal = 1;
place = "{789, 163}";
type = Stem;
},
{
place = "{50, 285}";
type = Stem;
},
{
place = "{468, 285}";
type = Stem;
}
);
layerId = "E328F9F0-3A13-48BC-903B-CF0D861777C2";
paths = (
{
closed = 1;
nodes = (
"175 789 LINE",
"335 789 LINE",
"227 952 LINE",
"12 952 LINE"
);
},
{
closed = 1;
nodes = (
"451 789 LINE",
"612 789 LINE",
"503 952 LINE",
"288 952 LINE"
);
},
{
closed = 1;
nodes = (
"161 0 LINE",
"642 0 LINE",
"753 95 LINE",
"753 737 LINE",
"468 737 LINE",
"468 153 LINE",
"335 153 LINE",
"335 737 LINE",
"50 737 LINE",
"50 95 LINE"
);
}
);
width = 803;
}
);
note = uni0214;
unicode = 0214;
},
{
glyphname = Udieresis;
layers = (
{
hints = (
{
horizontal = 1;
place = "{0, 153}";
type = Stem;
},
{
horizontal = 1;
place = "{789, 158}";
type = Stem;
},
{
place = "{129, 206}";
type = Stem;
},
{
place = "{468, 285}";
type = Stem;
},
{
place = "{129, 239}";
type = Stem;
},
{
place = "{436, 239}";
type = Stem;
},
{
place = "{50, 285}";
type = Stem;
},
{
place = "{468, 207}";
type = Stem;
}
);
layerId = "E328F9F0-3A13-48BC-903B-CF0D861777C2";
paths = (
{
closed = 1;
nodes = (
"129 789 LINE",
"368 789 LINE",
"368 947 LINE",
"129 947 LINE"
);
},
{
closed = 1;
nodes = (
"436 789 LINE",
"675 789 LINE",
"675 947 LINE",
"436 947 LINE"
);
},
{
closed = 1;
nodes = (
"161 0 LINE",
"642 0 LINE",
"753 95 LINE",
"753 737 LINE",
"468 737 LINE",
"468 153 LINE",
"335 153 LINE",
"335 737 LINE",
"50 737 LINE",
"50 95 LINE"
);
}
);
width = 803;
}
);
note = Udieresis;
unicode = 00DC;
},
{
glyphname = uni1EE4;
layers = (
{
hints = (
{
horizontal = 1;
place = "{-209, 158}";
type = Stem;
},
{
horizontal = 1;
place = "{0, 153}";
type = Stem;
},
{
place = "{50, 285}";
type = Stem;
},
{
place = "{468, 285}";
type = Stem;
},
{
place = "{270.5, 263}";
type = Stem;
}
);
layerId = "E328F9F0-3A13-48BC-903B-CF0D861777C2";
paths = (
{
closed = 1;
nodes = (
"161 0 LINE",
"642 0 LINE",
"753 95 LINE",
"753 737 LINE",
"468 737 LINE",
"468 153 LINE",
"335 153 LINE",
"335 737 LINE",
"50 737 LINE",
"50 95 LINE"
);
},
{
closed = 1;
nodes = (
"270.5 -209 LINE",
"533.5 -209 LINE",
"533.5 -51 LINE",
"270.5 -51 LINE"
);
}
);
width = 803;
}
);
note = uni1EE4;
unicode = 1EE4;
},
{
glyphname = Ugrave;
layers = (
{
hints = (
{
horizontal = 1;
place = "{0, 153}";
type = Stem;
},
{
horizontal = 1;
place = "{789, 163}";
type = Stem;
},
{
place = "{50, 285}";
type = Stem;
},
{
place = "{468, 285}";
type = Stem;
}
);
layerId = "E328F9F0-3A13-48BC-903B-CF0D861777C2";
paths = (
{
closed = 1;
nodes = (
"319 789 LINE",
"491 789 LINE",
"382 952 LINE",
"157 952 LINE"
);
},
{
closed = 1;
nodes = (
"161 0 LINE",
"642 0 LINE",
"753 95 LINE",
"753 737 LINE",
"468 737 LINE",
"468 153 LINE",
"335 153 LINE",
"335 737 LINE",
"50 737 LINE",
"50 95 LINE"
);
}
);
width = 803;
}
);
note = Ugrave;
unicode = 00D9;
},
{
glyphname = uni1EE6;
layers = (
{
hints = (
{
horizontal = 1;
place = "{0, 153}";
type = Stem;
},
{
horizontal = 1;
place = "{789, 106}";
type = Stem;
},
{
horizontal = 1;
place = "{920, 107}";
type = Stem;
},
{
place = "{323, 12}";
type = Stem;
},
{
place = "{468, 13}";
type = Stem;
},
{
horizontal = 1;
place = "{828, 67}";
type = Stem;
},
{
place = "{50, 285}";
type = Stem;
},
{
place = "{421, 150}";
type = Stem;
},
{
place = "{244, 145}";
type = Stem;
},
{
horizontal = 1;
place = "{961, 66}";
type = Stem;
},
{
place = "{468, 285}";
type = Stem;
}
);
layerId = "E328F9F0-3A13-48BC-903B-CF0D861777C2";
paths = (
{
closed = 1;
nodes = (
"323 789 LINE",
"481 789 LINE",
"481 828 LINE",
"523 828 LINE",
"571 866 LINE",
"571 985 LINE",
"522 1027 LINE",
"299 1027 LINE",
"244 985 LINE",
"244 920 LINE",
"389 920 LINE",
"389 961 LINE",
"421 961 LINE",
"421 895 LINE",
"362 895 LINE",
"323 866 LINE"
);
},
{
closed = 1;
nodes = (
"161 0 LINE",
"642 0 LINE",
"753 95 LINE",
"753 737 LINE",
"468 737 LINE",
"468 153 LINE",
"335 153 LINE",
"335 737 LINE",
"50 737 LINE",
"50 95 LINE"
);
}
);
width = 803;
}
);
note = uni1EE6;
unicode = 1EE6;
},
{
glyphname = Uhorn;
layers = (
{
hints = (
{
horizontal = 1;
place = "{0, 153}";
type = Stem;
},
{
horizontal = 1;
place = "{595, 142}";
type = Stem;
},
{
place = "{50, 285}";
type = Stem;
},
{
place = "{468, 285}";
type = Stem;
},
{
horizontal = 1;
place = "{595, 206}";
type = Stem;
},
{
horizontal = 1;
place = "{595, 88}";
type = Stem;
}
);
layerId = "E328F9F0-3A13-48BC-903B-CF0D861777C2";
paths = (
{
closed = 1;
nodes = (
"161 0 LINE",
"642 0 LINE",
"753 95 LINE",
"753 595 LINE",
"897 595 LINE",
"1050 801 LINE",
"829 801 LINE",
"794 683 LINE",
"753 683 LINE",
"753 737 LINE",
"468 737 LINE",
"468 153 LINE",
"335 153 LINE",
"335 737 LINE",
"50 737 LINE",
"50 95 LINE"
);
}
);
width = 803;
}
);
note = Uhorn;
unicode = 01AF;
},
{
glyphname = uni1EE8;
layers = (
{
hints = (
{
horizontal = 1;
place = "{0, 153}";
type = Stem;
},
{
horizontal = 1;
place = "{595, 142}";
type = Stem;
},
{
horizontal = 1;
place = "{789, 163}";
type = Stem;
},
{
place = "{50, 285}";
type = Stem;
},
{
place = "{468, 285}";
type = Stem;
},
{
horizontal = 1;
place = "{595, 206}";
type = Stem;
},
{
horizontal = 1;
place = "{595, 88}";
type = Stem;
}
);
layerId = "E328F9F0-3A13-48BC-903B-CF0D861777C2";
paths = (
{
closed = 1;
nodes = (
"314 789 LINE",
"486 789 LINE",
"648 952 LINE",
"423 952 LINE"
);
},
{
closed = 1;
nodes = (
"161 0 LINE",
"642 0 LINE",
"753 95 LINE",
"753 595 LINE",
"897 595 LINE",
"1050 801 LINE",
"829 801 LINE",
"794 683 LINE",
"753 683 LINE",
"753 737 LINE",
"468 737 LINE",
"468 153 LINE",
"335 153 LINE",
"335 737 LINE",
"50 737 LINE",
"50 95 LINE"
);
}
);
width = 803;
}
);
note = uni1EE8;
unicode = 1EE8;
},
{
glyphname = uni1EF0;
layers = (
{
hints = (
{
horizontal = 1;
place = "{-209, 158}";
type = Stem;
},
{
horizontal = 1;
place = "{0, 153}";
type = Stem;
},
{
horizontal = 1;
place = "{595, 142}";
type = Stem;
},
{
place = "{50, 285}";
type = Stem;
},
{
place = "{468, 285}";
type = Stem;
},
{
horizontal = 1;
place = "{595, 206}";
type = Stem;
},
{
horizontal = 1;
place = "{595, 88}";
type = Stem;
},
{
place = "{270.5, 263}";
type = Stem;
}
);
layerId = "E328F9F0-3A13-48BC-903B-CF0D861777C2";
paths = (
{
closed = 1;
nodes = (
"161 0 LINE",
"642 0 LINE",
"753 95 LINE",
"753 595 LINE",
"897 595 LINE",
"1050 801 LINE",
"829 801 LINE",
"794 683 LINE",
"753 683 LINE",
"753 737 LINE",
"468 737 LINE",
"468 153 LINE",
"335 153 LINE",
"335 737 LINE",
"50 737 LINE",
"50 95 LINE"
);
},
{
closed = 1;
nodes = (
"270.5 -209 LINE",
"533.5 -209 LINE",
"533.5 -51 LINE",
"270.5 -51 LINE"
);
}
);
width = 803;
}
);
note = uni1EF0;
unicode = 1EF0;
},
{
glyphname = uni1EEA;
layers = (
{
hints = (
{
horizontal = 1;
place = "{0, 153}";
type = Stem;
},
{
horizontal = 1;
place = "{595, 142}";
type = Stem;
},
{
horizontal = 1;
place = "{789, 163}";
type = Stem;
},
{
place = "{50, 285}";
type = Stem;
},
{
place = "{468, 285}";
type = Stem;
},
{
horizontal = 1;
place = "{595, 206}";
type = Stem;
},
{
horizontal = 1;
place = "{595, 88}";
type = Stem;
}
);
layerId = "E328F9F0-3A13-48BC-903B-CF0D861777C2";
paths = (
{
closed = 1;
nodes = (
"319 789 LINE",
"491 789 LINE",
"382 952 LINE",
"157 952 LINE"
);
},
{
closed = 1;
nodes = (
"161 0 LINE",
"642 0 LINE",
"753 95 LINE",
"753 595 LINE",
"897 595 LINE",
"1050 801 LINE",
"829 801 LINE",
"794 683 LINE",
"753 683 LINE",
"753 737 LINE",
"468 737 LINE",
"468 153 LINE",
"335 153 LINE",
"335 737 LINE",
"50 737 LINE",
"50 95 LINE"
);
}
);
width = 803;
}
);
note = uni1EEA;
unicode = 1EEA;
},
{
glyphname = uni1EEC;
layers = (
{
hints = (
{
horizontal = 1;
place = "{0, 153}";
type = Stem;
},
{
horizontal = 1;
place = "{595, 142}";
type = Stem;
},
{
horizontal = 1;
place = "{789, 106}";
type = Stem;
},
{
horizontal = 1;
place = "{920, 107}";
type = Stem;
},
{
place = "{323, 12}";
type = Stem;
},
{
place = "{468, 13}";
type = Stem;
},
{
horizontal = 1;
place = "{828, 67}";
type = Stem;
},
{
place = "{50, 285}";
type = Stem;
},
{
place = "{421, 150}";
type = Stem;
},
{
place = "{244, 145}";
type = Stem;
},
{
horizontal = 1;
place = "{961, 66}";
type = Stem;
},
{
place = "{468, 285}";
type = Stem;
},
{
horizontal = 1;
place = "{595, 206}";
type = Stem;
},
{
horizontal = 1;
place = "{595, 88}";
type = Stem;
}
);
layerId = "E328F9F0-3A13-48BC-903B-CF0D861777C2";
paths = (
{
closed = 1;
nodes = (
"323 789 LINE",
"481 789 LINE",
"481 828 LINE",
"523 828 LINE",
"571 866 LINE",
"571 985 LINE",
"522 1027 LINE",
"299 1027 LINE",
"244 985 LINE",
"244 920 LINE",
"389 920 LINE",
"389 961 LINE",
"421 961 LINE",
"421 895 LINE",
"362 895 LINE",
"323 866 LINE"
);
},
{
closed = 1;
nodes = (
"161 0 LINE",
"642 0 LINE",
"753 95 LINE",
"753 595 LINE",
"897 595 LINE",
"1050 801 LINE",
"829 801 LINE",
"794 683 LINE",
"753 683 LINE",
"753 737 LINE",
"468 737 LINE",
"468 153 LINE",
"335 153 LINE",
"335 737 LINE",
"50 737 LINE",
"50 95 LINE"
);
}
);
width = 803;
}
);
note = uni1EEC;
unicode = 1EEC;
},
{
glyphname = uni1EEE;
layers = (
{
hints = (
{
horizontal = 1;
place = "{0, 153}";
type = Stem;
},
{
horizontal = 1;
place = "{595, 142}";
type = Stem;
},
{
horizontal = 1;
place = "{789, 161}";
type = Stem;
},
{
place = "{50, 285}";
type = Stem;
},
{
place = "{468, 285}";
type = Stem;
},
{
place = "{509, 147}";
type = Stem;
},
{
horizontal = 1;
place = "{861, 89}";
type = Stem;
},
{
horizontal = 1;
place = "{789, 113}";
type = Stem;
},
{
horizontal = 1;
place = "{795, 162}";
type = Stem;
},
{
place = "{150, 185}";
type = Stem;
},
{
place = "{150, 147}";
type = Stem;
},
{
horizontal = 1;
place = "{843, 114}";
type = Stem;
},
{
horizontal = 1;
place = "{595, 206}";
type = Stem;
},
{
horizontal = 1;
place = "{595, 88}";
type = Stem;
}
);
layerId = "E328F9F0-3A13-48BC-903B-CF0D861777C2";
paths = (
{
closed = 1;
nodes = (
"380 789 LINE",
"572 789 LINE",
"656 861 LINE",
"656 950 LINE",
"509 950 LINE",
"509 917 LINE",
"493 902 LINE",
"475 902 LINE",
"426 957 LINE",
"233 957 LINE",
"150 883 LINE",
"150 795 LINE",
"297 795 LINE",
"297 827 LINE",
"313 843 LINE",
"330 843 LINE"
);
},
{
closed = 1;
nodes = (
"161 0 LINE",
"642 0 LINE",
"753 95 LINE",
"753 595 LINE",
"897 595 LINE",
"1050 801 LINE",
"829 801 LINE",
"794 683 LINE",
"753 683 LINE",
"753 737 LINE",
"468 737 LINE",
"468 153 LINE",
"335 153 LINE",
"335 737 LINE",
"50 737 LINE",
"50 95 LINE"
);
}
);
width = 803;
}
);
note = uni1EEE;
unicode = 1EEE;
},
{
glyphname = Uhungarumlaut;
layers = (
{
hints = (
{
horizontal = 1;
place = "{0, 153}";
type = Stem;
},
{
horizontal = 1;
place = "{789, 165}";
type = Stem;
},
{
place = "{50, 285}";
type = Stem;
},
{
place = "{468, 285}";
type = Stem;
}
);
layerId = "E328F9F0-3A13-48BC-903B-CF0D861777C2";
paths = (
{
closed = 1;
nodes = (
"192 789 LINE",
"365 789 LINE",
"529 954 LINE",
"289 954 LINE"
);
},
{
closed = 1;
nodes = (
"455 789 LINE",
"628 789 LINE",
"792 954 LINE",
"552 954 LINE"
);
},
{
closed = 1;
nodes = (
"161 0 LINE",
"642 0 LINE",
"753 95 LINE",
"753 737 LINE",
"468 737 LINE",
"468 153 LINE",
"335 153 LINE",
"335 737 LINE",
"50 737 LINE",
"50 95 LINE"
);
}
);
width = 803;
}
);
note = Uhungarumlaut;
unicode = 0170;
},
{
glyphname = uni0216;
layers = (
{
hints = (
{
horizontal = 1;
place = "{0, 153}";
type = Stem;
},
{
horizontal = 1;
place = "{789, 163}";
type = Stem;
},
{
place = "{160, 175}";
type = Stem;
},
{
place = "{468, 285}";
type = Stem;
},
{
place = "{160, 191}";
type = Stem;
},
{
horizontal = 1;
place = "{841, 111}";
type = Stem;
},
{
place = "{453, 191}";
type = Stem;
},
{
place = "{50, 285}";
type = Stem;
},
{
place = "{468, 176}";
type = Stem;
}
);
layerId = "E328F9F0-3A13-48BC-903B-CF0D861777C2";
paths = (
{
closed = 1;
nodes = (
"160 789 LINE",
"351 789 LINE",
"351 841 LINE",
"453 841 LINE",
"453 789 LINE",
"644 789 LINE",
"644 864 LINE",
"541 952 LINE",
"263 952 LINE",
"160 864 LINE"
);
},
{
closed = 1;
nodes = (
"161 0 LINE",
"642 0 LINE",
"753 95 LINE",
"753 737 LINE",
"468 737 LINE",
"468 153 LINE",
"335 153 LINE",
"335 737 LINE",
"50 737 LINE",
"50 95 LINE"
);
}
);
width = 803;
}
);
note = uni0216;
unicode = 0216;
},
{
glyphname = Umacron;
layers = (
{
hints = (
{
horizontal = 1;
place = "{0, 153}";
type = Stem;
},
{
horizontal = 1;
place = "{789, 149}";
type = Stem;
},
{
place = "{129, 206}";
type = Stem;
},
{
place = "{468, 207}";
type = Stem;
},
{
place = "{50, 285}";
type = Stem;
},
{
place = "{468, 285}";
type = Stem;
}
);
layerId = "E328F9F0-3A13-48BC-903B-CF0D861777C2";
paths = (
{
closed = 1;
nodes = (
"129 789 LINE",
"675 789 LINE",
"675 938 LINE",
"129 938 LINE"
);
},
{
closed = 1;
nodes = (
"161 0 LINE",
"642 0 LINE",
"753 95 LINE",
"753 737 LINE",
"468 737 LINE",
"468 153 LINE",
"335 153 LINE",
"335 737 LINE",
"50 737 LINE",
"50 95 LINE"
);
}
);
width = 803;
}
);
note = Umacron;
unicode = 016A;
},
{
glyphname = Uogonek;
layers = (
{
hints = (
{
horizontal = 1;
place = "{-191, 127}";
type = Stem;
},
{
horizontal = 1;
place = "{0, 153}";
type = Stem;
},
{
place = "{313, 174}";
type = Stem;
},
{
place = "{313, 135}";
type = Stem;
},
{
place = "{468, 285}";
type = Stem;
},
{
place = "{50, 285}";
type = Stem;
}
);
layerId = "E328F9F0-3A13-48BC-903B-CF0D861777C2";
paths = (
{
closed = 1;
nodes = (
"396 -191 LINE",
"487 -191 LINE",
"487 -64 LINE",
"464 -64 LINE",
"448 -50 LINE",
"448 -26 LINE",
"478 0 LINE",
"642 0 LINE",
"753 95 LINE",
"753 737 LINE",
"468 737 LINE",
"468 153 LINE",
"335 153 LINE",
"335 737 LINE",
"50 737 LINE",
"50 95 LINE",
"161 0 LINE",
"358 0 LINE",
"313 -33 LINE",
"313 -122 LINE"
);
}
);
width = 803;
}
);
note = Uogonek;
unicode = 0172;
},
{
glyphname = Uring;
layers = (
{
hints = (
{
horizontal = 1;
place = "{0, 153}";
type = Stem;
},
{
horizontal = 1;
place = "{789, 97}";
type = Stem;
},
{
horizontal = 1;
place = "{932, 97}";
type = Stem;
},
{
place = "{50, 285}";
type = Stem;
},
{
place = "{468, 285}";
type = Stem;
},
{
place = "{263.5, 71.5}";
type = Stem;
},
{
place = "{468, 72.5}";
type = Stem;
},
{
place = "{263.5, 115.5}";
type = Stem;
},
{
place = "{425, 115.5}";
type = Stem;
}
);
layerId = "E328F9F0-3A13-48BC-903B-CF0D861777C2";
paths = (
{
closed = 1;
nodes = (
"339.5 789 LINE",
"464.5 789 LINE",
"540.5 865 LINE",
"540.5 953 LINE",
"464.5 1029 LINE",
"339.5 1029 LINE",
"263.5 953 LINE",
"263.5 865 LINE"
);
},
{
closed = 1;
nodes = (
"393 886 LINE",
"379 900 LINE",
"379 917 LINE",
"393 932 LINE",
"410 932 LINE",
"425 917 LINE",
"425 900 LINE",
"410 886 LINE"
);
},
{
closed = 1;
nodes = (
"161 0 LINE",
"642 0 LINE",
"753 95 LINE",
"753 737 LINE",
"468 737 LINE",
"468 153 LINE",
"335 153 LINE",
"335 737 LINE",
"50 737 LINE",
"50 95 LINE"
);
}
);
width = 803;
}
);
note = Uring;
unicode = 016E;
},
{
glyphname = Utilde;
layers = (
{
hints = (
{
horizontal = 1;
place = "{0, 153}";
type = Stem;
},
{
horizontal = 1;
place = "{789, 161}";
type = Stem;
},
{
place = "{50, 285}";
type = Stem;
},
{
place = "{468, 285}";
type = Stem;
},
{
place = "{509, 147}";
type = Stem;
},
{
horizontal = 1;
place = "{861, 89}";
type = Stem;
},
{
horizontal = 1;
place = "{789, 113}";
type = Stem;
},
{
horizontal = 1;
place = "{795, 162}";
type = Stem;
},
{
place = "{150, 185}";
type = Stem;
},
{
place = "{150, 147}";
type = Stem;
},
{
horizontal = 1;
place = "{843, 114}";
type = Stem;
}
);
layerId = "E328F9F0-3A13-48BC-903B-CF0D861777C2";
paths = (
{
closed = 1;
nodes = (
"380 789 LINE",
"572 789 LINE",
"656 861 LINE",
"656 950 LINE",
"509 950 LINE",
"509 917 LINE",
"493 902 LINE",
"475 902 LINE",
"426 957 LINE",
"233 957 LINE",
"150 883 LINE",
"150 795 LINE",
"297 795 LINE",
"297 827 LINE",
"313 843 LINE",
"330 843 LINE"
);
},
{
closed = 1;
nodes = (
"161 0 LINE",
"642 0 LINE",
"753 95 LINE",
"753 737 LINE",
"468 737 LINE",
"468 153 LINE",
"335 153 LINE",
"335 737 LINE",
"50 737 LINE",
"50 95 LINE"
);
}
);
width = 803;
}
);
note = Utilde;
unicode = 0168;
},
{
glyphname = V;
layers = (
{
hints = (
{
horizontal = 1;
place = "{0, 186}";
type = Stem;
},
{
place = "{39, 726}";
type = Stem;
}
);
layerId = "E328F9F0-3A13-48BC-903B-CF0D861777C2";
paths = (
{
closed = 1;
nodes = (
"216 0 LINE",
"589 0 LINE",
"765 496 LINE",
"765 737 LINE",
"490 737 LINE",
"423 186 LINE",
"381 186 LINE",
"315 737 LINE",
"39 737 LINE",
"39 496 LINE"
);
}
);
width = 803;
}
);
leftKerningGroup = V;
note = V;
rightKerningGroup = V;
unicode = 0056;
},
{
glyphname = W;
layers = (
{
hints = (
{
horizontal = 1;
place = "{0, 186}";
type = Stem;
},
{
place = "{50, 1046}";
type = Stem;
}
);
layerId = "E328F9F0-3A13-48BC-903B-CF0D861777C2";
paths = (
{
closed = 1;
nodes = (
"200 0 LINE",
"505 0 LINE",
"574 171 LINE",
"641 0 LINE",
"947 0 LINE",
"1096 476 LINE",
"1096 737 LINE",
"810 737 LINE",
"771 186 LINE",
"729 186 LINE",
"690 737 LINE",
"456 737 LINE",
"417 186 LINE",
"376 186 LINE",
"337 737 LINE",
"50 737 LINE",
"50 476 LINE"
);
}
);
width = 1145;
}
);
leftKerningGroup = W;
note = W;
rightKerningGroup = W;
unicode = 0057;
},
{
glyphname = Wacute;
layers = (
{
hints = (
{
horizontal = 1;
place = "{0, 186}";
type = Stem;
},
{
horizontal = 1;
place = "{789, 163}";
type = Stem;
},
{
place = "{50, 1046}";
type = Stem;
}
);
layerId = "E328F9F0-3A13-48BC-903B-CF0D861777C2";
paths = (
{
closed = 1;
nodes = (
"486 789 LINE",
"658 789 LINE",
"820 952 LINE",
"595 952 LINE"
);
},
{
closed = 1;
nodes = (
"200 0 LINE",
"505 0 LINE",
"574 171 LINE",
"641 0 LINE",
"947 0 LINE",
"1096 476 LINE",
"1096 737 LINE",
"810 737 LINE",
"771 186 LINE",
"729 186 LINE",
"690 737 LINE",
"456 737 LINE",
"417 186 LINE",
"376 186 LINE",
"337 737 LINE",
"50 737 LINE",
"50 476 LINE"
);
}
);
width = 1145;
}
);
leftKerningGroup = W;
note = Wacute;
rightKerningGroup = W;
unicode = 1E82;
},
{
glyphname = Wcircumflex;
layers = (
{
hints = (
{
horizontal = 1;
place = "{0, 186}";
type = Stem;
},
{
horizontal = 1;
place = "{789, 163}";
type = Stem;
},
{
place = "{50, 1046}";
type = Stem;
},
{
horizontal = 1;
place = "{865, 87}";
type = Stem;
}
);
layerId = "E328F9F0-3A13-48BC-903B-CF0D861777C2";
paths = (
{
closed = 1;
nodes = (
"311 789 LINE",
"498 789 LINE",
"574 865 LINE",
"650 789 LINE",
"837 789 LINE",
"714 952 LINE",
"434 952 LINE"
);
},
{
closed = 1;
nodes = (
"200 0 LINE",
"505 0 LINE",
"574 171 LINE",
"641 0 LINE",
"947 0 LINE",
"1096 476 LINE",
"1096 737 LINE",
"810 737 LINE",
"771 186 LINE",
"729 186 LINE",
"690 737 LINE",
"456 737 LINE",
"417 186 LINE",
"376 186 LINE",
"337 737 LINE",
"50 737 LINE",
"50 476 LINE"
);
}
);
width = 1145;
}
);
leftKerningGroup = W;
note = Wcircumflex;
rightKerningGroup = W;
unicode = 0174;
},
{
glyphname = Wdieresis;
layers = (
{
hints = (
{
horizontal = 1;
place = "{0, 186}";
type = Stem;
},
{
horizontal = 1;
place = "{789, 158}";
type = Stem;
},
{
place = "{301, 239}";
type = Stem;
},
{
place = "{608, 239}";
type = Stem;
}
);
layerId = "E328F9F0-3A13-48BC-903B-CF0D861777C2";
paths = (
{
closed = 1;
nodes = (
"301 789 LINE",
"540 789 LINE",
"540 947 LINE",
"301 947 LINE"
);
},
{
closed = 1;
nodes = (
"608 789 LINE",
"847 789 LINE",
"847 947 LINE",
"608 947 LINE"
);
},
{
closed = 1;
nodes = (
"200 0 LINE",
"505 0 LINE",
"574 171 LINE",
"641 0 LINE",
"947 0 LINE",
"1096 476 LINE",
"1096 737 LINE",
"810 737 LINE",
"771 186 LINE",
"729 186 LINE",
"690 737 LINE",
"456 737 LINE",
"417 186 LINE",
"376 186 LINE",
"337 737 LINE",
"50 737 LINE",
"50 476 LINE"
);
}
);
width = 1145;
}
);
leftKerningGroup = W;
note = Wdieresis;
rightKerningGroup = W;
unicode = 1E84;
},
{
glyphname = Wgrave;
layers = (
{
hints = (
{
horizontal = 1;
place = "{0, 186}";
type = Stem;
},
{
horizontal = 1;
place = "{789, 163}";
type = Stem;
},
{
place = "{50, 1046}";
type = Stem;
}
);
layerId = "E328F9F0-3A13-48BC-903B-CF0D861777C2";
paths = (
{
closed = 1;
nodes = (
"491 789 LINE",
"663 789 LINE",
"554 952 LINE",
"329 952 LINE"
);
},
{
closed = 1;
nodes = (
"200 0 LINE",
"505 0 LINE",
"574 171 LINE",
"641 0 LINE",
"947 0 LINE",
"1096 476 LINE",
"1096 737 LINE",
"810 737 LINE",
"771 186 LINE",
"729 186 LINE",
"690 737 LINE",
"456 737 LINE",
"417 186 LINE",
"376 186 LINE",
"337 737 LINE",
"50 737 LINE",
"50 476 LINE"
);
}
);
width = 1145;
}
);
leftKerningGroup = W;
note = Wgrave;
rightKerningGroup = W;
unicode = 1E80;
},
{
glyphname = X;
layers = (
{
hints = (
{
horizontal = 1;
place = "{288, 170}";
type = Stem;
},
{
place = "{50, 719}";
type = Stem;
}
);
layerId = "E328F9F0-3A13-48BC-903B-CF0D861777C2";
paths = (
{
closed = 1;
nodes = (
"50 0 LINE",
"339 0 LINE",
"389 288 LINE",
"431 288 LINE",
"480 0 LINE",
"769 0 LINE",
"769 227 LINE",
"648 380 LINE",
"769 524 LINE",
"769 737 LINE",
"480 737 LINE",
"431 458 LINE",
"389 458 LINE",
"339 737 LINE",
"50 737 LINE",
"50 524 LINE",
"172 380 LINE",
"50 227 LINE"
);
}
);
width = 818;
}
);
leftKerningGroup = X;
note = X;
rightKerningGroup = X;
unicode = 0058;
},
{
glyphname = Y;
layers = (
{
hints = (
{
horizontal = 1;
place = "{0, 737}";
type = Stem;
},
{
place = "{237, 279}";
type = Stem;
}
);
layerId = "E328F9F0-3A13-48BC-903B-CF0D861777C2";
paths = (
{
closed = 1;
nodes = (
"237 0 LINE",
"516 0 LINE",
"516 220 LINE",
"676 359 LINE",
"736 737 LINE",
"447 737 LINE",
"398 367 LINE",
"356 367 LINE",
"306 737 LINE",
"17 737 LINE",
"78 359 LINE",
"237 220 LINE"
);
}
);
width = 753;
}
);
leftKerningGroup = Y;
note = Y;
rightKerningGroup = Y;
unicode = 0059;
},
{
glyphname = Yacute;
layers = (
{
hints = (
{
horizontal = 1;
place = "{789, 163}";
type = Stem;
},
{
place = "{237, 279}";
type = Stem;
}
);
layerId = "E328F9F0-3A13-48BC-903B-CF0D861777C2";
paths = (
{
closed = 1;
nodes = (
"622.5 952 LINE",
"397.5 952 LINE",
"288.5 789 LINE",
"460.5 789 LINE"
);
},
{
closed = 1;
nodes = (
"447 737 LINE",
"398 367 LINE",
"356 367 LINE",
"306 737 LINE",
"17 737 LINE",
"78 359 LINE",
"237 220 LINE",
"237 0 LINE",
"516 0 LINE",
"516 220 LINE",
"676 359 LINE",
"736 737 LINE"
);
}
);
width = 753;
}
);
leftKerningGroup = Y;
note = Yacute;
rightKerningGroup = Y;
unicode = 00DD;
},
{
glyphname = Ycircumflex;
layers = (
{
hints = (
{
horizontal = 1;
place = "{789, 163}";
type = Stem;
},
{
place = "{237, 279}";
type = Stem;
},
{
horizontal = 1;
place = "{865, 87}";
type = Stem;
}
);
layerId = "E328F9F0-3A13-48BC-903B-CF0D861777C2";
paths = (
{
closed = 1;
nodes = (
"113.5 789 LINE",
"300.5 789 LINE",
"376.5 865 LINE",
"452.5 789 LINE",
"639.5 789 LINE",
"516.5 952 LINE",
"236.5 952 LINE"
);
},
{
closed = 1;
nodes = (
"237 0 LINE",
"516 0 LINE",
"516 220 LINE",
"676 359 LINE",
"736 737 LINE",
"447 737 LINE",
"398 367 LINE",
"356 367 LINE",
"306 737 LINE",
"17 737 LINE",
"78 359 LINE",
"237 220 LINE"
);
}
);
width = 753;
}
);
leftKerningGroup = Y;
note = Ycircumflex;
rightKerningGroup = Y;
unicode = 0176;
},
{
glyphname = Ydieresis;
layers = (
{
hints = (
{
horizontal = 1;
place = "{789, 158}";
type = Stem;
},
{
place = "{103.5, 239}";
type = Stem;
},
{
place = "{410.5, 239}";
type = Stem;
},
{
place = "{237, 279}";
type = Stem;
}
);
layerId = "E328F9F0-3A13-48BC-903B-CF0D861777C2";
paths = (
{
closed = 1;
nodes = (
"103.5 789 LINE",
"342.5 789 LINE",
"342.5 947 LINE",
"103.5 947 LINE"
);
},
{
closed = 1;
nodes = (
"410.5 789 LINE",
"649.5 789 LINE",
"649.5 947 LINE",
"410.5 947 LINE"
);
},
{
closed = 1;
nodes = (
"237 0 LINE",
"516 0 LINE",
"516 220 LINE",
"676 359 LINE",
"736 737 LINE",
"447 737 LINE",
"398 367 LINE",
"356 367 LINE",
"306 737 LINE",
"17 737 LINE",
"78 359 LINE",
"237 220 LINE"
);
}
);
width = 753;
}
);
leftKerningGroup = Y;
note = Ydieresis;
rightKerningGroup = Y;
unicode = 0178;
},
{
glyphname = uni1EF4;
layers = (
{
hints = (
{
horizontal = 1;
place = "{-209, 158}";
type = Stem;
},
{
place = "{237, 279}";
type = Stem;
},
{
place = "{245, 263}";
type = Stem;
}
);
layerId = "E328F9F0-3A13-48BC-903B-CF0D861777C2";
paths = (
{
closed = 1;
nodes = (
"237 0 LINE",
"516 0 LINE",
"516 220 LINE",
"676 359 LINE",
"736 737 LINE",
"447 737 LINE",
"398 367 LINE",
"356 367 LINE",
"306 737 LINE",
"17 737 LINE",
"78 359 LINE",
"237 220 LINE"
);
},
{
closed = 1;
nodes = (
"245 -209 LINE",
"508 -209 LINE",
"508 -51 LINE",
"245 -51 LINE"
);
}
);
width = 753;
}
);
leftKerningGroup = Y;
note = uni1EF4;
rightKerningGroup = Y;
unicode = 1EF4;
},
{
glyphname = Ygrave;
layers = (
{
hints = (
{
horizontal = 1;
place = "{789, 163}";
type = Stem;
},
{
place = "{237, 279}";
type = Stem;
}
);
layerId = "E328F9F0-3A13-48BC-903B-CF0D861777C2";
paths = (
{
closed = 1;
nodes = (
"293.5 789 LINE",
"465.5 789 LINE",
"356.5 952 LINE",
"131.5 952 LINE"
);
},
{
closed = 1;
nodes = (
"237 0 LINE",
"516 0 LINE",
"516 220 LINE",
"676 359 LINE",
"736 737 LINE",
"447 737 LINE",
"398 367 LINE",
"356 367 LINE",
"306 737 LINE",
"17 737 LINE",
"78 359 LINE",
"237 220 LINE"
);
}
);
width = 753;
}
);
leftKerningGroup = Y;
note = Ygrave;
rightKerningGroup = Y;
unicode = 1EF2;
},
{
glyphname = uni1EF6;
layers = (
{
hints = (
{
horizontal = 1;
place = "{789, 106}";
type = Stem;
},
{
horizontal = 1;
place = "{920, 107}";
type = Stem;
},
{
place = "{297.5, 158}";
type = Stem;
},
{
horizontal = 1;
place = "{828, 67}";
type = Stem;
},
{
place = "{395.5, 150}";
type = Stem;
},
{
place = "{218.5, 145}";
type = Stem;
},
{
horizontal = 1;
place = "{961, 66}";
type = Stem;
},
{
place = "{237, 279}";
type = Stem;
}
);
layerId = "E328F9F0-3A13-48BC-903B-CF0D861777C2";
paths = (
{
closed = 1;
nodes = (
"297.5 789 LINE",
"455.5 789 LINE",
"455.5 828 LINE",
"497.5 828 LINE",
"545.5 866 LINE",
"545.5 985 LINE",
"496.5 1027 LINE",
"273.5 1027 LINE",
"218.5 985 LINE",
"218.5 920 LINE",
"363.5 920 LINE",
"363.5 961 LINE",
"395.5 961 LINE",
"395.5 895 LINE",
"336.5 895 LINE",
"297.5 866 LINE"
);
},
{
closed = 1;
nodes = (
"237 0 LINE",
"516 0 LINE",
"516 220 LINE",
"676 359 LINE",
"736 737 LINE",
"447 737 LINE",
"398 367 LINE",
"356 367 LINE",
"306 737 LINE",
"17 737 LINE",
"78 359 LINE",
"237 220 LINE"
);
}
);
width = 753;
}
);
leftKerningGroup = Y;
note = uni1EF6;
rightKerningGroup = Y;
unicode = 1EF6;
},
{
glyphname = uni0232;
layers = (
{
hints = (
{
horizontal = 1;
place = "{789, 149}";
type = Stem;
},
{
place = "{103.5, 546}";
type = Stem;
},
{
place = "{237, 279}";
type = Stem;
}
);
layerId = "E328F9F0-3A13-48BC-903B-CF0D861777C2";
paths = (
{
closed = 1;
nodes = (
"103.5 789 LINE",
"649.5 789 LINE",
"649.5 938 LINE",
"103.5 938 LINE"
);
},
{
closed = 1;
nodes = (
"237 0 LINE",
"516 0 LINE",
"516 220 LINE",
"676 359 LINE",
"736 737 LINE",
"447 737 LINE",
"398 367 LINE",
"356 367 LINE",
"306 737 LINE",
"17 737 LINE",
"78 359 LINE",
"237 220 LINE"
);
}
);
width = 753;
}
);
leftKerningGroup = Y;
note = uni0232;
rightKerningGroup = Y;
unicode = 0232;
},
{
glyphname = uni1EF8;
layers = (
{
hints = (
{
horizontal = 1;
place = "{789, 161}";
type = Stem;
},
{
place = "{237, 279}";
type = Stem;
},
{
place = "{483.5, 147}";
type = Stem;
},
{
horizontal = 1;
place = "{861, 89}";
type = Stem;
},
{
horizontal = 1;
place = "{789, 113}";
type = Stem;
},
{
horizontal = 1;
place = "{795, 162}";
type = Stem;
},
{
place = "{124.5, 147}";
type = Stem;
},
{
horizontal = 1;
place = "{843, 114}";
type = Stem;
}
);
layerId = "E328F9F0-3A13-48BC-903B-CF0D861777C2";
paths = (
{
closed = 1;
nodes = (
"354.5 789 LINE",
"546.5 789 LINE",
"630.5 861 LINE",
"630.5 950 LINE",
"483.5 950 LINE",
"483.5 917 LINE",
"467.5 902 LINE",
"449.5 902 LINE",
"400.5 957 LINE",
"207.5 957 LINE",
"124.5 883 LINE",
"124.5 795 LINE",
"271.5 795 LINE",
"271.5 827 LINE",
"287.5 843 LINE",
"304.5 843 LINE"
);
},
{
closed = 1;
nodes = (
"237 0 LINE",
"516 0 LINE",
"516 220 LINE",
"676 359 LINE",
"736 737 LINE",
"447 737 LINE",
"398 367 LINE",
"356 367 LINE",
"306 737 LINE",
"17 737 LINE",
"78 359 LINE",
"237 220 LINE"
);
}
);
width = 753;
}
);
leftKerningGroup = Y;
note = uni1EF8;
rightKerningGroup = Y;
unicode = 1EF8;
},
{
glyphname = Z;
layers = (
{
hints = (
{
horizontal = 1;
place = "{0, 197}";
type = Stem;
},
{
horizontal = 1;
place = "{540, 197}";
type = Stem;
},
{
place = "{33, 641}";
type = Stem;
}
);
layerId = "E328F9F0-3A13-48BC-903B-CF0D861777C2";
paths = (
{
closed = 1;
nodes = (
"33 0 LINE",
"674 0 LINE",
"674 197 LINE",
"348 197 LINE",
"674 529 LINE",
"674 737 LINE",
"48 737 LINE",
"48 540 LINE",
"362 540 LINE",
"33 208 LINE"
);
}
);
width = 707;
}
);
leftKerningGroup = Z;
note = Z;
rightKerningGroup = Z;
unicode = 005A;
},
{
glyphname = Zacute;
layers = (
{
hints = (
{
horizontal = 1;
place = "{0, 197}";
type = Stem;
},
{
horizontal = 1;
place = "{540, 197}";
type = Stem;
},
{
horizontal = 1;
place = "{789, 163}";
type = Stem;
},
{
place = "{33, 641}";
type = Stem;
}
);
layerId = "E328F9F0-3A13-48BC-903B-CF0D861777C2";
paths = (
{
closed = 1;
nodes = (
"277 789 LINE",
"449 789 LINE",
"611 952 LINE",
"386 952 LINE"
);
},
{
closed = 1;
nodes = (
"33 0 LINE",
"674 0 LINE",
"674 197 LINE",
"348 197 LINE",
"674 529 LINE",
"674 737 LINE",
"48 737 LINE",
"48 540 LINE",
"362 540 LINE",
"33 208 LINE"
);
}
);
width = 707;
}
);
leftKerningGroup = Z;
note = Zacute;
rightKerningGroup = Z;
unicode = 0179;
},
{
glyphname = Zcaron;
layers = (
{
hints = (
{
horizontal = 1;
place = "{0, 197}";
type = Stem;
},
{
horizontal = 1;
place = "{540, 197}";
type = Stem;
},
{
horizontal = 1;
place = "{789, 163}";
type = Stem;
},
{
place = "{33, 641}";
type = Stem;
}
);
layerId = "E328F9F0-3A13-48BC-903B-CF0D861777C2";
paths = (
{
closed = 1;
nodes = (
"225 789 LINE",
"505 789 LINE",
"628 952 LINE",
"441 952 LINE",
"365 876 LINE",
"289 952 LINE",
"102 952 LINE"
);
},
{
closed = 1;
nodes = (
"33 0 LINE",
"674 0 LINE",
"674 197 LINE",
"348 197 LINE",
"674 529 LINE",
"674 737 LINE",
"48 737 LINE",
"48 540 LINE",
"362 540 LINE",
"33 208 LINE"
);
}
);
width = 707;
}
);
leftKerningGroup = Z;
note = Zcaron;
rightKerningGroup = Z;
unicode = 017D;
},
{
glyphname = Zdotaccent;
layers = (
{
hints = (
{
horizontal = 1;
place = "{0, 197}";
type = Stem;
},
{
horizontal = 1;
place = "{540, 197}";
type = Stem;
},
{
horizontal = 1;
place = "{789, 158}";
type = Stem;
},
{
place = "{233.5, 263}";
type = Stem;
}
);
layerId = "E328F9F0-3A13-48BC-903B-CF0D861777C2";
paths = (
{
closed = 1;
nodes = (
"233.5 789 LINE",
"496.5 789 LINE",
"496.5 947 LINE",
"233.5 947 LINE"
);
},
{
closed = 1;
nodes = (
"33 0 LINE",
"674 0 LINE",
"674 197 LINE",
"348 197 LINE",
"674 529 LINE",
"674 737 LINE",
"48 737 LINE",
"48 540 LINE",
"362 540 LINE",
"33 208 LINE"
);
}
);
width = 707;
}
);
leftKerningGroup = Z;
note = Zdotaccent;
rightKerningGroup = Z;
unicode = 017B;
},
{
glyphname = a;
layers = (
{
hints = (
{
horizontal = 1;
place = "{0, 107}";
type = Stem;
},
{
horizontal = 1;
place = "{242, 84}";
type = Stem;
},
{
horizontal = 1;
place = "{382, 141}";
type = Stem;
},
{
place = "{17, 238}";
type = Stem;
},
{
place = "{347, 263}";
type = Stem;
},
{
place = "{80, 175}";
type = Stem;
}
);
layerId = "E328F9F0-3A13-48BC-903B-CF0D861777C2";
paths = (
{
closed = 1;
nodes = (
"112 0 LINE",
"289 0 LINE",
"347 62.36 LINE",
"347 0 LINE",
"610 0 LINE",
"610 428 LINE",
"499 523 LINE",
"80 523 LINE",
"80 382 LINE",
"347 382 LINE",
"347 326 LINE",
"112 326 LINE",
"17 215 LINE",
"17 111 LINE"
);
},
{
closed = 1;
nodes = (
"255 107 LINE",
"255 242 LINE",
"347 242 LINE",
"347 167 LINE",
"287 107 LINE"
);
}
);
width = 654;
}
);
leftKerningGroup = a;
note = a;
rightKerningGroup = a;
unicode = 0061;
},
{
glyphname = aacute;
layers = (
{
hints = (
{
horizontal = 1;
place = "{0, 107}";
type = Stem;
},
{
horizontal = 1;
place = "{242, 84}";
type = Stem;
},
{
horizontal = 1;
place = "{382, 141}";
type = Stem;
},
{
horizontal = 1;
place = "{575, 163}";
type = Stem;
},
{
place = "{17, 238}";
type = Stem;
},
{
place = "{347, 263}";
type = Stem;
},
{
place = "{80, 175}";
type = Stem;
}
);
layerId = "E328F9F0-3A13-48BC-903B-CF0D861777C2";
paths = (
{
closed = 1;
nodes = (
"243 575 LINE",
"415 575 LINE",
"577 738 LINE",
"352 738 LINE"
);
},
{
closed = 1;
nodes = (
"112 0 LINE",
"289 0 LINE",
"347 62.36 LINE",
"347 0 LINE",
"610 0 LINE",
"610 428 LINE",
"499 523 LINE",
"80 523 LINE",
"80 382 LINE",
"347 382 LINE",
"347 326 LINE",
"112 326 LINE",
"17 215 LINE",
"17 111 LINE"
);
},
{
closed = 1;
nodes = (
"255 107 LINE",
"255 242 LINE",
"347 242 LINE",
"347 167 LINE",
"287 107 LINE"
);
}
);
width = 654;
}
);
leftKerningGroup = a;
note = aacute;
rightKerningGroup = a;
unicode = 00E1;
},
{
glyphname = abreve;
layers = (
{
hints = (
{
horizontal = 1;
place = "{0, 107}";
type = Stem;
},
{
horizontal = 1;
place = "{242, 84}";
type = Stem;
},
{
horizontal = 1;
place = "{382, 141}";
type = Stem;
},
{
horizontal = 1;
place = "{575, 163}";
type = Stem;
},
{
place = "{17, 238}";
type = Stem;
},
{
place = "{347, 263}";
type = Stem;
},
{
horizontal = 1;
place = "{663, 75}";
type = Stem;
},
{
place = "{382, 191}";
type = Stem;
},
{
horizontal = 1;
place = "{575, 111}";
type = Stem;
},
{
place = "{89, 191}";
type = Stem;
},
{
place = "{80, 175}";
type = Stem;
}
);
layerId = "E328F9F0-3A13-48BC-903B-CF0D861777C2";
paths = (
{
closed = 1;
nodes = (
"192 575 LINE",
"470 575 LINE",
"573 663 LINE",
"573 738 LINE",
"382 738 LINE",
"382 686 LINE",
"280 686 LINE",
"280 738 LINE",
"89 738 LINE",
"89 663 LINE"
);
},
{
closed = 1;
nodes = (
"112 0 LINE",
"289 0 LINE",
"347 62.36 LINE",
"347 0 LINE",
"610 0 LINE",
"610 428 LINE",
"499 523 LINE",
"80 523 LINE",
"80 382 LINE",
"347 382 LINE",
"347 326 LINE",
"112 326 LINE",
"17 215 LINE",
"17 111 LINE"
);
},
{
closed = 1;
nodes = (
"255 107 LINE",
"255 242 LINE",
"347 242 LINE",
"347 167 LINE",
"287 107 LINE"
);
}
);
width = 654;
}
);
leftKerningGroup = a;
note = abreve;
rightKerningGroup = a;
unicode = 0103;
},
{
glyphname = uni1EAF;
layers = (
{
hints = (
{
horizontal = 1;
place = "{0, 107}";
type = Stem;
},
{
horizontal = 1;
place = "{242, 84}";
type = Stem;
},
{
horizontal = 1;
place = "{382, 141}";
type = Stem;
},
{
horizontal = 1;
place = "{575, 163}";
type = Stem;
},
{
horizontal = 1;
place = "{771, 163}";
type = Stem;
},
{
place = "{17, 238}";
type = Stem;
},
{
place = "{347, 263}";
type = Stem;
},
{
horizontal = 1;
place = "{663, 75}";
type = Stem;
},
{
place = "{382, 191}";
type = Stem;
},
{
horizontal = 1;
place = "{575, 111}";
type = Stem;
},
{
place = "{89, 191}";
type = Stem;
},
{
place = "{80, 175}";
type = Stem;
}
);
layerId = "E328F9F0-3A13-48BC-903B-CF0D861777C2";
paths = (
{
closed = 1;
nodes = (
"249 771 LINE",
"421 771 LINE",
"583 934 LINE",
"358 934 LINE"
);
},
{
closed = 1;
nodes = (
"192 575 LINE",
"470 575 LINE",
"573 663 LINE",
"573 738 LINE",
"382 738 LINE",
"382 686 LINE",
"280 686 LINE",
"280 738 LINE",
"89 738 LINE",
"89 663 LINE"
);
},
{
closed = 1;
nodes = (
"112 0 LINE",
"289 0 LINE",
"347 62.36 LINE",
"347 0 LINE",
"610 0 LINE",
"610 428 LINE",
"499 523 LINE",
"80 523 LINE",
"80 382 LINE",
"347 382 LINE",
"347 326 LINE",
"112 326 LINE",
"17 215 LINE",
"17 111 LINE"
);
},
{
closed = 1;
nodes = (
"255 107 LINE",
"255 242 LINE",
"347 242 LINE",
"347 167 LINE",
"287 107 LINE"
);
}
);
width = 654;
}
);
leftKerningGroup = a;
note = uni1EAF;
rightKerningGroup = a;
unicode = 1EAF;
},
{
glyphname = uni1EB7;
layers = (
{
hints = (
{
horizontal = 1;
place = "{-209, 158}";
type = Stem;
},
{
horizontal = 1;
place = "{0, 107}";
type = Stem;
},
{
horizontal = 1;
place = "{242, 84}";
type = Stem;
},
{
horizontal = 1;
place = "{382, 141}";
type = Stem;
},
{
horizontal = 1;
place = "{575, 163}";
type = Stem;
},
{
place = "{17, 238}";
type = Stem;
},
{
place = "{347, 263}";
type = Stem;
},
{
horizontal = 1;
place = "{663, 75}";
type = Stem;
},
{
place = "{382, 191}";
type = Stem;
},
{
horizontal = 1;
place = "{575, 111}";
type = Stem;
},
{
place = "{89, 191}";
type = Stem;
},
{
place = "{80, 175}";
type = Stem;
},
{
place = "{202.5, 263}";
type = Stem;
}
);
layerId = "E328F9F0-3A13-48BC-903B-CF0D861777C2";
paths = (
{
closed = 1;
nodes = (
"192 575 LINE",
"470 575 LINE",
"573 663 LINE",
"573 738 LINE",
"382 738 LINE",
"382 686 LINE",
"280 686 LINE",
"280 738 LINE",
"89 738 LINE",
"89 663 LINE"
);
},
{
closed = 1;
nodes = (
"112 0 LINE",
"289 0 LINE",
"347 62.36 LINE",
"347 0 LINE",
"610 0 LINE",
"610 428 LINE",
"499 523 LINE",
"80 523 LINE",
"80 382 LINE",
"347 382 LINE",
"347 326 LINE",
"112 326 LINE",
"17 215 LINE",
"17 111 LINE"
);
},
{
closed = 1;
nodes = (
"255 107 LINE",
"255 242 LINE",
"347 242 LINE",
"347 167 LINE",
"287 107 LINE"
);
},
{
closed = 1;
nodes = (
"202.5 -209 LINE",
"465.5 -209 LINE",
"465.5 -51 LINE",
"202.5 -51 LINE"
);
}
);
width = 654;
}
);
leftKerningGroup = a;
note = uni1EB7;
rightKerningGroup = a;
unicode = 1EB7;
},
{
glyphname = uni1EB1;
layers = (
{
hints = (
{
horizontal = 1;
place = "{0, 107}";
type = Stem;
},
{
horizontal = 1;
place = "{242, 84}";
type = Stem;
},
{
horizontal = 1;
place = "{382, 141}";
type = Stem;
},
{
horizontal = 1;
place = "{575, 163}";
type = Stem;
},
{
horizontal = 1;
place = "{771, 163}";
type = Stem;
},
{
place = "{17, 238}";
type = Stem;
},
{
place = "{347, 263}";
type = Stem;
},
{
horizontal = 1;
place = "{663, 75}";
type = Stem;
},
{
place = "{382, 191}";
type = Stem;
},
{
horizontal = 1;
place = "{575, 111}";
type = Stem;
},
{
place = "{89, 191}";
type = Stem;
},
{
place = "{80, 175}";
type = Stem;
}
);
layerId = "E328F9F0-3A13-48BC-903B-CF0D861777C2";
paths = (
{
closed = 1;
nodes = (
"241 771 LINE",
"413 771 LINE",
"304 934 LINE",
"79 934 LINE"
);
},
{
closed = 1;
nodes = (
"192 575 LINE",
"470 575 LINE",
"573 663 LINE",
"573 738 LINE",
"382 738 LINE",
"382 686 LINE",
"280 686 LINE",
"280 738 LINE",
"89 738 LINE",
"89 663 LINE"
);
},
{
closed = 1;
nodes = (
"112 0 LINE",
"289 0 LINE",
"347 62.36 LINE",
"347 0 LINE",
"610 0 LINE",
"610 428 LINE",
"499 523 LINE",
"80 523 LINE",
"80 382 LINE",
"347 382 LINE",
"347 326 LINE",
"112 326 LINE",
"17 215 LINE",
"17 111 LINE"
);
},
{
closed = 1;
nodes = (
"255 107 LINE",
"255 242 LINE",
"347 242 LINE",
"347 167 LINE",
"287 107 LINE"
);
}
);
width = 654;
}
);
leftKerningGroup = a;
note = uni1EB1;
rightKerningGroup = a;
unicode = 1EB1;
},
{
glyphname = uni1EB3;
layers = (
{
hints = (
{
horizontal = 1;
place = "{0, 107}";
type = Stem;
},
{
horizontal = 1;
place = "{242, 84}";
type = Stem;
},
{
horizontal = 1;
place = "{382, 141}";
type = Stem;
},
{
horizontal = 1;
place = "{574.96, 163}";
type = Stem;
},
{
horizontal = 1;
place = "{770.99, 106}";
type = Stem;
},
{
horizontal = 1;
place = "{901.99, 107}";
type = Stem;
},
{
place = "{247, 33}";
type = Stem;
},
{
place = "{382, 23}";
type = Stem;
},
{
horizontal = 1;
place = "{809.99, 67}";
type = Stem;
},
{
place = "{345, 150}";
type = Stem;
},
{
place = "{168, 145}";
type = Stem;
},
{
horizontal = 1;
place = "{942.99, 66}";
type = Stem;
},
{
place = "{347, 263}";
type = Stem;
},
{
horizontal = 1;
place = "{662.96, 75}";
type = Stem;
},
{
place = "{382, 191}";
type = Stem;
},
{
horizontal = 1;
place = "{574.96, 111}";
type = Stem;
},
{
place = "{80, 175}";
type = Stem;
},
{
place = "{17, 238}";
type = Stem;
}
);
layerId = "E328F9F0-3A13-48BC-903B-CF0D861777C2";
paths = (
{
closed = 1;
nodes = (
"247 770.98 LINE",
"405 770.98 LINE",
"405 809.98 LINE",
"447 809.98 LINE",
"495 847.98 LINE",
"495 966.98 LINE",
"446 1008.98 LINE",
"223 1008.98 LINE",
"168 966.98 LINE",
"168 901.98 LINE",
"313 901.98 LINE",
"313 942.98 LINE",
"345 942.98 LINE",
"345 876.98 LINE",
"286 876.98 LINE",
"247 847.98 LINE"
);
},
{
closed = 1;
nodes = (
"192 574.95 LINE",
"470 574.95 LINE",
"573 662.95 LINE",
"573 737.95 LINE",
"382 737.95 LINE",
"382 685.95 LINE",
"280 685.95 LINE",
"280 737.95 LINE",
"89 737.95 LINE",
"89 662.95 LINE"
);
},
{
closed = 1;
nodes = (
"112 0 LINE",
"289 0 LINE",
"347 62.36 LINE",
"347 0 LINE",
"610 0 LINE",
"610 428 LINE",
"499 523 LINE",
"80 523 LINE",
"80 382 LINE",
"347 382 LINE",
"347 326 LINE",
"112 326 LINE",
"17 215 LINE",
"17 111 LINE"
);
},
{
closed = 1;
nodes = (
"255 107 LINE",
"255 242 LINE",
"347 242 LINE",
"347 167 LINE",
"287 107 LINE"
);
}
);
width = 654;
}
);
leftKerningGroup = a;
note = uni1EB3;
rightKerningGroup = a;
unicode = 1EB3;
},
{
glyphname = uni1EB5;
layers = (
{
hints = (
{
horizontal = 1;
place = "{0, 107}";
type = Stem;
},
{
horizontal = 1;
place = "{242, 84}";
type = Stem;
},
{
horizontal = 1;
place = "{382, 141}";
type = Stem;
},
{
horizontal = 1;
place = "{575, 163}";
type = Stem;
},
{
horizontal = 1;
place = "{769, 161}";
type = Stem;
},
{
place = "{17, 238}";
type = Stem;
},
{
place = "{347, 263}";
type = Stem;
},
{
place = "{438, 147}";
type = Stem;
},
{
horizontal = 1;
place = "{841, 89}";
type = Stem;
},
{
horizontal = 1;
place = "{769, 113}";
type = Stem;
},
{
horizontal = 1;
place = "{775, 162}";
type = Stem;
},
{
place = "{79, 147}";
type = Stem;
},
{
horizontal = 1;
place = "{823, 114}";
type = Stem;
},
{
horizontal = 1;
place = "{663, 75}";
type = Stem;
},
{
place = "{382, 191}";
type = Stem;
},
{
horizontal = 1;
place = "{575, 111}";
type = Stem;
},
{
place = "{89, 191}";
type = Stem;
},
{
place = "{80, 175}";
type = Stem;
}
);
layerId = "E328F9F0-3A13-48BC-903B-CF0D861777C2";
paths = (
{
closed = 1;
nodes = (
"309 769 LINE",
"501 769 LINE",
"585 841 LINE",
"585 930 LINE",
"438 930 LINE",
"438 897 LINE",
"422 882 LINE",
"404 882 LINE",
"355 937 LINE",
"162 937 LINE",
"79 863 LINE",
"79 775 LINE",
"226 775 LINE",
"226 807 LINE",
"242 823 LINE",
"259 823 LINE"
);
},
{
closed = 1;
nodes = (
"192 575 LINE",
"470 575 LINE",
"573 663 LINE",
"573 738 LINE",
"382 738 LINE",
"382 686 LINE",
"280 686 LINE",
"280 738 LINE",
"89 738 LINE",
"89 663 LINE"
);
},
{
closed = 1;
nodes = (
"112 0 LINE",
"289 0 LINE",
"347 62.36 LINE",
"347 0 LINE",
"610 0 LINE",
"610 428 LINE",
"499 523 LINE",
"80 523 LINE",
"80 382 LINE",
"347 382 LINE",
"347 326 LINE",
"112 326 LINE",
"17 215 LINE",
"17 111 LINE"
);
},
{
closed = 1;
nodes = (
"255 107 LINE",
"255 242 LINE",
"347 242 LINE",
"347 167 LINE",
"287 107 LINE"
);
}
);
width = 654;
}
);
leftKerningGroup = a;
note = uni1EB5;
rightKerningGroup = a;
unicode = 1EB5;
},
{
glyphname = acircumflex;
layers = (
{
hints = (
{
horizontal = 1;
place = "{0, 107}";
type = Stem;
},
{
horizontal = 1;
place = "{242, 84}";
type = Stem;
},
{
horizontal = 1;
place = "{382, 141}";
type = Stem;
},
{
horizontal = 1;
place = "{575, 163}";
type = Stem;
},
{
place = "{17, 238}";
type = Stem;
},
{
place = "{347, 263}";
type = Stem;
},
{
horizontal = 1;
place = "{651, 87}";
type = Stem;
},
{
place = "{80, 175}";
type = Stem;
}
);
layerId = "E328F9F0-3A13-48BC-903B-CF0D861777C2";
paths = (
{
closed = 1;
nodes = (
"68 575 LINE",
"255 575 LINE",
"331 651 LINE",
"407 575 LINE",
"594 575 LINE",
"471 738 LINE",
"191 738 LINE"
);
},
{
closed = 1;
nodes = (
"112 0 LINE",
"289 0 LINE",
"347 62.36 LINE",
"347 0 LINE",
"610 0 LINE",
"610 428 LINE",
"499 523 LINE",
"80 523 LINE",
"80 382 LINE",
"347 382 LINE",
"347 326 LINE",
"112 326 LINE",
"17 215 LINE",
"17 111 LINE"
);
},
{
closed = 1;
nodes = (
"255 107 LINE",
"255 242 LINE",
"347 242 LINE",
"347 167 LINE",
"287 107 LINE"
);
}
);
width = 654;
}
);
leftKerningGroup = a;
note = acircumflex;
rightKerningGroup = a;
unicode = 00E2;
},
{
glyphname = uni1EA5;
layers = (
{
hints = (
{
horizontal = 1;
place = "{0, 107}";
type = Stem;
},
{
horizontal = 1;
place = "{242, 84}";
type = Stem;
},
{
horizontal = 1;
place = "{382, 141}";
type = Stem;
},
{
horizontal = 1;
place = "{662.53, 163}";
type = Stem;
},
{
place = "{17, 238}";
type = Stem;
},
{
place = "{347, 263}";
type = Stem;
},
{
horizontal = 1;
place = "{575, 163}";
type = Stem;
},
{
horizontal = 1;
place = "{651, 87}";
type = Stem;
},
{
place = "{80, 175}";
type = Stem;
}
);
layerId = "E328F9F0-3A13-48BC-903B-CF0D861777C2";
paths = (
{
closed = 1;
nodes = (
"576 662.52 LINE",
"748 662.52 LINE",
"910 825.52 LINE",
"685 825.52 LINE"
);
},
{
closed = 1;
nodes = (
"68 575 LINE",
"255 575 LINE",
"331 651 LINE",
"407 575 LINE",
"594 575 LINE",
"471 738 LINE",
"191 738 LINE"
);
},
{
closed = 1;
nodes = (
"112 0 LINE",
"289 0 LINE",
"347 62.36 LINE",
"347 0 LINE",
"610 0 LINE",
"610 428 LINE",
"499 523 LINE",
"80 523 LINE",
"80 382 LINE",
"347 382 LINE",
"347 326 LINE",
"112 326 LINE",
"17 215 LINE",
"17 111 LINE"
);
},
{
closed = 1;
nodes = (
"255 107 LINE",
"255 242 LINE",
"347 242 LINE",
"347 167 LINE",
"287 107 LINE"
);
}
);
width = 654;
}
);
leftKerningGroup = a;
note = uni1EA5;
rightKerningGroup = a;
unicode = 1EA5;
},
{
glyphname = uni1EAD;
layers = (
{
hints = (
{
horizontal = 1;
place = "{-209, 158}";
type = Stem;
},
{
horizontal = 1;
place = "{0, 107}";
type = Stem;
},
{
horizontal = 1;
place = "{242, 84}";
type = Stem;
},
{
horizontal = 1;
place = "{382, 141}";
type = Stem;
},
{
horizontal = 1;
place = "{575, 163}";
type = Stem;
},
{
place = "{17, 238}";
type = Stem;
},
{
place = "{347, 263}";
type = Stem;
},
{
horizontal = 1;
place = "{651, 87}";
type = Stem;
},
{
place = "{80, 175}";
type = Stem;
},
{
place = "{202.5, 263}";
type = Stem;
}
);
layerId = "E328F9F0-3A13-48BC-903B-CF0D861777C2";
paths = (
{
closed = 1;
nodes = (
"68 575 LINE",
"255 575 LINE",
"331 651 LINE",
"407 575 LINE",
"594 575 LINE",
"471 738 LINE",
"191 738 LINE"
);
},
{
closed = 1;
nodes = (
"112 0 LINE",
"289 0 LINE",
"347 62.36 LINE",
"347 0 LINE",
"610 0 LINE",
"610 428 LINE",
"499 523 LINE",
"80 523 LINE",
"80 382 LINE",
"347 382 LINE",
"347 326 LINE",
"112 326 LINE",
"17 215 LINE",
"17 111 LINE"
);
},
{
closed = 1;
nodes = (
"255 107 LINE",
"255 242 LINE",
"347 242 LINE",
"347 167 LINE",
"287 107 LINE"
);
},
{
closed = 1;
nodes = (
"202.5 -209 LINE",
"465.5 -209 LINE",
"465.5 -51 LINE",
"202.5 -51 LINE"
);
}
);
width = 654;
}
);
leftKerningGroup = a;
note = uni1EAD;
rightKerningGroup = a;
unicode = 1EAD;
},
{
glyphname = uni1EA7;
layers = (
{
hints = (
{
horizontal = 1;
place = "{0, 107}";
type = Stem;
},
{
horizontal = 1;
place = "{242, 84}";
type = Stem;
},
{
horizontal = 1;
place = "{382, 141}";
type = Stem;
},
{
horizontal = 1;
place = "{662.53, 163}";
type = Stem;
},
{
place = "{17, 238}";
type = Stem;
},
{
place = "{347, 263}";
type = Stem;
},
{
horizontal = 1;
place = "{575, 163}";
type = Stem;
},
{
horizontal = 1;
place = "{651, 87}";
type = Stem;
},
{
place = "{80, 175}";
type = Stem;
}
);
layerId = "E328F9F0-3A13-48BC-903B-CF0D861777C2";
paths = (
{
closed = 1;
nodes = (
"-85 662.52 LINE",
"87 662.52 LINE",
"-22 825.52 LINE",
"-247 825.52 LINE"
);
},
{
closed = 1;
nodes = (
"68 575 LINE",
"255 575 LINE",
"331 651 LINE",
"407 575 LINE",
"594 575 LINE",
"471 738 LINE",
"191 738 LINE"
);
},
{
closed = 1;
nodes = (
"112 0 LINE",
"289 0 LINE",
"347 62.36 LINE",
"347 0 LINE",
"610 0 LINE",
"610 428 LINE",
"499 523 LINE",
"80 523 LINE",
"80 382 LINE",
"347 382 LINE",
"347 326 LINE",
"112 326 LINE",
"17 215 LINE",
"17 111 LINE"
);
},
{
closed = 1;
nodes = (
"255 107 LINE",
"255 242 LINE",
"347 242 LINE",
"347 167 LINE",
"287 107 LINE"
);
}
);
width = 654;
}
);
leftKerningGroup = a;
note = uni1EA7;
rightKerningGroup = a;
unicode = 1EA7;
},
{
glyphname = uni1EA9;
layers = (
{
hints = (
{
horizontal = 1;
place = "{0, 107}";
type = Stem;
},
{
horizontal = 1;
place = "{242, 84}";
type = Stem;
},
{
horizontal = 1;
place = "{382, 141}";
type = Stem;
},
{
horizontal = 1;
place = "{662.65, 106}";
type = Stem;
},
{
horizontal = 1;
place = "{793.65, 107}";
type = Stem;
},
{
place = "{17, 238}";
type = Stem;
},
{
place = "{576, 158}";
type = Stem;
},
{
horizontal = 1;
place = "{701.65, 67}";
type = Stem;
},
{
place = "{347, 263}";
type = Stem;
},
{
place = "{674, 150}";
type = Stem;
},
{
horizontal = 1;
place = "{575, 163}";
type = Stem;
},
{
place = "{497, 145}";
type = Stem;
},
{
horizontal = 1;
place = "{834.65, 66}";
type = Stem;
},
{
horizontal = 1;
place = "{651, 87}";
type = Stem;
},
{
place = "{80, 175}";
type = Stem;
}
);
layerId = "E328F9F0-3A13-48BC-903B-CF0D861777C2";
paths = (
{
closed = 1;
nodes = (
"576 662.64 LINE",
"734 662.64 LINE",
"734 701.64 LINE",
"776 701.64 LINE",
"824 739.64 LINE",
"824 858.64 LINE",
"775 900.64 LINE",
"552 900.64 LINE",
"497 858.64 LINE",
"497 793.64 LINE",
"642 793.64 LINE",
"642 834.64 LINE",
"674 834.64 LINE",
"674 768.64 LINE",
"615 768.64 LINE",
"576 739.64 LINE"
);
},
{
closed = 1;
nodes = (
"68 575 LINE",
"255 575 LINE",
"331 651 LINE",
"407 575 LINE",
"594 575 LINE",
"471 738 LINE",
"191 738 LINE"
);
},
{
closed = 1;
nodes = (
"112 0 LINE",
"289 0 LINE",
"347 62.36 LINE",
"347 0 LINE",
"610 0 LINE",
"610 428 LINE",
"499 523 LINE",
"80 523 LINE",
"80 382 LINE",
"347 382 LINE",
"347 326 LINE",
"112 326 LINE",
"17 215 LINE",
"17 111 LINE"
);
},
{
closed = 1;
nodes = (
"255 107 LINE",
"255 242 LINE",
"347 242 LINE",
"347 167 LINE",
"287 107 LINE"
);
}
);
width = 654;
}
);
leftKerningGroup = a;
note = uni1EA9;
rightKerningGroup = a;
unicode = 1EA9;
},
